<?xml version="1.0" encoding="UTF-8" standalone="no"?>
<svg
   width="0.43293133in"
   height="0.86600226in"
   viewBox="0 0 432.93134 866.00225"
   version="1.2"
   id="svg6"
   sodipodi:docname="svg.pcb.Stepup_ede3c8db1d15c8ef8fcd22aa4e31e44a_2_pcb.svg"
   inkscape:version="1.3 (0e150ed6c4, 2023-07-21)"
   xmlns:inkscape="http://www.inkscape.org/namespaces/inkscape"
   xmlns:sodipodi="http://sodipodi.sourceforge.net/DTD/sodipodi-0.dtd"
   xmlns="http://www.w3.org/2000/svg"
   xmlns:svg="http://www.w3.org/2000/svg">
  <defs
     id="defs6" />
  <sodipodi:namedview
     id="namedview6"
     pagecolor="#ffffff"
     bordercolor="#000000"
     borderopacity="0.25"
     inkscape:showpageshadow="2"
     inkscape:pageopacity="0.0"
     inkscape:pagecheckerboard="0"
     inkscape:deskcolor="#d1d1d1"
     inkscape:document-units="in"
     inkscape:zoom="10.433881"
     inkscape:cx="21.851888"
     inkscape:cy="44.997638"
     inkscape:window-width="1920"
     inkscape:window-height="1009"
     inkscape:window-x="-8"
     inkscape:window-y="-8"
     inkscape:window-maximized="1"
     inkscape:current-layer="silkscreen" />
  <desc
     id="desc1">
    <referenceFile>jumper_3_100mil_pcb.svg</referenceFile>
  </desc>
  <desc
     id="desc2">Fritzing footprint SVG</desc>
  <g
     id="silkscreen"
     gorn="0.1"
     transform="translate(-6.847086,-15.298097)">
    <!-- 120 -->
    <rect
       style="fill:none;stroke:#000000;stroke-width:20;stroke-dasharray:none;stroke-opacity:1"
       id="rect6"
       width="412.93134"
       height="846.00226"
       x="-429.77841"
       y="25.298098"
       transform="scale(-1,1)" />
    <path
       d="M 64.35657,813.30642 H 46.930517 v -3.71291 h 5.77905 v -28.94608 h -5.77905 v -3.71291 H 64.35657 v 3.71291 h -5.77904 v 28.94608 h 5.77904 z m 43.65402,0 h -7.26085 l -20.9231,-32.53685 v 32.53685 h -5.4827 v -36.3719 h 9.0983 l 19.08567,29.7033 v -29.7033 h 5.48268 z"
       id="text7"
       style="stroke-width:4.59194"
       aria-label="IN" />
    <path
       d="m 192.38107,156.40805 q 2.08492,2.22782 3.18465,5.45814 1.12265,3.23033 1.12265,7.32951 0,4.09917 -1.14556,7.35178 -1.12265,3.23033 -3.16174,5.3913 -2.10782,2.2501 -4.99463,3.38628 -2.86389,1.13618 -6.55258,1.13618 -3.59705,0 -6.55258,-1.15846 -2.93263,-1.15846 -4.99463,-3.364 -2.062,-2.20553 -3.18465,-5.41358 -1.09973,-3.20805 -1.09973,-7.3295 0,-4.05462 1.09973,-7.26267 1.09973,-3.23033 3.20756,-5.52498 2.01618,-2.18326 4.99463,-3.34172 3.00136,-1.15846 6.52967,-1.15846 3.66578,0 6.5755,1.18074 2.93262,1.15846 4.97171,3.31944 z m -0.4124,12.78765 q 0,-6.46066 -2.97844,-9.95833 -2.97845,-3.51994 -8.13346,-3.51994 -5.20083,0 -8.17928,3.51994 -2.95553,3.49767 -2.95553,9.95833 0,6.52749 3.02427,10.00287 3.02427,3.45311 8.11054,3.45311 5.08627,0 8.08763,-3.45311 3.02427,-3.47538 3.02427,-10.00287 z m 37.59717,3.25261 q 0,3.60905 -0.8248,6.3047 -0.80189,2.67338 -2.65769,4.45563 -1.76416,1.69314 -4.124,2.47287 -2.35985,0.77973 -5.49868,0.77973 -3.20755,0 -5.59031,-0.82429 -2.38276,-0.82429 -4.00945,-2.42831 -1.85581,-1.82681 -2.6806,-4.41107 -0.80189,-2.58426 -0.80189,-6.34926 v -19.84982 h 4.5364 v 20.0726 q 0,2.69565 0.36658,4.25511 0.38949,1.55948 1.28302,2.82933 1.00809,1.44808 2.72642,2.18325 1.74125,0.73519 4.16983,0.73519 2.45149,0 4.16983,-0.71291 1.71833,-0.73517 2.74933,-2.20553 0.89354,-1.26985 1.26012,-2.89616 0.38948,-1.64858 0.38948,-4.0769 v -20.18398 h 4.53641 z m 32.99203,-15.92887 h -12.18872 v 29.25119 h -4.53641 v -29.25119 h -12.18872 v -3.92095 h 28.91385 z"
       id="text7-3"
       style="stroke-width:3.85578"
       aria-label="OUT" />
    <path
       d="m 288.09417,798.97321 h 17.12193 v 16.73096 h 5.21512 v -16.73096 h 17.12192 v -4.91184 h -17.12192 v -16.73095 h -5.21512 v 16.73095 h -17.12193 z"
       id="text7-2"
       style="stroke-width:5.30018"
       aria-label="+" />
    <path
       d="m 42.785057,171.24738 h 24.06281 v 24.06282 h 7.32923 v -24.06282 h 24.06281 v -7.06431 h -24.06281 v -24.06281 h -7.32923 v 24.06281 h -24.06281 z"
       id="text7-2-2"
       style="stroke-width:7.53529"
       aria-label="+" />
    <path
       d="m 137.73829,800.21889 h 34.39458 v -8.58645 h -34.39458 z"
       id="text7-2-9"
       style="stroke-width:8.72711"
       aria-label="-" />
    <path
       d="m 364.93419,168.2202 h 29.47277 v -7.76615 h -29.47277 z"
       id="text7-2-9-2"
       style="stroke-width:7.68302"
       aria-label="-" />
  </g>
  <g
     id="copper1"
     gorn="0.2"
     transform="matrix(-1,0,0,1,436.39718,-0.10203871)">
    <g
       id="copper0"
       gorn="0.2.0">
      <rect
         width="58"
         height="58"
         y="49.821831"
         id="square"
         fill="none"
         gorn="0.2.0.0"
         stroke-width="20"
         x="33.588047"
         stroke="#ffbf00" />
      <circle
         id="connector0pin"
         fill="none"
         gorn="0.2.0.1"
         cx="62.588043"
         r="29"
         stroke-width="20"
         cy="78.821815"
         stroke="#ffbf00" />
      <circle
         id="connector1pin"
         fill="none"
         gorn="0.2.0.2"
         cx="377.39899"
         r="29"
         stroke-width="20"
         cy="78.747139"
         stroke="#ffbf00" />
      <circle
         id="connector2pin"
         fill="none"
         gorn="0.2.0.3"
         cx="62.567833"
         r="29"
         stroke-width="20"
         cy="787.66394"
         stroke="#ffbf00" />
      <circle
         id="connector2pin-9"
         fill="none"
         gorn="0.2.0.3"
         cx="220.05894"
         r="29"
         stroke-width="20"
         cy="788.03229"
         stroke="#ffbf00"
         inkscape:label="connecto3pin" />
    </g>
  </g>
</svg>
