<?xml version='1.0' encoding='utf-8'?>
<!DOCTYPE svg>
<svg xmlns="http://www.w3.org/2000/svg"  width="0.36998in" height="0.37592in" y="0px" viewBox="0 0 36.998 37.592" id="svg2" gorn="0" xml:space="preserve" x="0px" xmlns:xml="http://www.w3.org/XML/1998/namespace" version="1.1" baseProfile="basic">
    <desc>
        <referenceFile>basic_toggle_switch.svg</referenceFile>
    </desc>
    <g  id="breadboard" gorn="0.0">
        <rect  width="2.52" height="1.647" y="35.105" id="connector0terminal" fill="#8C8C8C" gorn="0.0.0" x="6.033"/>
        <rect  width="2.521" height="1.647" y="35.105" id="connector1terminal" fill="#8C8C8C" gorn="0.0.1" x="16.032"/>
        <rect  width="2.521" height="1.647" y="35.105" id="connector2terminal" fill="#8C8C8C" gorn="0.0.2" x="26.03"/>
        <rect  width="2.52" height="7.438" y="29.32" id="connector0pin" fill="#8C8C8C" gorn="0.0.3" x="6.033"/>
        <rect  width="2.521" height="7.438" y="29.32" id="connector1pin" fill="#8C8C8C" gorn="0.0.4" x="16.032"/>
        <rect  width="2.521" height="7.438" y="29.32" id="connector2pin" fill="#8C8C8C" gorn="0.0.5" x="26.03"/>
        <rect  width="2.52" height="20.785" y="15.905" id="rect4" fill="#8C8C8C" gorn="0.0.6" x="6.021"/>
        <rect  width="2.521" height="20.785" y="15.905" id="rect6" fill="#8C8C8C" gorn="0.0.7" x="16.02"/>
        <rect  width="2.521" height="20.785" y="15.905" id="rect8" fill="#8C8C8C" gorn="0.0.8" x="26.018"/>
        <polygon  points="10.781,26.049 8.541,27.049 6.022,27.049 3.781,26.049 3.781,13.87 10.781,13.87 " id="polygon21" fill="#8C8C8C" gorn="0.0.9"/>
        <polygon  points="20.782,26.049 18.539,27.049 16.021,27.049 13.781,26.049 13.781,13.87   20.782,13.87 " id="polygon23" fill="#8C8C8C" gorn="0.0.10"/>
        <polygon  points="30.78,26.049 28.537,27.049 26.02,27.049 23.78,26.049 23.78,13.87 30.78,13.87 " id="polygon25" fill="#8C8C8C" gorn="0.0.11"/>
        <rect  width="36.998" height="18.472" y="4.646" id="rect27" fill="#1A1A1A" gorn="0.0.12" x="-1.218"/>
        <rect  width="36.998" height="4.649" y="8.25" id="rect49" gorn="0.0.13" x="-1.218"/>
        <rect  width="36.998" height="5.748" y="4.501" id="rect51" fill="#333333" gorn="0.0.14" x="-1.218"/>
        <rect  width="15.562" height="4.649" y="5.062" id="rect49_1_" gorn="0.0.15" x="10.136"/>
        <rect  width="6.664" height="7.332" y="2.214" id="rect27_1_" fill="#1A1A1A" gorn="0.0.16" x="18.826"/>
        <rect  width="6.664" height="3.046" y="-0.833" id="rect51_1_" fill="#333333" gorn="0.0.17" x="18.826"/>
    </g>
</svg>
