<?xml version="1.0" encoding="UTF-8" standalone="no"?>
<!-- Created with Inkscape (http://www.inkscape.org/) -->

<svg
   width="59.13319mm"
   height="57.730614mm"
   viewBox="0 0 59.13319 57.730613"
   version="1.1"
   id="svg1"
   sodipodi:docname="PCB_PODIUM-v2.svg"
   inkscape:version="1.3 (0e150ed6c4, 2023-07-21)"
   xml:space="preserve"
   xmlns:inkscape="http://www.inkscape.org/namespaces/inkscape"
   xmlns:sodipodi="http://sodipodi.sourceforge.net/DTD/sodipodi-0.dtd"
   xmlns="http://www.w3.org/2000/svg"
   xmlns:svg="http://www.w3.org/2000/svg"><sodipodi:namedview
     id="namedview1"
     pagecolor="#ffffff"
     bordercolor="#000000"
     borderopacity="0.25"
     inkscape:showpageshadow="2"
     inkscape:pageopacity="0.0"
     inkscape:pagecheckerboard="0"
     inkscape:deskcolor="#d1d1d1"
     inkscape:document-units="mm"
     inkscape:zoom="18.40235"
     inkscape:cx="33.202281"
     inkscape:cy="45.347468"
     inkscape:window-width="1920"
     inkscape:window-height="1009"
     inkscape:window-x="-8"
     inkscape:window-y="-8"
     inkscape:window-maximized="1"
     inkscape:current-layer="board"
     showgrid="false" /><defs
     id="defs1"><marker
       id="DistanceX"
       orient="auto"
       refX="0"
       refY="0"
       style="overflow:visible"><path
         d="M 3,-3 -3,3 M 0,-5 V 5"
         style="stroke:#000000;stroke-width:0.5"
         id="path1" /></marker><pattern
       id="Hatch"
       patternUnits="userSpaceOnUse"
       width="8"
       height="8"
       x="0"
       y="0"><path
         d="M8 4 l-4,4"
         stroke="#000000"
         stroke-width="0.25"
         linecap="square"
         id="path2" /><path
         d="M6 2 l-4,4"
         stroke="#000000"
         stroke-width="0.25"
         linecap="square"
         id="path3" /><path
         d="M4 0 l-4,4"
         stroke="#000000"
         stroke-width="0.25"
         linecap="square"
         id="path4" /></pattern><symbol
       id="*MODEL_SPACE" /><symbol
       id="*PAPER_SPACE" /><marker
       id="DistanceX-0"
       orient="auto"
       refX="0"
       refY="0"
       style="overflow:visible"><path
         d="M 3,-3 -3,3 M 0,-5 V 5"
         style="stroke:#000000;stroke-width:0.5"
         id="path1-2" /></marker><pattern
       id="Hatch-3"
       patternUnits="userSpaceOnUse"
       width="8"
       height="8"
       x="0"
       y="0"><path
         d="M8 4 l-4,4"
         stroke="#000000"
         stroke-width="0.25"
         linecap="square"
         id="path2-4" /><path
         d="M6 2 l-4,4"
         stroke="#000000"
         stroke-width="0.25"
         linecap="square"
         id="path3-5" /><path
         d="M4 0 l-4,4"
         stroke="#000000"
         stroke-width="0.25"
         linecap="square"
         id="path4-1" /></pattern><symbol
       id="*MODEL_SPACE-8" /><symbol
       id="*PAPER_SPACE-7" /></defs><g
     inkscape:label="Layer1"
     inkscape:groupmode="layer"
     id="layer1"
     transform="translate(86.746064,-7.680506)"><g
       inkscape:groupmode="layer"
       id="board"
       inkscape:label="board"><path
         style="color:#000000;display:none;fill:#bb43ff;fill-opacity:1;stroke:none;stroke-opacity:1;-inkscape-stroke:none"
         d="m 0,1010.7891 c -26.398833,0 -52.79858,9.3115 -73.914062,27.9375 -0.747929,0.6597 -1.398274,1.4215 -1.935547,2.2617 -0.53722,0.8399 -0.955114,1.7496 -1.240235,2.7051 -0.398643,1.336 -0.533186,2.7374 -0.394531,4.125 0.138653,1.3874 0.547969,2.7341 1.203125,3.9648 0.468584,0.8802 1.057122,1.691 1.75,2.4082 0.953673,0.987 2.499273,1.9195 3.464878,2.4475 h -0.002 c 10.276391,5.9561 13.784551,19.0945 7.845703,29.3809 -5.938848,10.2863 -19.070859,13.818 -29.367188,7.8965 v 0 c -1.194526,-0.7236 -3.981519,-2.1902 -6.810582,-2.092 -1.393391,0.048 -2.764191,0.3677 -4.035161,0.9414 -1.271,0.5737 -2.41733,1.3891 -3.375,2.4023 -0.68491,0.7247 -1.26378,1.5425 -1.72266,2.4278 -0.45893,0.8853 -0.79285,1.829 -0.99023,2.8066 -11.14558,55.199 20.537524,110.0743 73.914067,128.0215 0.945287,0.3178 1.929504,0.5037 2.925781,0.5488 0.996077,0.045 1.992905,-0.051 2.962891,-0.2812 1.356388,-0.3227 2.637214,-0.907 3.769531,-1.7207 1.132317,-0.8139 2.093806,-1.8408 2.832031,-3.0235 0.528002,-0.8459 0.936312,-1.7602 1.210938,-2.7187 0.138779,-0.4845 0.139833,-0.9924 0.208984,-1.4903 0.09228,-0.4799 0.126772,-0.9846 0.177735,-1.4589 v -1.2715 c 0,-11.8919 9.629668,-21.5215 21.521484,-21.5215 11.891816,0 21.521484,9.6296 21.521484,21.5215 0.06448,1.1233 0.07678,1.7203 0.177735,2.7304 0.06915,0.4979 0.07021,1.0059 0.208984,1.4903 0.274613,0.958 0.683281,1.8733 1.210938,2.7187 0.738206,1.1827 1.699684,2.2096 2.832031,3.0235 1.132338,0.8139 2.413195,1.3979 3.769531,1.7207 0.96984,0.2304 1.966761,0.3263 2.962891,0.2812 0.996224,-0.045 1.980446,-0.231 2.925781,-0.5488 53.376543,-17.9472 85.059643,-72.8225 73.914063,-128.0215 -0.19739,-0.9776 -0.53131,-1.9213 -0.99024,-2.8066 -0.45886,-0.8853 -1.03778,-1.7031 -1.72265,-2.4278 -0.95765,-1.0132 -2.10399,-1.8286 -3.375,-2.4023 -1.27103,-0.5737 -2.64192,-0.8932 -4.035157,-0.9414 -0.996582,-0.034 -1.993425,0.071 -2.960938,0.3125 -0.487658,0.1217 -0.905852,0.2733 -1.370455,0.4617 -0.434151,0.1452 -1.015086,0.5187 -1.375637,0.6783 l -1.101562,0.6367 h -0.002 c -10.296329,5.9215 -23.42834,2.3898 -29.367188,-7.8965 -5.938848,-10.2864 -2.430688,-23.4248 7.845703,-29.3809 l 1.263657,-0.725 1.015629,-0.793 c 0.395652,-0.3082 0.83421,-0.5622 1.183594,-0.9238 0.692891,-0.7171 1.281417,-1.528 1.75,-2.4082 0.655169,-1.2307 1.064457,-2.5774 1.203125,-3.9648 0.138669,-1.3876 0.0041,-2.789 -0.394531,-4.125 -0.285117,-0.9555 -0.703023,-1.8651 -1.240235,-2.7051 -0.537279,-0.8402 -1.187604,-1.602 -1.935547,-2.2617 C 52.79858,1020.1006 26.398833,1010.7891 0,1010.7891 Z"
         id="boardoutline"
         transform="matrix(0.26458333,0,0,0.26458333,-57.179456,-259.75744)"
         sodipodi:nodetypes="sscssssccssccssscscccssccsscccsscccsccscsccccccccssssccs"
         inkscape:label="boardoutline ORI" /><path
         id="path5"
         style="fill:#9514ff;fill-opacity:1;stroke-width:0.56636"
         inkscape:label="boardoutline"
         d="m -57.158723,8.0753139 c -6.810392,0.028837 -13.394983,2.4454621 -18.607133,6.8290401 -0.857466,0.389139 -1.408152,1.243762 -1.408182,2.185397 10e-4,1.076207 0.718326,2.020158 1.754931,2.30942 l 0.109429,0.06469 c 1.751442,1.154538 2.706239,3.12511 2.709521,5.222846 -1.39e-4,3.451779 -2.798486,6.249894 -6.250265,6.249748 -1.208765,-0.01141 -2.388289,-0.373113 -3.395658,-1.04128 -0.351721,-0.191419 -0.745748,-0.291791 -1.146184,-0.291972 -1.325566,8.1e-5 -2.170644,0.695914 -2.440161,2.420524 -0.269515,1.724611 -0.365038,2.140399 -0.425813,5.151623 0.05449,12.09136 7.580511,22.88925 18.905822,27.12496 0.435344,0.37538 0.990962,0.582042 1.565796,0.582393 1.325569,-8.1e-5 2.400058,-1.074801 2.399854,-2.40037 -2.16e-4,-0.09796 -0.0064,-0.19581 -0.0186,-0.293005 0.03803,-3.420281 2.818409,-6.174636 6.238896,-6.180502 3.382691,0.01196 6.141954,2.713048 6.225976,6.094719 -0.01995,0.12286 -0.03032,0.247085 -0.03101,0.371553 -2.04e-4,1.325568 1.074285,2.400289 2.399853,2.40037 0.48063,-0.0014 0.94978,-0.147006 1.346688,-0.418062 11.481639,-4.169877 19.136905,-15.066693 19.166272,-27.282056 -0.03098,-2.526148 -0.352559,-4.182838 -0.483175,-5.198649 -0.130616,-1.015811 -1.074287,-2.400289 -2.399853,-2.40037 -0.377985,0.0019 -0.750169,0.09312 -1.086239,0.266134 l -5.17e-4,-5.17e-4 c -1.025717,0.693713 -2.23439,1.067108 -3.472656,1.072803 -3.451777,-1.39e-4 -6.249894,-2.798486 -6.249748,-6.250265 0.03244,-2.345013 1.374951,-4.47452 3.476791,-5.514909 l 0.111621,-0.07648 c 0.672922,-0.443633 0.970741,-1.211965 0.971517,-2.017964 -2.53e-4,-0.906042 -0.510731,-1.734718 -1.319816,-2.142505 -5.221756,-4.395541 -11.822489,-6.815711 -18.647958,-6.8373091 z"
         sodipodi:nodetypes="cccccccccscccccccccccscccccccccc" /></g><g
       inkscape:groupmode="layer"
       id="silkscreen"
       inkscape:label="silkscreen" /></g></svg>
