G04 MADE WITH FRITZING*
G04 WWW.FRITZING.ORG*
G04 DOUBLE SIDED*
G04 HOLES PLATED*
G04 CONTOUR ON CENTER OF CONTOUR VECTOR*
%ASAXBY*%
%FSLAX23Y23*%
%MOIN*%
%OFA0B0*%
%SFA1.0B1.0*%
%ADD10C,0.092000*%
%ADD11C,0.088000*%
%ADD12C,0.096614*%
%ADD13C,0.085000*%
%ADD14C,0.035000*%
%ADD15R,0.001000X0.001000*%
%LNMASK1*%
G90*
G70*
G54D10*
X470Y388D03*
X152Y207D03*
X687Y428D03*
X374Y739D03*
X154Y648D03*
X374Y116D03*
X595Y649D03*
X61Y429D03*
X595Y207D03*
G54D11*
X659Y539D03*
X492Y143D03*
X659Y304D03*
X843Y487D03*
X883Y579D03*
X922Y671D03*
G54D12*
X1631Y815D03*
X856Y815D03*
X856Y71D03*
X1631Y71D03*
G54D10*
X1148Y473D03*
X1466Y654D03*
X930Y433D03*
X1244Y121D03*
X1464Y212D03*
X1244Y745D03*
X1023Y211D03*
X1557Y432D03*
X1023Y654D03*
G54D13*
X998Y741D03*
X1183Y819D03*
X326Y320D03*
X254Y133D03*
X381Y648D03*
X197Y570D03*
X87Y549D03*
X267Y461D03*
X227Y253D03*
X149Y437D03*
X494Y720D03*
X416Y536D03*
X591Y397D03*
X516Y582D03*
X1556Y679D03*
X1635Y495D03*
X1634Y380D03*
X1559Y195D03*
X1296Y822D03*
X1480Y743D03*
X547Y291D03*
X363Y213D03*
X1004Y126D03*
G54D14*
X1188Y47D03*
X1305Y46D03*
G54D13*
X1489Y124D03*
X862Y375D03*
X937Y190D03*
G54D15*
X1184Y90D02*
X1192Y90D01*
X1178Y89D02*
X1198Y89D01*
X1303Y89D02*
X1307Y89D01*
X1175Y88D02*
X1201Y88D01*
X1296Y88D02*
X1314Y88D01*
X1172Y87D02*
X1204Y87D01*
X1292Y87D02*
X1317Y87D01*
X1170Y86D02*
X1206Y86D01*
X1289Y86D02*
X1320Y86D01*
X1168Y85D02*
X1208Y85D01*
X1287Y85D02*
X1322Y85D01*
X1166Y84D02*
X1210Y84D01*
X1285Y84D02*
X1324Y84D01*
X1165Y83D02*
X1211Y83D01*
X1283Y83D02*
X1326Y83D01*
X1163Y82D02*
X1213Y82D01*
X1282Y82D02*
X1328Y82D01*
X1162Y81D02*
X1214Y81D01*
X1280Y81D02*
X1329Y81D01*
X1161Y80D02*
X1215Y80D01*
X1279Y80D02*
X1330Y80D01*
X1160Y79D02*
X1216Y79D01*
X1278Y79D02*
X1332Y79D01*
X1159Y78D02*
X1217Y78D01*
X1277Y78D02*
X1333Y78D01*
X1158Y77D02*
X1218Y77D01*
X1275Y77D02*
X1334Y77D01*
X1157Y76D02*
X1219Y76D01*
X1274Y76D02*
X1335Y76D01*
X1156Y75D02*
X1220Y75D01*
X1274Y75D02*
X1336Y75D01*
X1155Y74D02*
X1221Y74D01*
X1273Y74D02*
X1337Y74D01*
X1154Y73D02*
X1222Y73D01*
X1272Y73D02*
X1337Y73D01*
X1154Y72D02*
X1222Y72D01*
X1271Y72D02*
X1338Y72D01*
X1153Y71D02*
X1223Y71D01*
X1270Y71D02*
X1339Y71D01*
X1152Y70D02*
X1224Y70D01*
X1270Y70D02*
X1340Y70D01*
X1152Y69D02*
X1224Y69D01*
X1269Y69D02*
X1340Y69D01*
X1151Y68D02*
X1225Y68D01*
X1269Y68D02*
X1341Y68D01*
X1151Y67D02*
X1225Y67D01*
X1268Y67D02*
X1341Y67D01*
X1150Y66D02*
X1226Y66D01*
X1267Y66D02*
X1342Y66D01*
X1150Y65D02*
X1226Y65D01*
X1267Y65D02*
X1342Y65D01*
X1149Y64D02*
X1227Y64D01*
X1266Y64D02*
X1343Y64D01*
X1149Y63D02*
X1227Y63D01*
X1266Y63D02*
X1343Y63D01*
X1149Y62D02*
X1228Y62D01*
X1266Y62D02*
X1344Y62D01*
X1148Y61D02*
X1228Y61D01*
X1265Y61D02*
X1344Y61D01*
X1148Y60D02*
X1228Y60D01*
X1265Y60D02*
X1344Y60D01*
X1148Y59D02*
X1228Y59D01*
X1265Y59D02*
X1345Y59D01*
X1147Y58D02*
X1229Y58D01*
X1264Y58D02*
X1345Y58D01*
X1147Y57D02*
X1229Y57D01*
X1264Y57D02*
X1345Y57D01*
X1147Y56D02*
X1229Y56D01*
X1264Y56D02*
X1346Y56D01*
X1147Y55D02*
X1229Y55D01*
X1264Y55D02*
X1346Y55D01*
X1147Y54D02*
X1229Y54D01*
X1263Y54D02*
X1346Y54D01*
X1146Y53D02*
X1230Y53D01*
X1263Y53D02*
X1346Y53D01*
X1146Y52D02*
X1230Y52D01*
X1263Y52D02*
X1346Y52D01*
X1146Y51D02*
X1230Y51D01*
X1263Y51D02*
X1346Y51D01*
X1146Y50D02*
X1230Y50D01*
X1263Y50D02*
X1346Y50D01*
X1146Y49D02*
X1230Y49D01*
X1263Y49D02*
X1347Y49D01*
X1146Y48D02*
X1230Y48D01*
X1263Y48D02*
X1347Y48D01*
X1146Y47D02*
X1230Y47D01*
X1263Y47D02*
X1347Y47D01*
X1146Y46D02*
X1230Y46D01*
X1263Y46D02*
X1347Y46D01*
X1146Y45D02*
X1230Y45D01*
X1263Y45D02*
X1347Y45D01*
X1146Y44D02*
X1230Y44D01*
X1263Y44D02*
X1347Y44D01*
X1146Y43D02*
X1230Y43D01*
X1263Y43D02*
X1346Y43D01*
X1147Y42D02*
X1230Y42D01*
X1263Y42D02*
X1346Y42D01*
X1147Y41D02*
X1229Y41D01*
X1263Y41D02*
X1346Y41D01*
X1147Y40D02*
X1229Y40D01*
X1263Y40D02*
X1346Y40D01*
X1147Y39D02*
X1229Y39D01*
X1263Y39D02*
X1346Y39D01*
X1147Y38D02*
X1229Y38D01*
X1264Y38D02*
X1346Y38D01*
X1148Y37D02*
X1228Y37D01*
X1264Y37D02*
X1345Y37D01*
X1148Y36D02*
X1228Y36D01*
X1264Y36D02*
X1345Y36D01*
X1148Y35D02*
X1228Y35D01*
X1264Y35D02*
X1345Y35D01*
X1148Y34D02*
X1228Y34D01*
X1265Y34D02*
X1345Y34D01*
X1149Y33D02*
X1227Y33D01*
X1265Y33D02*
X1344Y33D01*
X1149Y32D02*
X1227Y32D01*
X1265Y32D02*
X1344Y32D01*
X1150Y31D02*
X1227Y31D01*
X1266Y31D02*
X1344Y31D01*
X1150Y30D02*
X1226Y30D01*
X1266Y30D02*
X1343Y30D01*
X1151Y29D02*
X1226Y29D01*
X1267Y29D02*
X1343Y29D01*
X1151Y28D02*
X1225Y28D01*
X1267Y28D02*
X1342Y28D01*
X1152Y27D02*
X1224Y27D01*
X1268Y27D02*
X1342Y27D01*
X1152Y26D02*
X1224Y26D01*
X1268Y26D02*
X1341Y26D01*
X1153Y25D02*
X1223Y25D01*
X1269Y25D02*
X1341Y25D01*
X1153Y24D02*
X1223Y24D01*
X1269Y24D02*
X1340Y24D01*
X1154Y23D02*
X1222Y23D01*
X1270Y23D02*
X1339Y23D01*
X1155Y22D02*
X1221Y22D01*
X1271Y22D02*
X1339Y22D01*
X1156Y21D02*
X1220Y21D01*
X1271Y21D02*
X1338Y21D01*
X1157Y20D02*
X1220Y20D01*
X1272Y20D02*
X1337Y20D01*
X1157Y19D02*
X1219Y19D01*
X1273Y19D02*
X1336Y19D01*
X1158Y18D02*
X1218Y18D01*
X1274Y18D02*
X1335Y18D01*
X1159Y17D02*
X1217Y17D01*
X1275Y17D02*
X1335Y17D01*
X1161Y16D02*
X1216Y16D01*
X1276Y16D02*
X1333Y16D01*
X1162Y15D02*
X1214Y15D01*
X1277Y15D02*
X1332Y15D01*
X1163Y14D02*
X1213Y14D01*
X1278Y14D02*
X1331Y14D01*
X1164Y13D02*
X1212Y13D01*
X1279Y13D02*
X1330Y13D01*
X1166Y12D02*
X1210Y12D01*
X1281Y12D02*
X1329Y12D01*
X1168Y11D02*
X1208Y11D01*
X1282Y11D02*
X1327Y11D01*
X1169Y10D02*
X1207Y10D01*
X1284Y10D02*
X1325Y10D01*
X1171Y9D02*
X1205Y9D01*
X1286Y9D02*
X1324Y9D01*
X1174Y8D02*
X1202Y8D01*
X1288Y8D02*
X1322Y8D01*
X1177Y7D02*
X1199Y7D01*
X1290Y7D02*
X1319Y7D01*
X1182Y6D02*
X1194Y6D01*
X1293Y6D02*
X1316Y6D01*
X1297Y5D02*
X1312Y5D01*
D02*
G04 End of Mask1*
M02*