; NON-PLATED HOLES START AT T1
; THROUGH (PLATED) HOLES START AT T100
M48
INCH
T1C0.086614
T100C0.042000
T101C0.038000
T102C0.035000
T103C0.041000
%
T1
X016308Y000713
X008558Y008153
X016308Y008153
X008558Y000713
T100
X001522Y002069
X001539Y006483
X011479Y004725
X012442Y001214
X015570Y004321
X004699Y003881
X009304Y004326
X003735Y001161
X010231Y002113
X010232Y006541
X005947Y006492
X006874Y004280
X000607Y004285
X005945Y002065
X003735Y007392
X012443Y007445
X014639Y002123
X014655Y006537
T101
X006590Y005394
X006590Y003038
X009216Y006708
X008825Y005787
X008434Y004867
X004916Y001426
T102
X002544Y001333
X015591Y001946
X009369Y001897
X005908Y003968
X011825Y008190
X002272Y002530
X015564Y006789
X014888Y001243
X005474Y002914
X005159Y005822
X008620Y003751
X014801Y007433
X016346Y004948
X012960Y008215
X002668Y004610
X003633Y002133
X001968Y005695
X016341Y003800
X000870Y005487
X004938Y007204
X001490Y004371
X010039Y001255
X003261Y003200
X004156Y005363
X003809Y006476
X009984Y007409
T103
X011880Y000473
X013047Y000462
T00
M30
