G04 MADE WITH FRITZING*
G04 WWW.FRITZING.ORG*
G04 DOUBLE SIDED*
G04 HOLES PLATED*
G04 CONTOUR ON CENTER OF CONTOUR VECTOR*
%ASAXBY*%
%FSLAX23Y23*%
%MOIN*%
%OFA0B0*%
%SFA1.0B1.0*%
%ADD10C,0.082000*%
%ADD11C,0.078000*%
%ADD12C,0.075000*%
%ADD13C,0.045000*%
%ADD14C,0.008000*%
%ADD15C,0.024000*%
%ADD16R,0.001000X0.001000*%
%LNCOPPER0*%
G90*
G70*
G54D10*
X470Y388D03*
X152Y207D03*
X687Y428D03*
X374Y739D03*
X154Y648D03*
X374Y116D03*
X595Y649D03*
X61Y429D03*
X595Y207D03*
G54D11*
X659Y539D03*
X492Y143D03*
X659Y304D03*
X843Y487D03*
X883Y579D03*
X922Y671D03*
G54D10*
X1148Y473D03*
X1466Y654D03*
X930Y433D03*
X1244Y121D03*
X1464Y212D03*
X1244Y745D03*
X1023Y211D03*
X1557Y432D03*
X1023Y654D03*
G54D12*
X998Y741D03*
X1183Y819D03*
X326Y320D03*
X254Y133D03*
X381Y648D03*
X197Y570D03*
X87Y549D03*
X267Y461D03*
X227Y253D03*
X149Y437D03*
X494Y720D03*
X416Y536D03*
X591Y397D03*
X516Y582D03*
X1556Y679D03*
X1635Y495D03*
X1634Y380D03*
X1559Y195D03*
X1296Y822D03*
X1480Y743D03*
X547Y291D03*
X363Y213D03*
X1004Y126D03*
G54D13*
X1188Y47D03*
X1305Y46D03*
G54D12*
X1489Y124D03*
X862Y375D03*
X937Y190D03*
G54D14*
X867Y568D02*
X781Y512D01*
D02*
X781Y512D02*
X720Y512D01*
D02*
X720Y512D02*
X676Y532D01*
G54D15*
D02*
X578Y661D02*
X508Y710D01*
D02*
X579Y636D02*
X529Y594D01*
D02*
X386Y631D02*
X410Y553D01*
D02*
X375Y718D02*
X380Y665D01*
D02*
X164Y630D02*
X188Y585D01*
D02*
X206Y555D02*
X257Y476D01*
D02*
X141Y452D02*
X96Y533D01*
D02*
X82Y431D02*
X132Y435D01*
D02*
X170Y218D02*
X212Y244D01*
D02*
X169Y195D02*
X240Y144D01*
D02*
X371Y137D02*
X365Y196D01*
D02*
X358Y230D02*
X332Y304D01*
D02*
X577Y195D02*
X508Y153D01*
D02*
X584Y225D02*
X556Y276D01*
D02*
X644Y528D02*
X486Y401D01*
D02*
X667Y422D02*
X607Y402D01*
D02*
X601Y383D02*
X648Y319D01*
D02*
X900Y572D02*
X1128Y480D01*
D02*
X1003Y724D02*
X1017Y674D01*
D02*
X1003Y658D02*
X940Y668D01*
D02*
X1256Y762D02*
X1286Y807D01*
D02*
X1231Y761D02*
X1194Y806D01*
D02*
X1469Y674D02*
X1477Y726D01*
D02*
X1486Y659D02*
X1540Y674D01*
D02*
X1574Y420D02*
X1620Y390D01*
D02*
X1573Y445D02*
X1621Y484D01*
D02*
X1485Y209D02*
X1542Y198D01*
D02*
X1470Y192D02*
X1484Y141D01*
D02*
X1257Y105D02*
X1294Y60D01*
D02*
X1232Y105D02*
X1199Y61D01*
D02*
X1019Y191D02*
X1008Y143D01*
D02*
X1003Y206D02*
X954Y194D01*
D02*
X914Y419D02*
X875Y386D01*
D02*
X913Y444D02*
X860Y477D01*
G54D14*
D02*
X831Y473D02*
X787Y424D01*
D02*
X787Y424D02*
X751Y424D01*
D02*
X751Y424D02*
X708Y427D01*
G54D16*
X1185Y85D02*
X1190Y85D01*
X1179Y84D02*
X1197Y84D01*
X1176Y83D02*
X1200Y83D01*
X1296Y83D02*
X1313Y83D01*
X1173Y82D02*
X1203Y82D01*
X1293Y82D02*
X1317Y82D01*
X1171Y81D02*
X1205Y81D01*
X1290Y81D02*
X1319Y81D01*
X1170Y80D02*
X1207Y80D01*
X1288Y80D02*
X1321Y80D01*
X1168Y79D02*
X1208Y79D01*
X1286Y79D02*
X1323Y79D01*
X1167Y78D02*
X1210Y78D01*
X1285Y78D02*
X1325Y78D01*
X1165Y77D02*
X1211Y77D01*
X1283Y77D02*
X1326Y77D01*
X1164Y76D02*
X1212Y76D01*
X1282Y76D02*
X1327Y76D01*
X1163Y75D02*
X1213Y75D01*
X1281Y75D02*
X1328Y75D01*
X1162Y74D02*
X1214Y74D01*
X1280Y74D02*
X1330Y74D01*
X1161Y73D02*
X1215Y73D01*
X1279Y73D02*
X1331Y73D01*
X1160Y72D02*
X1216Y72D01*
X1278Y72D02*
X1332Y72D01*
X1159Y71D02*
X1217Y71D01*
X1277Y71D02*
X1332Y71D01*
X1158Y70D02*
X1218Y70D01*
X1276Y70D02*
X1333Y70D01*
X1158Y69D02*
X1218Y69D01*
X1275Y69D02*
X1334Y69D01*
X1157Y68D02*
X1219Y68D01*
X1275Y68D02*
X1335Y68D01*
X1156Y67D02*
X1220Y67D01*
X1274Y67D02*
X1336Y67D01*
X1156Y66D02*
X1220Y66D01*
X1273Y66D02*
X1336Y66D01*
X1155Y65D02*
X1184Y65D01*
X1192Y65D02*
X1221Y65D01*
X1273Y65D02*
X1337Y65D01*
X1155Y64D02*
X1181Y64D01*
X1195Y64D02*
X1221Y64D01*
X1272Y64D02*
X1301Y64D01*
X1308Y64D02*
X1337Y64D01*
X1154Y63D02*
X1179Y63D01*
X1197Y63D02*
X1222Y63D01*
X1271Y63D02*
X1298Y63D01*
X1311Y63D02*
X1338Y63D01*
X1154Y62D02*
X1177Y62D01*
X1199Y62D02*
X1222Y62D01*
X1271Y62D02*
X1296Y62D01*
X1314Y62D02*
X1338Y62D01*
X1153Y61D02*
X1176Y61D01*
X1200Y61D02*
X1223Y61D01*
X1271Y61D02*
X1294Y61D01*
X1315Y61D02*
X1339Y61D01*
X1153Y60D02*
X1175Y60D01*
X1201Y60D02*
X1223Y60D01*
X1270Y60D02*
X1293Y60D01*
X1317Y60D02*
X1339Y60D01*
X1153Y59D02*
X1174Y59D01*
X1202Y59D02*
X1223Y59D01*
X1270Y59D02*
X1292Y59D01*
X1318Y59D02*
X1340Y59D01*
X1153Y58D02*
X1173Y58D01*
X1203Y58D02*
X1224Y58D01*
X1269Y58D02*
X1291Y58D01*
X1319Y58D02*
X1340Y58D01*
X1152Y57D02*
X1173Y57D01*
X1203Y57D02*
X1224Y57D01*
X1269Y57D02*
X1290Y57D01*
X1319Y57D02*
X1340Y57D01*
X1152Y56D02*
X1172Y56D01*
X1204Y56D02*
X1224Y56D01*
X1269Y56D02*
X1289Y56D01*
X1320Y56D02*
X1340Y56D01*
X1152Y55D02*
X1172Y55D01*
X1204Y55D02*
X1224Y55D01*
X1269Y55D02*
X1289Y55D01*
X1321Y55D02*
X1341Y55D01*
X1152Y54D02*
X1171Y54D01*
X1205Y54D02*
X1224Y54D01*
X1269Y54D02*
X1288Y54D01*
X1321Y54D02*
X1341Y54D01*
X1152Y53D02*
X1171Y53D01*
X1205Y53D02*
X1224Y53D01*
X1268Y53D02*
X1288Y53D01*
X1321Y53D02*
X1341Y53D01*
X1151Y52D02*
X1171Y52D01*
X1206Y52D02*
X1225Y52D01*
X1268Y52D02*
X1288Y52D01*
X1322Y52D02*
X1341Y52D01*
X1151Y51D02*
X1170Y51D01*
X1206Y51D02*
X1225Y51D01*
X1268Y51D02*
X1287Y51D01*
X1322Y51D02*
X1341Y51D01*
X1151Y50D02*
X1170Y50D01*
X1206Y50D02*
X1225Y50D01*
X1268Y50D02*
X1287Y50D01*
X1322Y50D02*
X1341Y50D01*
X1151Y49D02*
X1170Y49D01*
X1206Y49D02*
X1225Y49D01*
X1268Y49D02*
X1287Y49D01*
X1323Y49D02*
X1341Y49D01*
X1151Y48D02*
X1170Y48D01*
X1206Y48D02*
X1225Y48D01*
X1268Y48D02*
X1287Y48D01*
X1323Y48D02*
X1341Y48D01*
X1151Y47D02*
X1170Y47D01*
X1206Y47D02*
X1225Y47D01*
X1268Y47D02*
X1287Y47D01*
X1323Y47D02*
X1341Y47D01*
X1151Y46D02*
X1170Y46D01*
X1206Y46D02*
X1225Y46D01*
X1268Y46D02*
X1287Y46D01*
X1323Y46D02*
X1341Y46D01*
X1151Y45D02*
X1170Y45D01*
X1206Y45D02*
X1225Y45D01*
X1268Y45D02*
X1287Y45D01*
X1323Y45D02*
X1341Y45D01*
X1151Y44D02*
X1170Y44D01*
X1206Y44D02*
X1225Y44D01*
X1268Y44D02*
X1287Y44D01*
X1323Y44D02*
X1341Y44D01*
X1152Y43D02*
X1171Y43D01*
X1205Y43D02*
X1225Y43D01*
X1268Y43D02*
X1287Y43D01*
X1322Y43D02*
X1341Y43D01*
X1152Y42D02*
X1171Y42D01*
X1205Y42D02*
X1224Y42D01*
X1268Y42D02*
X1287Y42D01*
X1322Y42D02*
X1341Y42D01*
X1152Y41D02*
X1171Y41D01*
X1205Y41D02*
X1224Y41D01*
X1268Y41D02*
X1288Y41D01*
X1322Y41D02*
X1341Y41D01*
X1152Y40D02*
X1172Y40D01*
X1204Y40D02*
X1224Y40D01*
X1268Y40D02*
X1288Y40D01*
X1321Y40D02*
X1341Y40D01*
X1152Y39D02*
X1172Y39D01*
X1204Y39D02*
X1224Y39D01*
X1269Y39D02*
X1289Y39D01*
X1321Y39D02*
X1341Y39D01*
X1152Y38D02*
X1173Y38D01*
X1203Y38D02*
X1224Y38D01*
X1269Y38D02*
X1289Y38D01*
X1320Y38D02*
X1341Y38D01*
X1153Y37D02*
X1174Y37D01*
X1202Y37D02*
X1223Y37D01*
X1269Y37D02*
X1290Y37D01*
X1320Y37D02*
X1340Y37D01*
X1153Y36D02*
X1174Y36D01*
X1202Y36D02*
X1223Y36D01*
X1269Y36D02*
X1290Y36D01*
X1319Y36D02*
X1340Y36D01*
X1153Y35D02*
X1175Y35D01*
X1201Y35D02*
X1223Y35D01*
X1270Y35D02*
X1291Y35D01*
X1318Y35D02*
X1340Y35D01*
X1154Y34D02*
X1177Y34D01*
X1199Y34D02*
X1222Y34D01*
X1270Y34D02*
X1292Y34D01*
X1317Y34D02*
X1339Y34D01*
X1154Y33D02*
X1178Y33D01*
X1198Y33D02*
X1222Y33D01*
X1270Y33D02*
X1293Y33D01*
X1316Y33D02*
X1339Y33D01*
X1155Y32D02*
X1180Y32D01*
X1196Y32D02*
X1221Y32D01*
X1271Y32D02*
X1295Y32D01*
X1315Y32D02*
X1339Y32D01*
X1155Y31D02*
X1183Y31D01*
X1193Y31D02*
X1221Y31D01*
X1271Y31D02*
X1297Y31D01*
X1313Y31D02*
X1338Y31D01*
X1156Y30D02*
X1220Y30D01*
X1272Y30D02*
X1299Y30D01*
X1310Y30D02*
X1338Y30D01*
X1156Y29D02*
X1220Y29D01*
X1272Y29D02*
X1337Y29D01*
X1157Y28D02*
X1219Y28D01*
X1273Y28D02*
X1337Y28D01*
X1158Y27D02*
X1219Y27D01*
X1273Y27D02*
X1336Y27D01*
X1158Y26D02*
X1218Y26D01*
X1274Y26D02*
X1335Y26D01*
X1159Y25D02*
X1217Y25D01*
X1275Y25D02*
X1335Y25D01*
X1160Y24D02*
X1216Y24D01*
X1276Y24D02*
X1334Y24D01*
X1161Y23D02*
X1215Y23D01*
X1276Y23D02*
X1333Y23D01*
X1162Y22D02*
X1214Y22D01*
X1277Y22D02*
X1332Y22D01*
X1163Y21D02*
X1213Y21D01*
X1278Y21D02*
X1331Y21D01*
X1164Y20D02*
X1212Y20D01*
X1279Y20D02*
X1330Y20D01*
X1165Y19D02*
X1211Y19D01*
X1280Y19D02*
X1329Y19D01*
X1166Y18D02*
X1210Y18D01*
X1281Y18D02*
X1328Y18D01*
X1167Y17D02*
X1209Y17D01*
X1283Y17D02*
X1327Y17D01*
X1169Y16D02*
X1207Y16D01*
X1284Y16D02*
X1325Y16D01*
X1171Y15D02*
X1205Y15D01*
X1285Y15D02*
X1324Y15D01*
X1173Y14D02*
X1203Y14D01*
X1287Y14D02*
X1322Y14D01*
X1175Y13D02*
X1201Y13D01*
X1289Y13D02*
X1320Y13D01*
X1178Y12D02*
X1198Y12D01*
X1291Y12D02*
X1318Y12D01*
X1183Y11D02*
X1193Y11D01*
X1294Y11D02*
X1315Y11D01*
X1298Y10D02*
X1311Y10D01*
D02*
G04 End of Copper0*
M02*