G04 MADE WITH FRITZING*
G04 WWW.FRITZING.ORG*
G04 DOUBLE SIDED*
G04 HOLES PLATED*
G04 CONTOUR ON CENTER OF CONTOUR VECTOR*
%ASAXBY*%
%FSLAX23Y23*%
%MOIN*%
%OFA0B0*%
%SFA1.0B1.0*%
%ADD10C,0.093307*%
%ADD11C,0.088000*%
%ADD12C,0.096614*%
%ADD13C,0.049370*%
%ADD14C,0.092000*%
%ADD15C,0.080000*%
%ADD16C,0.077559*%
%ADD17R,0.088000X0.088000*%
%ADD18R,0.092000X0.092000*%
%ADD19R,0.079972X0.080000*%
%LNMASK0*%
G90*
G70*
G54D10*
X71Y94D03*
X71Y194D03*
X71Y294D03*
X71Y394D03*
X71Y494D03*
X71Y594D03*
X71Y694D03*
X71Y794D03*
X71Y894D03*
X71Y994D03*
X71Y1094D03*
X71Y1194D03*
X71Y1294D03*
X71Y1394D03*
X71Y1494D03*
X71Y1594D03*
X71Y1694D03*
G54D11*
X935Y108D03*
X935Y208D03*
X935Y308D03*
X935Y408D03*
X935Y508D03*
X935Y608D03*
X935Y708D03*
X935Y808D03*
X935Y908D03*
X935Y1008D03*
X935Y1108D03*
X935Y1208D03*
X935Y1308D03*
X935Y1408D03*
X935Y1508D03*
X935Y1608D03*
X935Y1708D03*
X935Y1808D03*
G54D12*
X304Y1180D03*
X610Y1186D03*
X662Y985D03*
X213Y1823D03*
X798Y1823D03*
G54D11*
X354Y101D03*
X669Y101D03*
X354Y809D03*
X511Y810D03*
G54D13*
X539Y81D03*
G54D14*
X623Y1428D03*
X623Y1726D03*
G54D15*
X807Y170D03*
X807Y270D03*
X807Y370D03*
X807Y470D03*
X807Y570D03*
X807Y670D03*
X807Y770D03*
X807Y870D03*
X807Y970D03*
X807Y1070D03*
X807Y1170D03*
X807Y1270D03*
X807Y1370D03*
X807Y1470D03*
X807Y1570D03*
X207Y170D03*
X207Y270D03*
X207Y370D03*
X207Y470D03*
X207Y570D03*
X207Y670D03*
X207Y770D03*
X207Y870D03*
X207Y970D03*
X207Y1070D03*
X207Y1170D03*
X207Y1270D03*
X207Y1370D03*
X207Y1470D03*
X207Y1570D03*
G54D16*
X441Y1817D03*
X441Y1739D03*
X441Y1660D03*
X441Y1581D03*
X441Y1502D03*
X441Y1424D03*
X441Y1345D03*
X441Y1266D03*
X441Y1187D03*
X441Y1109D03*
X441Y1030D03*
X441Y951D03*
X441Y1817D03*
X441Y1739D03*
X441Y1660D03*
X441Y1581D03*
X441Y1502D03*
X441Y1424D03*
X441Y1345D03*
X441Y1266D03*
X441Y1187D03*
X441Y1109D03*
X441Y1030D03*
X441Y951D03*
G54D11*
X562Y1823D03*
X662Y1823D03*
G54D13*
X480Y582D03*
G54D17*
X354Y101D03*
G54D18*
X623Y1427D03*
G54D19*
X807Y170D03*
G04 End of Mask0*
M02*