G04 MADE WITH FRITZING*
G04 WWW.FRITZING.ORG*
G04 DOUBLE SIDED*
G04 HOLES PLATED*
G04 CONTOUR ON CENTER OF CONTOUR VECTOR*
%ASAXBY*%
%FSLAX23Y23*%
%MOIN*%
%OFA0B0*%
%SFA1.0B1.0*%
%ADD10C,0.075000*%
%ADD11C,0.083307*%
%ADD12C,0.078000*%
%ADD13C,0.039370*%
%ADD14C,0.082000*%
%ADD15C,0.070000*%
%ADD16C,0.067559*%
%ADD17R,0.078000X0.078000*%
%ADD18R,0.082000X0.082000*%
%ADD19R,0.069972X0.070000*%
%ADD20C,0.024000*%
%ADD21C,0.000100*%
%LNCOPPER1*%
G90*
G70*
G54D10*
X105Y1818D03*
X547Y1599D03*
X724Y1212D03*
X797Y1686D03*
G54D11*
X71Y94D03*
X71Y194D03*
X71Y294D03*
X71Y394D03*
X71Y494D03*
X71Y594D03*
X71Y694D03*
X71Y794D03*
X71Y894D03*
X71Y994D03*
X71Y1094D03*
X71Y1194D03*
X71Y1294D03*
X71Y1394D03*
X71Y1494D03*
X71Y1594D03*
X71Y1694D03*
G54D12*
X935Y108D03*
X935Y208D03*
X935Y308D03*
X935Y408D03*
X935Y508D03*
X935Y608D03*
X935Y708D03*
X935Y808D03*
X935Y908D03*
X935Y1008D03*
X935Y1108D03*
X935Y1208D03*
X935Y1308D03*
X935Y1408D03*
X935Y1508D03*
X935Y1608D03*
X935Y1708D03*
X935Y1808D03*
X354Y101D03*
X669Y101D03*
X354Y809D03*
X511Y810D03*
G54D13*
X539Y81D03*
G54D14*
X623Y1428D03*
X623Y1726D03*
G54D15*
X807Y170D03*
X807Y270D03*
X807Y370D03*
X807Y470D03*
X807Y570D03*
X807Y670D03*
X807Y770D03*
X807Y870D03*
X807Y970D03*
X807Y1070D03*
X807Y1170D03*
X807Y1270D03*
X807Y1370D03*
X807Y1470D03*
X807Y1570D03*
X207Y170D03*
X207Y270D03*
X207Y370D03*
X207Y470D03*
X207Y570D03*
X207Y670D03*
X207Y770D03*
X207Y870D03*
X207Y970D03*
X207Y1070D03*
X207Y1170D03*
X207Y1270D03*
X207Y1370D03*
X207Y1470D03*
X207Y1570D03*
G54D16*
X441Y1817D03*
X441Y1739D03*
X441Y1660D03*
X441Y1581D03*
X441Y1502D03*
X441Y1424D03*
X441Y1345D03*
X441Y1266D03*
X441Y1187D03*
X441Y1109D03*
X441Y1030D03*
X441Y951D03*
X441Y1817D03*
X441Y1739D03*
X441Y1660D03*
X441Y1581D03*
X441Y1502D03*
X441Y1424D03*
X441Y1345D03*
X441Y1266D03*
X441Y1187D03*
X441Y1109D03*
X441Y1030D03*
X441Y951D03*
G54D12*
X562Y1823D03*
X662Y1823D03*
G54D13*
X480Y582D03*
G54D17*
X354Y101D03*
G54D18*
X623Y1427D03*
G54D19*
X807Y170D03*
G54D20*
X143Y309D02*
X143Y387D01*
D02*
X143Y387D02*
X92Y392D01*
D02*
X92Y1193D02*
X143Y1192D01*
D02*
X143Y1536D02*
X143Y1394D01*
D02*
X87Y1581D02*
X143Y1536D01*
D02*
X143Y1394D02*
X92Y1394D01*
D02*
X192Y279D02*
X143Y309D01*
D02*
X247Y95D02*
X92Y94D01*
D02*
X292Y199D02*
X247Y95D01*
D02*
X292Y406D02*
X292Y199D01*
D02*
X221Y459D02*
X292Y406D01*
D02*
X143Y594D02*
X143Y789D01*
D02*
X143Y789D02*
X92Y793D01*
D02*
X143Y789D02*
X143Y991D01*
D02*
X92Y793D02*
X143Y789D01*
D02*
X143Y991D02*
X92Y993D01*
D02*
X143Y1186D02*
X92Y1192D01*
D02*
X92Y993D02*
X143Y991D01*
D02*
X143Y991D02*
X143Y1186D01*
D02*
X143Y1192D02*
X143Y1394D01*
D02*
X143Y1394D02*
X92Y1394D01*
D02*
X870Y1310D02*
X864Y1504D01*
D02*
X916Y1309D02*
X870Y1310D01*
D02*
X864Y1504D02*
X916Y1507D01*
D02*
X922Y1694D02*
X863Y1635D01*
D02*
X863Y1635D02*
X864Y1504D01*
D02*
X143Y387D02*
X143Y594D01*
D02*
X92Y392D02*
X143Y387D01*
D02*
X143Y594D02*
X92Y594D01*
D02*
X92Y594D02*
X143Y594D01*
D02*
X793Y1581D02*
X639Y1712D01*
D02*
X870Y711D02*
X870Y907D01*
D02*
X916Y709D02*
X870Y711D01*
D02*
X870Y907D02*
X916Y908D01*
D02*
X870Y907D02*
X870Y1108D01*
D02*
X916Y908D02*
X870Y907D01*
D02*
X870Y1108D02*
X916Y1108D01*
D02*
X870Y1108D02*
X870Y1310D01*
D02*
X916Y1108D02*
X870Y1108D01*
D02*
X870Y1310D02*
X916Y1309D01*
D02*
X864Y1504D02*
X916Y1507D01*
D02*
X870Y133D02*
X870Y302D01*
D02*
X917Y115D02*
X870Y133D01*
D02*
X870Y302D02*
X916Y306D01*
D02*
X870Y302D02*
X870Y510D01*
D02*
X916Y306D02*
X870Y302D01*
D02*
X870Y510D02*
X916Y509D01*
D02*
X870Y510D02*
X870Y711D01*
D02*
X916Y509D02*
X870Y510D01*
D02*
X870Y711D02*
X916Y709D01*
D02*
X272Y1056D02*
X272Y732D01*
D02*
X299Y1369D02*
X430Y1274D01*
D02*
X225Y1569D02*
X298Y1568D01*
D02*
X298Y1568D02*
X299Y1369D01*
D02*
X602Y1427D02*
X455Y1424D01*
D02*
X272Y732D02*
X790Y575D01*
D02*
X430Y1179D02*
X272Y1056D01*
D02*
X694Y1276D02*
X793Y1358D01*
D02*
X571Y1276D02*
X694Y1276D01*
D02*
X694Y1342D02*
X455Y1345D01*
D02*
X795Y1456D02*
X694Y1342D01*
D02*
X452Y1195D02*
X571Y1276D01*
D02*
X441Y1516D02*
X441Y1567D01*
D02*
X792Y379D02*
X487Y577D01*
D02*
X753Y1707D02*
X916Y1708D01*
D02*
X674Y1808D02*
X753Y1707D01*
G54D21*
G36*
X40Y1866D02*
X40Y1770D01*
X204Y1770D01*
X204Y1772D01*
X196Y1772D01*
X196Y1774D01*
X192Y1774D01*
X192Y1776D01*
X188Y1776D01*
X188Y1778D01*
X184Y1778D01*
X184Y1780D01*
X182Y1780D01*
X182Y1782D01*
X180Y1782D01*
X180Y1784D01*
X176Y1784D01*
X176Y1786D01*
X174Y1786D01*
X174Y1790D01*
X172Y1790D01*
X172Y1792D01*
X170Y1792D01*
X170Y1794D01*
X168Y1794D01*
X168Y1798D01*
X166Y1798D01*
X166Y1802D01*
X164Y1802D01*
X164Y1806D01*
X162Y1806D01*
X162Y1814D01*
X160Y1814D01*
X160Y1832D01*
X162Y1832D01*
X162Y1840D01*
X164Y1840D01*
X164Y1844D01*
X166Y1844D01*
X166Y1866D01*
X40Y1866D01*
G37*
D02*
G36*
X260Y1866D02*
X260Y1846D01*
X262Y1846D01*
X262Y1842D01*
X264Y1842D01*
X264Y1836D01*
X266Y1836D01*
X266Y1810D01*
X264Y1810D01*
X264Y1804D01*
X262Y1804D01*
X262Y1800D01*
X260Y1800D01*
X260Y1796D01*
X258Y1796D01*
X258Y1792D01*
X256Y1792D01*
X256Y1790D01*
X254Y1790D01*
X254Y1788D01*
X252Y1788D01*
X252Y1786D01*
X250Y1786D01*
X250Y1784D01*
X248Y1784D01*
X248Y1782D01*
X246Y1782D01*
X246Y1780D01*
X242Y1780D01*
X242Y1778D01*
X240Y1778D01*
X240Y1776D01*
X236Y1776D01*
X236Y1774D01*
X230Y1774D01*
X230Y1772D01*
X224Y1772D01*
X224Y1770D01*
X410Y1770D01*
X410Y1788D01*
X408Y1788D01*
X408Y1790D01*
X406Y1790D01*
X406Y1792D01*
X404Y1792D01*
X404Y1796D01*
X402Y1796D01*
X402Y1800D01*
X400Y1800D01*
X400Y1806D01*
X398Y1806D01*
X398Y1830D01*
X400Y1830D01*
X400Y1836D01*
X402Y1836D01*
X402Y1838D01*
X404Y1838D01*
X404Y1842D01*
X406Y1842D01*
X406Y1844D01*
X408Y1844D01*
X408Y1866D01*
X260Y1866D01*
G37*
D02*
G36*
X40Y1770D02*
X40Y1768D01*
X410Y1768D01*
X410Y1770D01*
X40Y1770D01*
G37*
D02*
G36*
X40Y1770D02*
X40Y1768D01*
X410Y1768D01*
X410Y1770D01*
X40Y1770D01*
G37*
D02*
G36*
X40Y1768D02*
X40Y1746D01*
X80Y1746D01*
X80Y1744D01*
X88Y1744D01*
X88Y1742D01*
X92Y1742D01*
X92Y1740D01*
X96Y1740D01*
X96Y1738D01*
X100Y1738D01*
X100Y1736D01*
X102Y1736D01*
X102Y1734D01*
X104Y1734D01*
X104Y1732D01*
X106Y1732D01*
X106Y1730D01*
X108Y1730D01*
X108Y1728D01*
X110Y1728D01*
X110Y1726D01*
X112Y1726D01*
X112Y1724D01*
X114Y1724D01*
X114Y1720D01*
X116Y1720D01*
X116Y1716D01*
X118Y1716D01*
X118Y1712D01*
X120Y1712D01*
X120Y1704D01*
X122Y1704D01*
X122Y1684D01*
X120Y1684D01*
X120Y1676D01*
X118Y1676D01*
X118Y1672D01*
X116Y1672D01*
X116Y1668D01*
X114Y1668D01*
X114Y1666D01*
X112Y1666D01*
X112Y1662D01*
X110Y1662D01*
X110Y1660D01*
X108Y1660D01*
X108Y1658D01*
X106Y1658D01*
X106Y1656D01*
X104Y1656D01*
X104Y1654D01*
X102Y1654D01*
X102Y1634D01*
X104Y1634D01*
X104Y1632D01*
X106Y1632D01*
X106Y1630D01*
X108Y1630D01*
X108Y1628D01*
X110Y1628D01*
X110Y1626D01*
X112Y1626D01*
X112Y1624D01*
X114Y1624D01*
X114Y1620D01*
X116Y1620D01*
X116Y1616D01*
X118Y1616D01*
X118Y1614D01*
X218Y1614D01*
X218Y1612D01*
X224Y1612D01*
X224Y1610D01*
X228Y1610D01*
X228Y1608D01*
X232Y1608D01*
X232Y1606D01*
X234Y1606D01*
X234Y1604D01*
X238Y1604D01*
X238Y1602D01*
X240Y1602D01*
X240Y1598D01*
X242Y1598D01*
X242Y1596D01*
X244Y1596D01*
X244Y1594D01*
X246Y1594D01*
X246Y1592D01*
X260Y1592D01*
X260Y1590D01*
X306Y1590D01*
X306Y1588D01*
X310Y1588D01*
X310Y1586D01*
X312Y1586D01*
X312Y1584D01*
X314Y1584D01*
X314Y1582D01*
X316Y1582D01*
X316Y1580D01*
X318Y1580D01*
X318Y1576D01*
X320Y1576D01*
X320Y1422D01*
X322Y1422D01*
X322Y1378D01*
X326Y1378D01*
X326Y1376D01*
X328Y1376D01*
X328Y1374D01*
X332Y1374D01*
X332Y1372D01*
X334Y1372D01*
X334Y1370D01*
X336Y1370D01*
X336Y1368D01*
X340Y1368D01*
X340Y1366D01*
X342Y1366D01*
X342Y1364D01*
X346Y1364D01*
X346Y1362D01*
X348Y1362D01*
X348Y1360D01*
X350Y1360D01*
X350Y1358D01*
X354Y1358D01*
X354Y1356D01*
X356Y1356D01*
X356Y1354D01*
X358Y1354D01*
X358Y1352D01*
X362Y1352D01*
X362Y1350D01*
X364Y1350D01*
X364Y1348D01*
X368Y1348D01*
X368Y1346D01*
X370Y1346D01*
X370Y1344D01*
X372Y1344D01*
X372Y1342D01*
X376Y1342D01*
X376Y1340D01*
X378Y1340D01*
X378Y1338D01*
X398Y1338D01*
X398Y1356D01*
X400Y1356D01*
X400Y1362D01*
X402Y1362D01*
X402Y1366D01*
X404Y1366D01*
X404Y1370D01*
X406Y1370D01*
X406Y1372D01*
X408Y1372D01*
X408Y1374D01*
X410Y1374D01*
X410Y1394D01*
X408Y1394D01*
X408Y1396D01*
X406Y1396D01*
X406Y1400D01*
X404Y1400D01*
X404Y1402D01*
X402Y1402D01*
X402Y1406D01*
X400Y1406D01*
X400Y1412D01*
X398Y1412D01*
X398Y1436D01*
X400Y1436D01*
X400Y1442D01*
X402Y1442D01*
X402Y1446D01*
X404Y1446D01*
X404Y1448D01*
X406Y1448D01*
X406Y1452D01*
X408Y1452D01*
X408Y1476D01*
X406Y1476D01*
X406Y1478D01*
X404Y1478D01*
X404Y1482D01*
X402Y1482D01*
X402Y1484D01*
X400Y1484D01*
X400Y1492D01*
X398Y1492D01*
X398Y1514D01*
X400Y1514D01*
X400Y1520D01*
X402Y1520D01*
X402Y1524D01*
X404Y1524D01*
X404Y1528D01*
X406Y1528D01*
X406Y1530D01*
X408Y1530D01*
X408Y1532D01*
X410Y1532D01*
X410Y1552D01*
X408Y1552D01*
X408Y1554D01*
X406Y1554D01*
X406Y1556D01*
X404Y1556D01*
X404Y1560D01*
X402Y1560D01*
X402Y1564D01*
X400Y1564D01*
X400Y1570D01*
X398Y1570D01*
X398Y1592D01*
X400Y1592D01*
X400Y1598D01*
X402Y1598D01*
X402Y1602D01*
X404Y1602D01*
X404Y1606D01*
X406Y1606D01*
X406Y1608D01*
X408Y1608D01*
X408Y1632D01*
X406Y1632D01*
X406Y1636D01*
X404Y1636D01*
X404Y1638D01*
X402Y1638D01*
X402Y1642D01*
X400Y1642D01*
X400Y1648D01*
X398Y1648D01*
X398Y1672D01*
X400Y1672D01*
X400Y1678D01*
X402Y1678D01*
X402Y1682D01*
X404Y1682D01*
X404Y1684D01*
X406Y1684D01*
X406Y1688D01*
X408Y1688D01*
X408Y1690D01*
X410Y1690D01*
X410Y1710D01*
X408Y1710D01*
X408Y1712D01*
X406Y1712D01*
X406Y1714D01*
X404Y1714D01*
X404Y1718D01*
X402Y1718D01*
X402Y1722D01*
X400Y1722D01*
X400Y1728D01*
X398Y1728D01*
X398Y1750D01*
X400Y1750D01*
X400Y1756D01*
X402Y1756D01*
X402Y1760D01*
X404Y1760D01*
X404Y1764D01*
X406Y1764D01*
X406Y1766D01*
X408Y1766D01*
X408Y1768D01*
X40Y1768D01*
G37*
D02*
G36*
X40Y1746D02*
X40Y1744D01*
X62Y1744D01*
X62Y1746D01*
X40Y1746D01*
G37*
D02*
G36*
X118Y1614D02*
X118Y1612D01*
X120Y1612D01*
X120Y1604D01*
X122Y1604D01*
X122Y1584D01*
X120Y1584D01*
X120Y1576D01*
X118Y1576D01*
X118Y1572D01*
X116Y1572D01*
X116Y1568D01*
X114Y1568D01*
X114Y1566D01*
X112Y1566D01*
X112Y1562D01*
X110Y1562D01*
X110Y1560D01*
X108Y1560D01*
X108Y1558D01*
X106Y1558D01*
X106Y1556D01*
X104Y1556D01*
X104Y1554D01*
X102Y1554D01*
X102Y1534D01*
X104Y1534D01*
X104Y1532D01*
X106Y1532D01*
X106Y1530D01*
X108Y1530D01*
X108Y1528D01*
X110Y1528D01*
X110Y1526D01*
X112Y1526D01*
X112Y1524D01*
X114Y1524D01*
X114Y1520D01*
X116Y1520D01*
X116Y1516D01*
X118Y1516D01*
X118Y1512D01*
X120Y1512D01*
X120Y1504D01*
X122Y1504D01*
X122Y1484D01*
X120Y1484D01*
X120Y1476D01*
X118Y1476D01*
X118Y1472D01*
X116Y1472D01*
X116Y1468D01*
X114Y1468D01*
X114Y1466D01*
X112Y1466D01*
X112Y1462D01*
X110Y1462D01*
X110Y1460D01*
X108Y1460D01*
X108Y1458D01*
X106Y1458D01*
X106Y1456D01*
X104Y1456D01*
X104Y1454D01*
X102Y1454D01*
X102Y1434D01*
X104Y1434D01*
X104Y1432D01*
X106Y1432D01*
X106Y1430D01*
X108Y1430D01*
X108Y1428D01*
X110Y1428D01*
X110Y1426D01*
X112Y1426D01*
X112Y1424D01*
X114Y1424D01*
X114Y1420D01*
X116Y1420D01*
X116Y1416D01*
X118Y1416D01*
X118Y1412D01*
X120Y1412D01*
X120Y1404D01*
X122Y1404D01*
X122Y1384D01*
X120Y1384D01*
X120Y1376D01*
X118Y1376D01*
X118Y1372D01*
X116Y1372D01*
X116Y1368D01*
X114Y1368D01*
X114Y1366D01*
X112Y1366D01*
X112Y1362D01*
X110Y1362D01*
X110Y1360D01*
X108Y1360D01*
X108Y1358D01*
X106Y1358D01*
X106Y1356D01*
X104Y1356D01*
X104Y1354D01*
X102Y1354D01*
X102Y1334D01*
X104Y1334D01*
X104Y1332D01*
X106Y1332D01*
X106Y1330D01*
X108Y1330D01*
X108Y1328D01*
X110Y1328D01*
X110Y1326D01*
X112Y1326D01*
X112Y1324D01*
X114Y1324D01*
X114Y1320D01*
X116Y1320D01*
X116Y1316D01*
X118Y1316D01*
X118Y1312D01*
X120Y1312D01*
X120Y1304D01*
X122Y1304D01*
X122Y1284D01*
X120Y1284D01*
X120Y1276D01*
X118Y1276D01*
X118Y1272D01*
X116Y1272D01*
X116Y1268D01*
X114Y1268D01*
X114Y1266D01*
X112Y1266D01*
X112Y1262D01*
X110Y1262D01*
X110Y1260D01*
X108Y1260D01*
X108Y1258D01*
X106Y1258D01*
X106Y1256D01*
X104Y1256D01*
X104Y1254D01*
X102Y1254D01*
X102Y1234D01*
X104Y1234D01*
X104Y1232D01*
X106Y1232D01*
X106Y1230D01*
X108Y1230D01*
X108Y1228D01*
X110Y1228D01*
X110Y1226D01*
X112Y1226D01*
X112Y1224D01*
X114Y1224D01*
X114Y1220D01*
X116Y1220D01*
X116Y1216D01*
X118Y1216D01*
X118Y1212D01*
X120Y1212D01*
X120Y1204D01*
X122Y1204D01*
X122Y1184D01*
X120Y1184D01*
X120Y1176D01*
X118Y1176D01*
X118Y1172D01*
X116Y1172D01*
X116Y1168D01*
X114Y1168D01*
X114Y1166D01*
X112Y1166D01*
X112Y1162D01*
X110Y1162D01*
X110Y1160D01*
X108Y1160D01*
X108Y1158D01*
X106Y1158D01*
X106Y1156D01*
X104Y1156D01*
X104Y1154D01*
X102Y1154D01*
X102Y1134D01*
X104Y1134D01*
X104Y1132D01*
X106Y1132D01*
X106Y1130D01*
X108Y1130D01*
X108Y1128D01*
X110Y1128D01*
X110Y1126D01*
X112Y1126D01*
X112Y1124D01*
X114Y1124D01*
X114Y1120D01*
X116Y1120D01*
X116Y1116D01*
X118Y1116D01*
X118Y1112D01*
X120Y1112D01*
X120Y1104D01*
X122Y1104D01*
X122Y1084D01*
X120Y1084D01*
X120Y1076D01*
X118Y1076D01*
X118Y1072D01*
X116Y1072D01*
X116Y1068D01*
X114Y1068D01*
X114Y1066D01*
X112Y1066D01*
X112Y1062D01*
X110Y1062D01*
X110Y1060D01*
X108Y1060D01*
X108Y1058D01*
X106Y1058D01*
X106Y1056D01*
X104Y1056D01*
X104Y1054D01*
X102Y1054D01*
X102Y1034D01*
X104Y1034D01*
X104Y1032D01*
X106Y1032D01*
X106Y1030D01*
X108Y1030D01*
X108Y1028D01*
X110Y1028D01*
X110Y1026D01*
X112Y1026D01*
X112Y1024D01*
X114Y1024D01*
X114Y1020D01*
X116Y1020D01*
X116Y1016D01*
X118Y1016D01*
X118Y1012D01*
X120Y1012D01*
X120Y1004D01*
X122Y1004D01*
X122Y984D01*
X120Y984D01*
X120Y976D01*
X118Y976D01*
X118Y972D01*
X116Y972D01*
X116Y968D01*
X114Y968D01*
X114Y966D01*
X112Y966D01*
X112Y962D01*
X110Y962D01*
X110Y960D01*
X108Y960D01*
X108Y958D01*
X106Y958D01*
X106Y956D01*
X104Y956D01*
X104Y954D01*
X102Y954D01*
X102Y934D01*
X104Y934D01*
X104Y932D01*
X106Y932D01*
X106Y930D01*
X108Y930D01*
X108Y928D01*
X110Y928D01*
X110Y926D01*
X112Y926D01*
X112Y924D01*
X114Y924D01*
X114Y920D01*
X116Y920D01*
X116Y916D01*
X118Y916D01*
X118Y912D01*
X120Y912D01*
X120Y904D01*
X122Y904D01*
X122Y884D01*
X120Y884D01*
X120Y876D01*
X118Y876D01*
X118Y872D01*
X116Y872D01*
X116Y868D01*
X114Y868D01*
X114Y866D01*
X112Y866D01*
X112Y862D01*
X110Y862D01*
X110Y860D01*
X108Y860D01*
X108Y858D01*
X106Y858D01*
X106Y856D01*
X104Y856D01*
X104Y854D01*
X102Y854D01*
X102Y834D01*
X104Y834D01*
X104Y832D01*
X106Y832D01*
X106Y830D01*
X108Y830D01*
X108Y828D01*
X110Y828D01*
X110Y826D01*
X112Y826D01*
X112Y824D01*
X114Y824D01*
X114Y820D01*
X116Y820D01*
X116Y816D01*
X118Y816D01*
X118Y812D01*
X120Y812D01*
X120Y804D01*
X122Y804D01*
X122Y784D01*
X120Y784D01*
X120Y776D01*
X118Y776D01*
X118Y772D01*
X116Y772D01*
X116Y768D01*
X114Y768D01*
X114Y766D01*
X112Y766D01*
X112Y762D01*
X110Y762D01*
X110Y760D01*
X108Y760D01*
X108Y758D01*
X106Y758D01*
X106Y756D01*
X104Y756D01*
X104Y754D01*
X102Y754D01*
X102Y734D01*
X104Y734D01*
X104Y732D01*
X106Y732D01*
X106Y730D01*
X108Y730D01*
X108Y728D01*
X110Y728D01*
X110Y726D01*
X112Y726D01*
X112Y724D01*
X114Y724D01*
X114Y720D01*
X116Y720D01*
X116Y716D01*
X118Y716D01*
X118Y712D01*
X120Y712D01*
X120Y704D01*
X122Y704D01*
X122Y684D01*
X120Y684D01*
X120Y676D01*
X118Y676D01*
X118Y672D01*
X116Y672D01*
X116Y668D01*
X114Y668D01*
X114Y666D01*
X112Y666D01*
X112Y662D01*
X110Y662D01*
X110Y660D01*
X108Y660D01*
X108Y658D01*
X106Y658D01*
X106Y656D01*
X104Y656D01*
X104Y654D01*
X102Y654D01*
X102Y634D01*
X104Y634D01*
X104Y632D01*
X106Y632D01*
X106Y630D01*
X108Y630D01*
X108Y628D01*
X110Y628D01*
X110Y626D01*
X112Y626D01*
X112Y624D01*
X114Y624D01*
X114Y620D01*
X116Y620D01*
X116Y616D01*
X118Y616D01*
X118Y612D01*
X120Y612D01*
X120Y604D01*
X122Y604D01*
X122Y584D01*
X120Y584D01*
X120Y576D01*
X118Y576D01*
X118Y572D01*
X116Y572D01*
X116Y568D01*
X114Y568D01*
X114Y566D01*
X112Y566D01*
X112Y562D01*
X110Y562D01*
X110Y560D01*
X108Y560D01*
X108Y558D01*
X106Y558D01*
X106Y556D01*
X104Y556D01*
X104Y554D01*
X102Y554D01*
X102Y534D01*
X104Y534D01*
X104Y532D01*
X106Y532D01*
X106Y530D01*
X108Y530D01*
X108Y528D01*
X110Y528D01*
X110Y526D01*
X112Y526D01*
X112Y524D01*
X114Y524D01*
X114Y520D01*
X116Y520D01*
X116Y516D01*
X118Y516D01*
X118Y512D01*
X120Y512D01*
X120Y504D01*
X122Y504D01*
X122Y484D01*
X120Y484D01*
X120Y476D01*
X118Y476D01*
X118Y472D01*
X116Y472D01*
X116Y468D01*
X114Y468D01*
X114Y466D01*
X112Y466D01*
X112Y462D01*
X110Y462D01*
X110Y460D01*
X108Y460D01*
X108Y458D01*
X106Y458D01*
X106Y456D01*
X104Y456D01*
X104Y454D01*
X102Y454D01*
X102Y434D01*
X104Y434D01*
X104Y432D01*
X106Y432D01*
X106Y430D01*
X108Y430D01*
X108Y428D01*
X110Y428D01*
X110Y426D01*
X112Y426D01*
X112Y424D01*
X114Y424D01*
X114Y420D01*
X116Y420D01*
X116Y416D01*
X118Y416D01*
X118Y412D01*
X120Y412D01*
X120Y404D01*
X122Y404D01*
X122Y384D01*
X120Y384D01*
X120Y376D01*
X118Y376D01*
X118Y372D01*
X116Y372D01*
X116Y368D01*
X114Y368D01*
X114Y366D01*
X112Y366D01*
X112Y362D01*
X110Y362D01*
X110Y360D01*
X108Y360D01*
X108Y358D01*
X106Y358D01*
X106Y356D01*
X104Y356D01*
X104Y354D01*
X102Y354D01*
X102Y334D01*
X104Y334D01*
X104Y332D01*
X106Y332D01*
X106Y330D01*
X108Y330D01*
X108Y328D01*
X110Y328D01*
X110Y326D01*
X112Y326D01*
X112Y324D01*
X114Y324D01*
X114Y320D01*
X116Y320D01*
X116Y316D01*
X118Y316D01*
X118Y312D01*
X120Y312D01*
X120Y304D01*
X122Y304D01*
X122Y284D01*
X120Y284D01*
X120Y276D01*
X118Y276D01*
X118Y272D01*
X116Y272D01*
X116Y268D01*
X114Y268D01*
X114Y266D01*
X112Y266D01*
X112Y262D01*
X110Y262D01*
X110Y260D01*
X108Y260D01*
X108Y258D01*
X106Y258D01*
X106Y256D01*
X104Y256D01*
X104Y254D01*
X102Y254D01*
X102Y234D01*
X104Y234D01*
X104Y232D01*
X106Y232D01*
X106Y230D01*
X108Y230D01*
X108Y228D01*
X110Y228D01*
X110Y226D01*
X112Y226D01*
X112Y224D01*
X114Y224D01*
X114Y220D01*
X116Y220D01*
X116Y216D01*
X118Y216D01*
X118Y212D01*
X120Y212D01*
X120Y204D01*
X122Y204D01*
X122Y184D01*
X120Y184D01*
X120Y176D01*
X118Y176D01*
X118Y172D01*
X116Y172D01*
X116Y168D01*
X114Y168D01*
X114Y166D01*
X112Y166D01*
X112Y162D01*
X110Y162D01*
X110Y160D01*
X108Y160D01*
X108Y158D01*
X106Y158D01*
X106Y156D01*
X104Y156D01*
X104Y154D01*
X102Y154D01*
X102Y134D01*
X104Y134D01*
X104Y132D01*
X106Y132D01*
X106Y130D01*
X108Y130D01*
X108Y128D01*
X110Y128D01*
X110Y126D01*
X112Y126D01*
X112Y124D01*
X114Y124D01*
X114Y120D01*
X116Y120D01*
X116Y116D01*
X178Y116D01*
X178Y136D01*
X176Y136D01*
X176Y138D01*
X174Y138D01*
X174Y140D01*
X172Y140D01*
X172Y144D01*
X170Y144D01*
X170Y146D01*
X168Y146D01*
X168Y150D01*
X166Y150D01*
X166Y154D01*
X164Y154D01*
X164Y160D01*
X162Y160D01*
X162Y178D01*
X164Y178D01*
X164Y186D01*
X166Y186D01*
X166Y190D01*
X168Y190D01*
X168Y194D01*
X170Y194D01*
X170Y196D01*
X172Y196D01*
X172Y198D01*
X174Y198D01*
X174Y202D01*
X176Y202D01*
X176Y204D01*
X180Y204D01*
X180Y206D01*
X182Y206D01*
X182Y208D01*
X186Y208D01*
X186Y210D01*
X188Y210D01*
X188Y230D01*
X184Y230D01*
X184Y232D01*
X182Y232D01*
X182Y234D01*
X178Y234D01*
X178Y236D01*
X176Y236D01*
X176Y238D01*
X174Y238D01*
X174Y240D01*
X172Y240D01*
X172Y244D01*
X170Y244D01*
X170Y246D01*
X168Y246D01*
X168Y250D01*
X166Y250D01*
X166Y254D01*
X164Y254D01*
X164Y260D01*
X162Y260D01*
X162Y278D01*
X164Y278D01*
X164Y286D01*
X166Y286D01*
X166Y290D01*
X168Y290D01*
X168Y294D01*
X170Y294D01*
X170Y296D01*
X172Y296D01*
X172Y298D01*
X174Y298D01*
X174Y302D01*
X176Y302D01*
X176Y304D01*
X180Y304D01*
X180Y306D01*
X182Y306D01*
X182Y308D01*
X186Y308D01*
X186Y310D01*
X188Y310D01*
X188Y330D01*
X184Y330D01*
X184Y332D01*
X182Y332D01*
X182Y334D01*
X178Y334D01*
X178Y336D01*
X176Y336D01*
X176Y338D01*
X174Y338D01*
X174Y340D01*
X172Y340D01*
X172Y344D01*
X170Y344D01*
X170Y346D01*
X168Y346D01*
X168Y350D01*
X166Y350D01*
X166Y354D01*
X164Y354D01*
X164Y360D01*
X162Y360D01*
X162Y378D01*
X164Y378D01*
X164Y386D01*
X166Y386D01*
X166Y390D01*
X168Y390D01*
X168Y394D01*
X170Y394D01*
X170Y396D01*
X172Y396D01*
X172Y398D01*
X174Y398D01*
X174Y402D01*
X176Y402D01*
X176Y404D01*
X180Y404D01*
X180Y406D01*
X182Y406D01*
X182Y408D01*
X186Y408D01*
X186Y410D01*
X188Y410D01*
X188Y430D01*
X184Y430D01*
X184Y432D01*
X182Y432D01*
X182Y434D01*
X178Y434D01*
X178Y436D01*
X176Y436D01*
X176Y438D01*
X174Y438D01*
X174Y440D01*
X172Y440D01*
X172Y444D01*
X170Y444D01*
X170Y446D01*
X168Y446D01*
X168Y450D01*
X166Y450D01*
X166Y454D01*
X164Y454D01*
X164Y460D01*
X162Y460D01*
X162Y478D01*
X164Y478D01*
X164Y486D01*
X166Y486D01*
X166Y490D01*
X168Y490D01*
X168Y494D01*
X170Y494D01*
X170Y496D01*
X172Y496D01*
X172Y498D01*
X174Y498D01*
X174Y502D01*
X176Y502D01*
X176Y504D01*
X180Y504D01*
X180Y506D01*
X182Y506D01*
X182Y508D01*
X186Y508D01*
X186Y510D01*
X188Y510D01*
X188Y530D01*
X184Y530D01*
X184Y532D01*
X182Y532D01*
X182Y534D01*
X178Y534D01*
X178Y536D01*
X176Y536D01*
X176Y538D01*
X174Y538D01*
X174Y540D01*
X172Y540D01*
X172Y544D01*
X170Y544D01*
X170Y546D01*
X168Y546D01*
X168Y550D01*
X166Y550D01*
X166Y554D01*
X164Y554D01*
X164Y560D01*
X162Y560D01*
X162Y578D01*
X164Y578D01*
X164Y586D01*
X166Y586D01*
X166Y590D01*
X168Y590D01*
X168Y594D01*
X170Y594D01*
X170Y596D01*
X172Y596D01*
X172Y598D01*
X174Y598D01*
X174Y602D01*
X176Y602D01*
X176Y604D01*
X180Y604D01*
X180Y606D01*
X182Y606D01*
X182Y608D01*
X186Y608D01*
X186Y610D01*
X188Y610D01*
X188Y630D01*
X184Y630D01*
X184Y632D01*
X182Y632D01*
X182Y634D01*
X178Y634D01*
X178Y636D01*
X176Y636D01*
X176Y638D01*
X174Y638D01*
X174Y640D01*
X172Y640D01*
X172Y644D01*
X170Y644D01*
X170Y646D01*
X168Y646D01*
X168Y650D01*
X166Y650D01*
X166Y654D01*
X164Y654D01*
X164Y660D01*
X162Y660D01*
X162Y678D01*
X164Y678D01*
X164Y686D01*
X166Y686D01*
X166Y690D01*
X168Y690D01*
X168Y694D01*
X170Y694D01*
X170Y696D01*
X172Y696D01*
X172Y698D01*
X174Y698D01*
X174Y702D01*
X176Y702D01*
X176Y704D01*
X180Y704D01*
X180Y706D01*
X182Y706D01*
X182Y708D01*
X186Y708D01*
X186Y710D01*
X188Y710D01*
X188Y730D01*
X184Y730D01*
X184Y732D01*
X182Y732D01*
X182Y734D01*
X178Y734D01*
X178Y736D01*
X176Y736D01*
X176Y738D01*
X174Y738D01*
X174Y740D01*
X172Y740D01*
X172Y744D01*
X170Y744D01*
X170Y746D01*
X168Y746D01*
X168Y750D01*
X166Y750D01*
X166Y754D01*
X164Y754D01*
X164Y760D01*
X162Y760D01*
X162Y778D01*
X164Y778D01*
X164Y786D01*
X166Y786D01*
X166Y790D01*
X168Y790D01*
X168Y794D01*
X170Y794D01*
X170Y796D01*
X172Y796D01*
X172Y798D01*
X174Y798D01*
X174Y802D01*
X176Y802D01*
X176Y804D01*
X180Y804D01*
X180Y806D01*
X182Y806D01*
X182Y808D01*
X186Y808D01*
X186Y810D01*
X188Y810D01*
X188Y830D01*
X184Y830D01*
X184Y832D01*
X182Y832D01*
X182Y834D01*
X178Y834D01*
X178Y836D01*
X176Y836D01*
X176Y838D01*
X174Y838D01*
X174Y840D01*
X172Y840D01*
X172Y844D01*
X170Y844D01*
X170Y846D01*
X168Y846D01*
X168Y850D01*
X166Y850D01*
X166Y854D01*
X164Y854D01*
X164Y860D01*
X162Y860D01*
X162Y878D01*
X164Y878D01*
X164Y886D01*
X166Y886D01*
X166Y890D01*
X168Y890D01*
X168Y894D01*
X170Y894D01*
X170Y896D01*
X172Y896D01*
X172Y898D01*
X174Y898D01*
X174Y902D01*
X176Y902D01*
X176Y904D01*
X180Y904D01*
X180Y906D01*
X182Y906D01*
X182Y908D01*
X186Y908D01*
X186Y910D01*
X188Y910D01*
X188Y930D01*
X184Y930D01*
X184Y932D01*
X182Y932D01*
X182Y934D01*
X178Y934D01*
X178Y936D01*
X176Y936D01*
X176Y938D01*
X174Y938D01*
X174Y940D01*
X172Y940D01*
X172Y944D01*
X170Y944D01*
X170Y946D01*
X168Y946D01*
X168Y950D01*
X166Y950D01*
X166Y954D01*
X164Y954D01*
X164Y960D01*
X162Y960D01*
X162Y978D01*
X164Y978D01*
X164Y986D01*
X166Y986D01*
X166Y990D01*
X168Y990D01*
X168Y994D01*
X170Y994D01*
X170Y996D01*
X172Y996D01*
X172Y998D01*
X174Y998D01*
X174Y1002D01*
X176Y1002D01*
X176Y1004D01*
X180Y1004D01*
X180Y1006D01*
X182Y1006D01*
X182Y1008D01*
X186Y1008D01*
X186Y1010D01*
X188Y1010D01*
X188Y1030D01*
X184Y1030D01*
X184Y1032D01*
X182Y1032D01*
X182Y1034D01*
X178Y1034D01*
X178Y1036D01*
X176Y1036D01*
X176Y1038D01*
X174Y1038D01*
X174Y1040D01*
X172Y1040D01*
X172Y1044D01*
X170Y1044D01*
X170Y1046D01*
X168Y1046D01*
X168Y1050D01*
X166Y1050D01*
X166Y1054D01*
X164Y1054D01*
X164Y1060D01*
X162Y1060D01*
X162Y1078D01*
X164Y1078D01*
X164Y1086D01*
X166Y1086D01*
X166Y1090D01*
X168Y1090D01*
X168Y1094D01*
X170Y1094D01*
X170Y1096D01*
X172Y1096D01*
X172Y1098D01*
X174Y1098D01*
X174Y1102D01*
X176Y1102D01*
X176Y1104D01*
X180Y1104D01*
X180Y1106D01*
X182Y1106D01*
X182Y1108D01*
X186Y1108D01*
X186Y1110D01*
X188Y1110D01*
X188Y1130D01*
X184Y1130D01*
X184Y1132D01*
X182Y1132D01*
X182Y1134D01*
X178Y1134D01*
X178Y1136D01*
X176Y1136D01*
X176Y1138D01*
X174Y1138D01*
X174Y1140D01*
X172Y1140D01*
X172Y1144D01*
X170Y1144D01*
X170Y1146D01*
X168Y1146D01*
X168Y1150D01*
X166Y1150D01*
X166Y1154D01*
X164Y1154D01*
X164Y1160D01*
X162Y1160D01*
X162Y1178D01*
X164Y1178D01*
X164Y1186D01*
X166Y1186D01*
X166Y1190D01*
X168Y1190D01*
X168Y1194D01*
X170Y1194D01*
X170Y1196D01*
X172Y1196D01*
X172Y1198D01*
X174Y1198D01*
X174Y1202D01*
X176Y1202D01*
X176Y1204D01*
X180Y1204D01*
X180Y1206D01*
X182Y1206D01*
X182Y1208D01*
X186Y1208D01*
X186Y1210D01*
X188Y1210D01*
X188Y1230D01*
X184Y1230D01*
X184Y1232D01*
X182Y1232D01*
X182Y1234D01*
X178Y1234D01*
X178Y1236D01*
X176Y1236D01*
X176Y1238D01*
X174Y1238D01*
X174Y1240D01*
X172Y1240D01*
X172Y1244D01*
X170Y1244D01*
X170Y1246D01*
X168Y1246D01*
X168Y1250D01*
X166Y1250D01*
X166Y1254D01*
X164Y1254D01*
X164Y1260D01*
X162Y1260D01*
X162Y1278D01*
X164Y1278D01*
X164Y1286D01*
X166Y1286D01*
X166Y1290D01*
X168Y1290D01*
X168Y1294D01*
X170Y1294D01*
X170Y1296D01*
X172Y1296D01*
X172Y1298D01*
X174Y1298D01*
X174Y1302D01*
X176Y1302D01*
X176Y1304D01*
X180Y1304D01*
X180Y1306D01*
X182Y1306D01*
X182Y1308D01*
X186Y1308D01*
X186Y1310D01*
X188Y1310D01*
X188Y1330D01*
X184Y1330D01*
X184Y1332D01*
X182Y1332D01*
X182Y1334D01*
X178Y1334D01*
X178Y1336D01*
X176Y1336D01*
X176Y1338D01*
X174Y1338D01*
X174Y1340D01*
X172Y1340D01*
X172Y1344D01*
X170Y1344D01*
X170Y1346D01*
X168Y1346D01*
X168Y1350D01*
X166Y1350D01*
X166Y1354D01*
X164Y1354D01*
X164Y1360D01*
X162Y1360D01*
X162Y1378D01*
X164Y1378D01*
X164Y1386D01*
X166Y1386D01*
X166Y1390D01*
X168Y1390D01*
X168Y1394D01*
X170Y1394D01*
X170Y1396D01*
X172Y1396D01*
X172Y1398D01*
X174Y1398D01*
X174Y1402D01*
X176Y1402D01*
X176Y1404D01*
X180Y1404D01*
X180Y1406D01*
X182Y1406D01*
X182Y1408D01*
X186Y1408D01*
X186Y1410D01*
X188Y1410D01*
X188Y1430D01*
X184Y1430D01*
X184Y1432D01*
X182Y1432D01*
X182Y1434D01*
X178Y1434D01*
X178Y1436D01*
X176Y1436D01*
X176Y1438D01*
X174Y1438D01*
X174Y1440D01*
X172Y1440D01*
X172Y1444D01*
X170Y1444D01*
X170Y1446D01*
X168Y1446D01*
X168Y1450D01*
X166Y1450D01*
X166Y1454D01*
X164Y1454D01*
X164Y1460D01*
X162Y1460D01*
X162Y1478D01*
X164Y1478D01*
X164Y1486D01*
X166Y1486D01*
X166Y1490D01*
X168Y1490D01*
X168Y1494D01*
X170Y1494D01*
X170Y1496D01*
X172Y1496D01*
X172Y1498D01*
X174Y1498D01*
X174Y1502D01*
X176Y1502D01*
X176Y1504D01*
X180Y1504D01*
X180Y1506D01*
X182Y1506D01*
X182Y1508D01*
X186Y1508D01*
X186Y1510D01*
X188Y1510D01*
X188Y1530D01*
X184Y1530D01*
X184Y1532D01*
X182Y1532D01*
X182Y1534D01*
X178Y1534D01*
X178Y1536D01*
X176Y1536D01*
X176Y1538D01*
X174Y1538D01*
X174Y1540D01*
X172Y1540D01*
X172Y1544D01*
X170Y1544D01*
X170Y1546D01*
X168Y1546D01*
X168Y1550D01*
X166Y1550D01*
X166Y1554D01*
X164Y1554D01*
X164Y1560D01*
X162Y1560D01*
X162Y1578D01*
X164Y1578D01*
X164Y1586D01*
X166Y1586D01*
X166Y1590D01*
X168Y1590D01*
X168Y1594D01*
X170Y1594D01*
X170Y1596D01*
X172Y1596D01*
X172Y1598D01*
X174Y1598D01*
X174Y1602D01*
X176Y1602D01*
X176Y1604D01*
X180Y1604D01*
X180Y1606D01*
X182Y1606D01*
X182Y1608D01*
X186Y1608D01*
X186Y1610D01*
X190Y1610D01*
X190Y1612D01*
X196Y1612D01*
X196Y1614D01*
X118Y1614D01*
G37*
D02*
G36*
X474Y1866D02*
X474Y1844D01*
X476Y1844D01*
X476Y1842D01*
X478Y1842D01*
X478Y1838D01*
X480Y1838D01*
X480Y1836D01*
X482Y1836D01*
X482Y1830D01*
X484Y1830D01*
X484Y1806D01*
X482Y1806D01*
X482Y1800D01*
X480Y1800D01*
X480Y1796D01*
X478Y1796D01*
X478Y1792D01*
X476Y1792D01*
X476Y1790D01*
X474Y1790D01*
X474Y1788D01*
X472Y1788D01*
X472Y1768D01*
X474Y1768D01*
X474Y1766D01*
X476Y1766D01*
X476Y1764D01*
X478Y1764D01*
X478Y1760D01*
X480Y1760D01*
X480Y1756D01*
X482Y1756D01*
X482Y1750D01*
X484Y1750D01*
X484Y1728D01*
X482Y1728D01*
X482Y1722D01*
X480Y1722D01*
X480Y1718D01*
X478Y1718D01*
X478Y1714D01*
X476Y1714D01*
X476Y1712D01*
X474Y1712D01*
X474Y1710D01*
X472Y1710D01*
X472Y1690D01*
X474Y1690D01*
X474Y1688D01*
X476Y1688D01*
X476Y1684D01*
X478Y1684D01*
X478Y1682D01*
X480Y1682D01*
X480Y1678D01*
X482Y1678D01*
X482Y1674D01*
X620Y1674D01*
X620Y1676D01*
X608Y1676D01*
X608Y1678D01*
X602Y1678D01*
X602Y1680D01*
X600Y1680D01*
X600Y1682D01*
X596Y1682D01*
X596Y1684D01*
X592Y1684D01*
X592Y1686D01*
X590Y1686D01*
X590Y1688D01*
X588Y1688D01*
X588Y1690D01*
X586Y1690D01*
X586Y1692D01*
X584Y1692D01*
X584Y1694D01*
X582Y1694D01*
X582Y1698D01*
X580Y1698D01*
X580Y1700D01*
X578Y1700D01*
X578Y1704D01*
X576Y1704D01*
X576Y1708D01*
X574Y1708D01*
X574Y1716D01*
X572Y1716D01*
X572Y1736D01*
X574Y1736D01*
X574Y1742D01*
X576Y1742D01*
X576Y1748D01*
X578Y1748D01*
X578Y1752D01*
X580Y1752D01*
X580Y1754D01*
X582Y1754D01*
X582Y1758D01*
X584Y1758D01*
X584Y1760D01*
X586Y1760D01*
X586Y1762D01*
X588Y1762D01*
X588Y1774D01*
X554Y1774D01*
X554Y1776D01*
X546Y1776D01*
X546Y1778D01*
X542Y1778D01*
X542Y1780D01*
X538Y1780D01*
X538Y1782D01*
X534Y1782D01*
X534Y1784D01*
X532Y1784D01*
X532Y1786D01*
X530Y1786D01*
X530Y1788D01*
X528Y1788D01*
X528Y1790D01*
X526Y1790D01*
X526Y1792D01*
X524Y1792D01*
X524Y1794D01*
X522Y1794D01*
X522Y1796D01*
X520Y1796D01*
X520Y1800D01*
X518Y1800D01*
X518Y1804D01*
X516Y1804D01*
X516Y1810D01*
X514Y1810D01*
X514Y1836D01*
X516Y1836D01*
X516Y1842D01*
X518Y1842D01*
X518Y1846D01*
X520Y1846D01*
X520Y1866D01*
X474Y1866D01*
G37*
D02*
G36*
X626Y1676D02*
X626Y1674D01*
X648Y1674D01*
X648Y1676D01*
X626Y1676D01*
G37*
D02*
G36*
X482Y1674D02*
X482Y1672D01*
X652Y1672D01*
X652Y1674D01*
X482Y1674D01*
G37*
D02*
G36*
X482Y1674D02*
X482Y1672D01*
X652Y1672D01*
X652Y1674D01*
X482Y1674D01*
G37*
D02*
G36*
X484Y1672D02*
X484Y1648D01*
X482Y1648D01*
X482Y1642D01*
X480Y1642D01*
X480Y1638D01*
X478Y1638D01*
X478Y1636D01*
X476Y1636D01*
X476Y1632D01*
X474Y1632D01*
X474Y1608D01*
X476Y1608D01*
X476Y1606D01*
X478Y1606D01*
X478Y1602D01*
X480Y1602D01*
X480Y1598D01*
X482Y1598D01*
X482Y1592D01*
X484Y1592D01*
X484Y1570D01*
X482Y1570D01*
X482Y1564D01*
X480Y1564D01*
X480Y1560D01*
X478Y1560D01*
X478Y1556D01*
X476Y1556D01*
X476Y1554D01*
X474Y1554D01*
X474Y1552D01*
X472Y1552D01*
X472Y1532D01*
X474Y1532D01*
X474Y1530D01*
X476Y1530D01*
X476Y1528D01*
X478Y1528D01*
X478Y1524D01*
X480Y1524D01*
X480Y1520D01*
X482Y1520D01*
X482Y1514D01*
X484Y1514D01*
X484Y1492D01*
X482Y1492D01*
X482Y1484D01*
X480Y1484D01*
X480Y1482D01*
X478Y1482D01*
X478Y1478D01*
X674Y1478D01*
X674Y1374D01*
X694Y1374D01*
X694Y1376D01*
X696Y1376D01*
X696Y1378D01*
X698Y1378D01*
X698Y1380D01*
X700Y1380D01*
X700Y1384D01*
X702Y1384D01*
X702Y1386D01*
X704Y1386D01*
X704Y1388D01*
X706Y1388D01*
X706Y1390D01*
X708Y1390D01*
X708Y1392D01*
X710Y1392D01*
X710Y1394D01*
X712Y1394D01*
X712Y1396D01*
X714Y1396D01*
X714Y1398D01*
X716Y1398D01*
X716Y1402D01*
X718Y1402D01*
X718Y1404D01*
X720Y1404D01*
X720Y1406D01*
X722Y1406D01*
X722Y1408D01*
X724Y1408D01*
X724Y1410D01*
X726Y1410D01*
X726Y1412D01*
X728Y1412D01*
X728Y1414D01*
X730Y1414D01*
X730Y1416D01*
X732Y1416D01*
X732Y1420D01*
X734Y1420D01*
X734Y1422D01*
X736Y1422D01*
X736Y1424D01*
X738Y1424D01*
X738Y1426D01*
X740Y1426D01*
X740Y1428D01*
X742Y1428D01*
X742Y1430D01*
X744Y1430D01*
X744Y1432D01*
X746Y1432D01*
X746Y1436D01*
X748Y1436D01*
X748Y1438D01*
X750Y1438D01*
X750Y1440D01*
X752Y1440D01*
X752Y1442D01*
X754Y1442D01*
X754Y1444D01*
X756Y1444D01*
X756Y1446D01*
X758Y1446D01*
X758Y1448D01*
X760Y1448D01*
X760Y1450D01*
X762Y1450D01*
X762Y1478D01*
X764Y1478D01*
X764Y1486D01*
X766Y1486D01*
X766Y1490D01*
X768Y1490D01*
X768Y1494D01*
X770Y1494D01*
X770Y1496D01*
X772Y1496D01*
X772Y1498D01*
X774Y1498D01*
X774Y1502D01*
X776Y1502D01*
X776Y1504D01*
X780Y1504D01*
X780Y1506D01*
X782Y1506D01*
X782Y1508D01*
X786Y1508D01*
X786Y1510D01*
X788Y1510D01*
X788Y1530D01*
X784Y1530D01*
X784Y1532D01*
X782Y1532D01*
X782Y1534D01*
X778Y1534D01*
X778Y1536D01*
X776Y1536D01*
X776Y1538D01*
X774Y1538D01*
X774Y1540D01*
X772Y1540D01*
X772Y1544D01*
X770Y1544D01*
X770Y1546D01*
X768Y1546D01*
X768Y1550D01*
X766Y1550D01*
X766Y1554D01*
X764Y1554D01*
X764Y1560D01*
X762Y1560D01*
X762Y1580D01*
X760Y1580D01*
X760Y1582D01*
X758Y1582D01*
X758Y1584D01*
X756Y1584D01*
X756Y1586D01*
X752Y1586D01*
X752Y1588D01*
X750Y1588D01*
X750Y1590D01*
X748Y1590D01*
X748Y1592D01*
X746Y1592D01*
X746Y1594D01*
X744Y1594D01*
X744Y1596D01*
X740Y1596D01*
X740Y1598D01*
X738Y1598D01*
X738Y1600D01*
X736Y1600D01*
X736Y1602D01*
X734Y1602D01*
X734Y1604D01*
X732Y1604D01*
X732Y1606D01*
X730Y1606D01*
X730Y1608D01*
X726Y1608D01*
X726Y1610D01*
X724Y1610D01*
X724Y1612D01*
X722Y1612D01*
X722Y1614D01*
X720Y1614D01*
X720Y1616D01*
X718Y1616D01*
X718Y1618D01*
X714Y1618D01*
X714Y1620D01*
X712Y1620D01*
X712Y1622D01*
X710Y1622D01*
X710Y1624D01*
X708Y1624D01*
X708Y1626D01*
X706Y1626D01*
X706Y1628D01*
X704Y1628D01*
X704Y1630D01*
X700Y1630D01*
X700Y1632D01*
X698Y1632D01*
X698Y1634D01*
X696Y1634D01*
X696Y1636D01*
X694Y1636D01*
X694Y1638D01*
X692Y1638D01*
X692Y1640D01*
X688Y1640D01*
X688Y1642D01*
X686Y1642D01*
X686Y1644D01*
X684Y1644D01*
X684Y1646D01*
X682Y1646D01*
X682Y1648D01*
X680Y1648D01*
X680Y1650D01*
X678Y1650D01*
X678Y1652D01*
X674Y1652D01*
X674Y1654D01*
X672Y1654D01*
X672Y1656D01*
X670Y1656D01*
X670Y1658D01*
X668Y1658D01*
X668Y1660D01*
X666Y1660D01*
X666Y1662D01*
X664Y1662D01*
X664Y1664D01*
X660Y1664D01*
X660Y1666D01*
X658Y1666D01*
X658Y1668D01*
X656Y1668D01*
X656Y1670D01*
X654Y1670D01*
X654Y1672D01*
X484Y1672D01*
G37*
D02*
G36*
X476Y1478D02*
X476Y1476D01*
X474Y1476D01*
X474Y1452D01*
X476Y1452D01*
X476Y1448D01*
X572Y1448D01*
X572Y1478D01*
X476Y1478D01*
G37*
D02*
G36*
X204Y1856D02*
X204Y1854D01*
X198Y1854D01*
X198Y1852D01*
X194Y1852D01*
X194Y1850D01*
X192Y1850D01*
X192Y1848D01*
X190Y1848D01*
X190Y1846D01*
X188Y1846D01*
X188Y1844D01*
X186Y1844D01*
X186Y1840D01*
X184Y1840D01*
X184Y1836D01*
X182Y1836D01*
X182Y1810D01*
X184Y1810D01*
X184Y1806D01*
X186Y1806D01*
X186Y1804D01*
X188Y1804D01*
X188Y1800D01*
X190Y1800D01*
X190Y1798D01*
X194Y1798D01*
X194Y1796D01*
X196Y1796D01*
X196Y1794D01*
X200Y1794D01*
X200Y1792D01*
X228Y1792D01*
X228Y1794D01*
X232Y1794D01*
X232Y1796D01*
X234Y1796D01*
X234Y1798D01*
X236Y1798D01*
X236Y1800D01*
X238Y1800D01*
X238Y1802D01*
X240Y1802D01*
X240Y1804D01*
X242Y1804D01*
X242Y1808D01*
X244Y1808D01*
X244Y1812D01*
X246Y1812D01*
X246Y1834D01*
X244Y1834D01*
X244Y1838D01*
X242Y1838D01*
X242Y1842D01*
X240Y1842D01*
X240Y1844D01*
X238Y1844D01*
X238Y1846D01*
X236Y1846D01*
X236Y1848D01*
X234Y1848D01*
X234Y1850D01*
X232Y1850D01*
X232Y1852D01*
X228Y1852D01*
X228Y1854D01*
X224Y1854D01*
X224Y1856D01*
X204Y1856D01*
G37*
D02*
G36*
X788Y1856D02*
X788Y1854D01*
X784Y1854D01*
X784Y1852D01*
X780Y1852D01*
X780Y1850D01*
X778Y1850D01*
X778Y1848D01*
X776Y1848D01*
X776Y1846D01*
X774Y1846D01*
X774Y1844D01*
X772Y1844D01*
X772Y1842D01*
X770Y1842D01*
X770Y1838D01*
X768Y1838D01*
X768Y1834D01*
X766Y1834D01*
X766Y1812D01*
X768Y1812D01*
X768Y1808D01*
X770Y1808D01*
X770Y1804D01*
X772Y1804D01*
X772Y1802D01*
X774Y1802D01*
X774Y1800D01*
X776Y1800D01*
X776Y1798D01*
X778Y1798D01*
X778Y1796D01*
X780Y1796D01*
X780Y1794D01*
X784Y1794D01*
X784Y1792D01*
X812Y1792D01*
X812Y1794D01*
X816Y1794D01*
X816Y1796D01*
X818Y1796D01*
X818Y1798D01*
X822Y1798D01*
X822Y1800D01*
X824Y1800D01*
X824Y1804D01*
X826Y1804D01*
X826Y1806D01*
X828Y1806D01*
X828Y1810D01*
X830Y1810D01*
X830Y1836D01*
X828Y1836D01*
X828Y1840D01*
X826Y1840D01*
X826Y1844D01*
X824Y1844D01*
X824Y1846D01*
X822Y1846D01*
X822Y1848D01*
X820Y1848D01*
X820Y1850D01*
X818Y1850D01*
X818Y1852D01*
X814Y1852D01*
X814Y1854D01*
X808Y1854D01*
X808Y1856D01*
X788Y1856D01*
G37*
D02*
G36*
X244Y1546D02*
X244Y1544D01*
X242Y1544D01*
X242Y1540D01*
X240Y1540D01*
X240Y1538D01*
X238Y1538D01*
X238Y1536D01*
X236Y1536D01*
X236Y1534D01*
X232Y1534D01*
X232Y1532D01*
X230Y1532D01*
X230Y1530D01*
X226Y1530D01*
X226Y1510D01*
X228Y1510D01*
X228Y1508D01*
X232Y1508D01*
X232Y1506D01*
X234Y1506D01*
X234Y1504D01*
X238Y1504D01*
X238Y1502D01*
X240Y1502D01*
X240Y1498D01*
X242Y1498D01*
X242Y1496D01*
X244Y1496D01*
X244Y1494D01*
X246Y1494D01*
X246Y1490D01*
X248Y1490D01*
X248Y1486D01*
X250Y1486D01*
X250Y1478D01*
X252Y1478D01*
X252Y1460D01*
X250Y1460D01*
X250Y1454D01*
X248Y1454D01*
X248Y1450D01*
X246Y1450D01*
X246Y1446D01*
X244Y1446D01*
X244Y1444D01*
X242Y1444D01*
X242Y1440D01*
X240Y1440D01*
X240Y1438D01*
X238Y1438D01*
X238Y1436D01*
X236Y1436D01*
X236Y1434D01*
X232Y1434D01*
X232Y1432D01*
X230Y1432D01*
X230Y1430D01*
X226Y1430D01*
X226Y1410D01*
X228Y1410D01*
X228Y1408D01*
X232Y1408D01*
X232Y1406D01*
X234Y1406D01*
X234Y1404D01*
X238Y1404D01*
X238Y1402D01*
X240Y1402D01*
X240Y1398D01*
X242Y1398D01*
X242Y1396D01*
X244Y1396D01*
X244Y1394D01*
X246Y1394D01*
X246Y1390D01*
X248Y1390D01*
X248Y1386D01*
X250Y1386D01*
X250Y1378D01*
X252Y1378D01*
X252Y1360D01*
X250Y1360D01*
X250Y1354D01*
X248Y1354D01*
X248Y1350D01*
X246Y1350D01*
X246Y1346D01*
X244Y1346D01*
X244Y1344D01*
X242Y1344D01*
X242Y1340D01*
X240Y1340D01*
X240Y1338D01*
X238Y1338D01*
X238Y1336D01*
X236Y1336D01*
X236Y1334D01*
X232Y1334D01*
X232Y1332D01*
X230Y1332D01*
X230Y1330D01*
X226Y1330D01*
X226Y1310D01*
X228Y1310D01*
X228Y1308D01*
X232Y1308D01*
X232Y1306D01*
X234Y1306D01*
X234Y1304D01*
X238Y1304D01*
X238Y1302D01*
X240Y1302D01*
X240Y1298D01*
X242Y1298D01*
X242Y1296D01*
X244Y1296D01*
X244Y1294D01*
X246Y1294D01*
X246Y1290D01*
X248Y1290D01*
X248Y1286D01*
X250Y1286D01*
X250Y1278D01*
X252Y1278D01*
X252Y1260D01*
X250Y1260D01*
X250Y1254D01*
X248Y1254D01*
X248Y1250D01*
X246Y1250D01*
X246Y1246D01*
X244Y1246D01*
X244Y1244D01*
X242Y1244D01*
X242Y1240D01*
X240Y1240D01*
X240Y1238D01*
X238Y1238D01*
X238Y1236D01*
X236Y1236D01*
X236Y1234D01*
X306Y1234D01*
X306Y1232D01*
X318Y1232D01*
X318Y1230D01*
X324Y1230D01*
X324Y1228D01*
X328Y1228D01*
X328Y1226D01*
X332Y1226D01*
X332Y1224D01*
X336Y1224D01*
X336Y1222D01*
X338Y1222D01*
X338Y1220D01*
X340Y1220D01*
X340Y1218D01*
X342Y1218D01*
X342Y1216D01*
X344Y1216D01*
X344Y1214D01*
X346Y1214D01*
X346Y1212D01*
X348Y1212D01*
X348Y1208D01*
X350Y1208D01*
X350Y1206D01*
X352Y1206D01*
X352Y1202D01*
X354Y1202D01*
X354Y1196D01*
X356Y1196D01*
X356Y1188D01*
X358Y1188D01*
X358Y1172D01*
X356Y1172D01*
X356Y1164D01*
X376Y1164D01*
X376Y1166D01*
X378Y1166D01*
X378Y1168D01*
X382Y1168D01*
X382Y1170D01*
X384Y1170D01*
X384Y1172D01*
X386Y1172D01*
X386Y1174D01*
X388Y1174D01*
X388Y1176D01*
X392Y1176D01*
X392Y1178D01*
X394Y1178D01*
X394Y1180D01*
X396Y1180D01*
X396Y1182D01*
X398Y1182D01*
X398Y1200D01*
X400Y1200D01*
X400Y1206D01*
X402Y1206D01*
X402Y1208D01*
X404Y1208D01*
X404Y1212D01*
X406Y1212D01*
X406Y1214D01*
X408Y1214D01*
X408Y1240D01*
X406Y1240D01*
X406Y1242D01*
X404Y1242D01*
X404Y1246D01*
X402Y1246D01*
X402Y1248D01*
X400Y1248D01*
X400Y1254D01*
X398Y1254D01*
X398Y1272D01*
X394Y1272D01*
X394Y1274D01*
X392Y1274D01*
X392Y1276D01*
X388Y1276D01*
X388Y1278D01*
X386Y1278D01*
X386Y1280D01*
X384Y1280D01*
X384Y1282D01*
X380Y1282D01*
X380Y1284D01*
X378Y1284D01*
X378Y1286D01*
X374Y1286D01*
X374Y1288D01*
X372Y1288D01*
X372Y1290D01*
X370Y1290D01*
X370Y1292D01*
X366Y1292D01*
X366Y1294D01*
X364Y1294D01*
X364Y1296D01*
X362Y1296D01*
X362Y1298D01*
X358Y1298D01*
X358Y1300D01*
X356Y1300D01*
X356Y1302D01*
X352Y1302D01*
X352Y1304D01*
X350Y1304D01*
X350Y1306D01*
X348Y1306D01*
X348Y1308D01*
X344Y1308D01*
X344Y1310D01*
X342Y1310D01*
X342Y1312D01*
X340Y1312D01*
X340Y1314D01*
X336Y1314D01*
X336Y1316D01*
X334Y1316D01*
X334Y1318D01*
X330Y1318D01*
X330Y1320D01*
X328Y1320D01*
X328Y1322D01*
X326Y1322D01*
X326Y1324D01*
X322Y1324D01*
X322Y1326D01*
X320Y1326D01*
X320Y1328D01*
X318Y1328D01*
X318Y1330D01*
X314Y1330D01*
X314Y1332D01*
X312Y1332D01*
X312Y1334D01*
X308Y1334D01*
X308Y1336D01*
X306Y1336D01*
X306Y1338D01*
X304Y1338D01*
X304Y1340D01*
X300Y1340D01*
X300Y1342D01*
X298Y1342D01*
X298Y1344D01*
X294Y1344D01*
X294Y1346D01*
X292Y1346D01*
X292Y1348D01*
X290Y1348D01*
X290Y1350D01*
X286Y1350D01*
X286Y1352D01*
X284Y1352D01*
X284Y1354D01*
X282Y1354D01*
X282Y1356D01*
X280Y1356D01*
X280Y1360D01*
X278Y1360D01*
X278Y1418D01*
X276Y1418D01*
X276Y1546D01*
X244Y1546D01*
G37*
D02*
G36*
X232Y1234D02*
X232Y1232D01*
X230Y1232D01*
X230Y1230D01*
X226Y1230D01*
X226Y1210D01*
X228Y1210D01*
X228Y1208D01*
X232Y1208D01*
X232Y1206D01*
X234Y1206D01*
X234Y1204D01*
X258Y1204D01*
X258Y1206D01*
X260Y1206D01*
X260Y1210D01*
X262Y1210D01*
X262Y1212D01*
X264Y1212D01*
X264Y1216D01*
X266Y1216D01*
X266Y1218D01*
X268Y1218D01*
X268Y1220D01*
X272Y1220D01*
X272Y1222D01*
X274Y1222D01*
X274Y1224D01*
X276Y1224D01*
X276Y1226D01*
X280Y1226D01*
X280Y1228D01*
X284Y1228D01*
X284Y1230D01*
X290Y1230D01*
X290Y1232D01*
X302Y1232D01*
X302Y1234D01*
X232Y1234D01*
G37*
D02*
G36*
X494Y1404D02*
X494Y1402D01*
X478Y1402D01*
X478Y1400D01*
X476Y1400D01*
X476Y1396D01*
X474Y1396D01*
X474Y1394D01*
X472Y1394D01*
X472Y1374D01*
X474Y1374D01*
X474Y1372D01*
X476Y1372D01*
X476Y1370D01*
X478Y1370D01*
X478Y1366D01*
X572Y1366D01*
X572Y1404D01*
X494Y1404D01*
G37*
D02*
G36*
X478Y1322D02*
X478Y1320D01*
X476Y1320D01*
X476Y1318D01*
X474Y1318D01*
X474Y1316D01*
X472Y1316D01*
X472Y1296D01*
X474Y1296D01*
X474Y1294D01*
X476Y1294D01*
X476Y1292D01*
X478Y1292D01*
X478Y1288D01*
X480Y1288D01*
X480Y1284D01*
X482Y1284D01*
X482Y1278D01*
X484Y1278D01*
X484Y1256D01*
X504Y1256D01*
X504Y1258D01*
X506Y1258D01*
X506Y1260D01*
X510Y1260D01*
X510Y1262D01*
X512Y1262D01*
X512Y1264D01*
X516Y1264D01*
X516Y1266D01*
X518Y1266D01*
X518Y1268D01*
X522Y1268D01*
X522Y1270D01*
X524Y1270D01*
X524Y1272D01*
X528Y1272D01*
X528Y1274D01*
X530Y1274D01*
X530Y1276D01*
X534Y1276D01*
X534Y1278D01*
X536Y1278D01*
X536Y1280D01*
X540Y1280D01*
X540Y1282D01*
X542Y1282D01*
X542Y1284D01*
X544Y1284D01*
X544Y1286D01*
X548Y1286D01*
X548Y1288D01*
X550Y1288D01*
X550Y1290D01*
X554Y1290D01*
X554Y1292D01*
X556Y1292D01*
X556Y1294D01*
X560Y1294D01*
X560Y1296D01*
X564Y1296D01*
X564Y1298D01*
X686Y1298D01*
X686Y1300D01*
X690Y1300D01*
X690Y1320D01*
X602Y1320D01*
X602Y1322D01*
X478Y1322D01*
G37*
D02*
G36*
X596Y1218D02*
X596Y1216D01*
X594Y1216D01*
X594Y1214D01*
X590Y1214D01*
X590Y1212D01*
X588Y1212D01*
X588Y1210D01*
X586Y1210D01*
X586Y1208D01*
X584Y1208D01*
X584Y1206D01*
X582Y1206D01*
X582Y1202D01*
X580Y1202D01*
X580Y1198D01*
X578Y1198D01*
X578Y1174D01*
X580Y1174D01*
X580Y1170D01*
X582Y1170D01*
X582Y1166D01*
X584Y1166D01*
X584Y1164D01*
X586Y1164D01*
X586Y1162D01*
X588Y1162D01*
X588Y1160D01*
X590Y1160D01*
X590Y1158D01*
X594Y1158D01*
X594Y1156D01*
X598Y1156D01*
X598Y1154D01*
X622Y1154D01*
X622Y1156D01*
X626Y1156D01*
X626Y1158D01*
X630Y1158D01*
X630Y1160D01*
X632Y1160D01*
X632Y1162D01*
X634Y1162D01*
X634Y1164D01*
X636Y1164D01*
X636Y1166D01*
X638Y1166D01*
X638Y1170D01*
X640Y1170D01*
X640Y1174D01*
X642Y1174D01*
X642Y1198D01*
X640Y1198D01*
X640Y1202D01*
X638Y1202D01*
X638Y1206D01*
X636Y1206D01*
X636Y1208D01*
X634Y1208D01*
X634Y1210D01*
X632Y1210D01*
X632Y1212D01*
X630Y1212D01*
X630Y1214D01*
X626Y1214D01*
X626Y1216D01*
X624Y1216D01*
X624Y1218D01*
X596Y1218D01*
G37*
D02*
G36*
X292Y1212D02*
X292Y1210D01*
X288Y1210D01*
X288Y1208D01*
X286Y1208D01*
X286Y1206D01*
X282Y1206D01*
X282Y1204D01*
X280Y1204D01*
X280Y1202D01*
X278Y1202D01*
X278Y1198D01*
X276Y1198D01*
X276Y1196D01*
X274Y1196D01*
X274Y1190D01*
X272Y1190D01*
X272Y1168D01*
X274Y1168D01*
X274Y1164D01*
X276Y1164D01*
X276Y1160D01*
X278Y1160D01*
X278Y1158D01*
X280Y1158D01*
X280Y1156D01*
X282Y1156D01*
X282Y1154D01*
X284Y1154D01*
X284Y1152D01*
X288Y1152D01*
X288Y1150D01*
X292Y1150D01*
X292Y1148D01*
X318Y1148D01*
X318Y1150D01*
X322Y1150D01*
X322Y1152D01*
X324Y1152D01*
X324Y1154D01*
X326Y1154D01*
X326Y1156D01*
X328Y1156D01*
X328Y1158D01*
X330Y1158D01*
X330Y1160D01*
X332Y1160D01*
X332Y1162D01*
X334Y1162D01*
X334Y1166D01*
X336Y1166D01*
X336Y1194D01*
X334Y1194D01*
X334Y1198D01*
X332Y1198D01*
X332Y1200D01*
X330Y1200D01*
X330Y1202D01*
X328Y1202D01*
X328Y1204D01*
X326Y1204D01*
X326Y1206D01*
X324Y1206D01*
X324Y1208D01*
X320Y1208D01*
X320Y1210D01*
X316Y1210D01*
X316Y1212D01*
X292Y1212D01*
G37*
D02*
G36*
X244Y1146D02*
X244Y1144D01*
X242Y1144D01*
X242Y1140D01*
X240Y1140D01*
X240Y1138D01*
X238Y1138D01*
X238Y1136D01*
X236Y1136D01*
X236Y1134D01*
X232Y1134D01*
X232Y1132D01*
X230Y1132D01*
X230Y1130D01*
X226Y1130D01*
X226Y1110D01*
X228Y1110D01*
X228Y1108D01*
X232Y1108D01*
X232Y1106D01*
X234Y1106D01*
X234Y1104D01*
X238Y1104D01*
X238Y1102D01*
X240Y1102D01*
X240Y1098D01*
X242Y1098D01*
X242Y1096D01*
X244Y1096D01*
X244Y1094D01*
X246Y1094D01*
X246Y1090D01*
X248Y1090D01*
X248Y1086D01*
X250Y1086D01*
X250Y1082D01*
X270Y1082D01*
X270Y1084D01*
X274Y1084D01*
X274Y1086D01*
X276Y1086D01*
X276Y1088D01*
X278Y1088D01*
X278Y1090D01*
X282Y1090D01*
X282Y1092D01*
X284Y1092D01*
X284Y1094D01*
X286Y1094D01*
X286Y1096D01*
X288Y1096D01*
X288Y1098D01*
X292Y1098D01*
X292Y1100D01*
X294Y1100D01*
X294Y1102D01*
X296Y1102D01*
X296Y1104D01*
X300Y1104D01*
X300Y1106D01*
X302Y1106D01*
X302Y1126D01*
X298Y1126D01*
X298Y1128D01*
X288Y1128D01*
X288Y1130D01*
X284Y1130D01*
X284Y1132D01*
X280Y1132D01*
X280Y1134D01*
X276Y1134D01*
X276Y1136D01*
X274Y1136D01*
X274Y1138D01*
X270Y1138D01*
X270Y1140D01*
X268Y1140D01*
X268Y1142D01*
X266Y1142D01*
X266Y1144D01*
X264Y1144D01*
X264Y1146D01*
X244Y1146D01*
G37*
D02*
G36*
X648Y1016D02*
X648Y1014D01*
X644Y1014D01*
X644Y1012D01*
X642Y1012D01*
X642Y1010D01*
X640Y1010D01*
X640Y1008D01*
X638Y1008D01*
X638Y1006D01*
X636Y1006D01*
X636Y1004D01*
X634Y1004D01*
X634Y1002D01*
X632Y1002D01*
X632Y998D01*
X630Y998D01*
X630Y972D01*
X632Y972D01*
X632Y968D01*
X634Y968D01*
X634Y966D01*
X636Y966D01*
X636Y962D01*
X638Y962D01*
X638Y960D01*
X642Y960D01*
X642Y958D01*
X644Y958D01*
X644Y956D01*
X648Y956D01*
X648Y954D01*
X652Y954D01*
X652Y952D01*
X672Y952D01*
X672Y954D01*
X676Y954D01*
X676Y956D01*
X680Y956D01*
X680Y958D01*
X682Y958D01*
X682Y960D01*
X686Y960D01*
X686Y962D01*
X688Y962D01*
X688Y966D01*
X690Y966D01*
X690Y968D01*
X692Y968D01*
X692Y972D01*
X694Y972D01*
X694Y998D01*
X692Y998D01*
X692Y1002D01*
X690Y1002D01*
X690Y1004D01*
X688Y1004D01*
X688Y1006D01*
X686Y1006D01*
X686Y1008D01*
X684Y1008D01*
X684Y1010D01*
X682Y1010D01*
X682Y1012D01*
X680Y1012D01*
X680Y1014D01*
X676Y1014D01*
X676Y1016D01*
X648Y1016D01*
G37*
D02*
G36*
X746Y1292D02*
X746Y1290D01*
X744Y1290D01*
X744Y1288D01*
X742Y1288D01*
X742Y1286D01*
X738Y1286D01*
X738Y1284D01*
X736Y1284D01*
X736Y1282D01*
X734Y1282D01*
X734Y1280D01*
X732Y1280D01*
X732Y1278D01*
X730Y1278D01*
X730Y1276D01*
X726Y1276D01*
X726Y1274D01*
X724Y1274D01*
X724Y1272D01*
X722Y1272D01*
X722Y1270D01*
X720Y1270D01*
X720Y1268D01*
X718Y1268D01*
X718Y1266D01*
X714Y1266D01*
X714Y1264D01*
X712Y1264D01*
X712Y1262D01*
X710Y1262D01*
X710Y1260D01*
X708Y1260D01*
X708Y1258D01*
X704Y1258D01*
X704Y1256D01*
X698Y1256D01*
X698Y1254D01*
X632Y1254D01*
X632Y1234D01*
X634Y1234D01*
X634Y1232D01*
X638Y1232D01*
X638Y1230D01*
X642Y1230D01*
X642Y1228D01*
X644Y1228D01*
X644Y1226D01*
X646Y1226D01*
X646Y1224D01*
X648Y1224D01*
X648Y1222D01*
X650Y1222D01*
X650Y1220D01*
X652Y1220D01*
X652Y1218D01*
X654Y1218D01*
X654Y1214D01*
X656Y1214D01*
X656Y1210D01*
X658Y1210D01*
X658Y1206D01*
X660Y1206D01*
X660Y1202D01*
X662Y1202D01*
X662Y1192D01*
X664Y1192D01*
X664Y1182D01*
X662Y1182D01*
X662Y1172D01*
X660Y1172D01*
X660Y1166D01*
X658Y1166D01*
X658Y1162D01*
X656Y1162D01*
X656Y1158D01*
X654Y1158D01*
X654Y1156D01*
X652Y1156D01*
X652Y1152D01*
X650Y1152D01*
X650Y1150D01*
X648Y1150D01*
X648Y1148D01*
X646Y1148D01*
X646Y1146D01*
X644Y1146D01*
X644Y1144D01*
X640Y1144D01*
X640Y1142D01*
X638Y1142D01*
X638Y1140D01*
X634Y1140D01*
X634Y1138D01*
X630Y1138D01*
X630Y1136D01*
X624Y1136D01*
X624Y1134D01*
X778Y1134D01*
X778Y1136D01*
X776Y1136D01*
X776Y1138D01*
X774Y1138D01*
X774Y1140D01*
X772Y1140D01*
X772Y1144D01*
X770Y1144D01*
X770Y1146D01*
X768Y1146D01*
X768Y1150D01*
X766Y1150D01*
X766Y1154D01*
X764Y1154D01*
X764Y1160D01*
X762Y1160D01*
X762Y1178D01*
X764Y1178D01*
X764Y1186D01*
X766Y1186D01*
X766Y1190D01*
X768Y1190D01*
X768Y1194D01*
X770Y1194D01*
X770Y1196D01*
X772Y1196D01*
X772Y1198D01*
X774Y1198D01*
X774Y1202D01*
X776Y1202D01*
X776Y1204D01*
X780Y1204D01*
X780Y1206D01*
X782Y1206D01*
X782Y1208D01*
X786Y1208D01*
X786Y1210D01*
X788Y1210D01*
X788Y1230D01*
X784Y1230D01*
X784Y1232D01*
X782Y1232D01*
X782Y1234D01*
X778Y1234D01*
X778Y1236D01*
X776Y1236D01*
X776Y1238D01*
X774Y1238D01*
X774Y1240D01*
X772Y1240D01*
X772Y1244D01*
X770Y1244D01*
X770Y1246D01*
X768Y1246D01*
X768Y1250D01*
X766Y1250D01*
X766Y1254D01*
X764Y1254D01*
X764Y1260D01*
X762Y1260D01*
X762Y1278D01*
X764Y1278D01*
X764Y1286D01*
X766Y1286D01*
X766Y1292D01*
X746Y1292D01*
G37*
D02*
G36*
X568Y1248D02*
X568Y1246D01*
X564Y1246D01*
X564Y1244D01*
X562Y1244D01*
X562Y1242D01*
X558Y1242D01*
X558Y1240D01*
X556Y1240D01*
X556Y1238D01*
X552Y1238D01*
X552Y1236D01*
X550Y1236D01*
X550Y1234D01*
X546Y1234D01*
X546Y1232D01*
X544Y1232D01*
X544Y1230D01*
X540Y1230D01*
X540Y1228D01*
X538Y1228D01*
X538Y1226D01*
X534Y1226D01*
X534Y1224D01*
X532Y1224D01*
X532Y1222D01*
X530Y1222D01*
X530Y1220D01*
X526Y1220D01*
X526Y1218D01*
X524Y1218D01*
X524Y1216D01*
X520Y1216D01*
X520Y1214D01*
X518Y1214D01*
X518Y1212D01*
X514Y1212D01*
X514Y1210D01*
X512Y1210D01*
X512Y1208D01*
X508Y1208D01*
X508Y1206D01*
X506Y1206D01*
X506Y1204D01*
X502Y1204D01*
X502Y1202D01*
X500Y1202D01*
X500Y1200D01*
X496Y1200D01*
X496Y1198D01*
X494Y1198D01*
X494Y1196D01*
X490Y1196D01*
X490Y1194D01*
X488Y1194D01*
X488Y1192D01*
X486Y1192D01*
X486Y1190D01*
X484Y1190D01*
X484Y1176D01*
X482Y1176D01*
X482Y1170D01*
X480Y1170D01*
X480Y1166D01*
X478Y1166D01*
X478Y1162D01*
X476Y1162D01*
X476Y1160D01*
X474Y1160D01*
X474Y1158D01*
X472Y1158D01*
X472Y1138D01*
X474Y1138D01*
X474Y1136D01*
X476Y1136D01*
X476Y1134D01*
X596Y1134D01*
X596Y1136D01*
X590Y1136D01*
X590Y1138D01*
X586Y1138D01*
X586Y1140D01*
X582Y1140D01*
X582Y1142D01*
X580Y1142D01*
X580Y1144D01*
X576Y1144D01*
X576Y1146D01*
X574Y1146D01*
X574Y1148D01*
X572Y1148D01*
X572Y1150D01*
X570Y1150D01*
X570Y1152D01*
X568Y1152D01*
X568Y1156D01*
X566Y1156D01*
X566Y1158D01*
X564Y1158D01*
X564Y1162D01*
X562Y1162D01*
X562Y1166D01*
X560Y1166D01*
X560Y1172D01*
X558Y1172D01*
X558Y1182D01*
X556Y1182D01*
X556Y1192D01*
X558Y1192D01*
X558Y1202D01*
X560Y1202D01*
X560Y1206D01*
X562Y1206D01*
X562Y1210D01*
X564Y1210D01*
X564Y1214D01*
X566Y1214D01*
X566Y1218D01*
X568Y1218D01*
X568Y1220D01*
X570Y1220D01*
X570Y1222D01*
X572Y1222D01*
X572Y1224D01*
X574Y1224D01*
X574Y1226D01*
X576Y1226D01*
X576Y1228D01*
X578Y1228D01*
X578Y1230D01*
X582Y1230D01*
X582Y1232D01*
X586Y1232D01*
X586Y1234D01*
X588Y1234D01*
X588Y1248D01*
X568Y1248D01*
G37*
D02*
G36*
X478Y1134D02*
X478Y1132D01*
X782Y1132D01*
X782Y1134D01*
X478Y1134D01*
G37*
D02*
G36*
X478Y1134D02*
X478Y1132D01*
X782Y1132D01*
X782Y1134D01*
X478Y1134D01*
G37*
D02*
G36*
X478Y1132D02*
X478Y1130D01*
X480Y1130D01*
X480Y1126D01*
X482Y1126D01*
X482Y1120D01*
X484Y1120D01*
X484Y1098D01*
X482Y1098D01*
X482Y1092D01*
X480Y1092D01*
X480Y1088D01*
X478Y1088D01*
X478Y1084D01*
X476Y1084D01*
X476Y1082D01*
X474Y1082D01*
X474Y1080D01*
X472Y1080D01*
X472Y1060D01*
X474Y1060D01*
X474Y1058D01*
X476Y1058D01*
X476Y1054D01*
X478Y1054D01*
X478Y1052D01*
X480Y1052D01*
X480Y1048D01*
X482Y1048D01*
X482Y1042D01*
X484Y1042D01*
X484Y1038D01*
X672Y1038D01*
X672Y1036D01*
X680Y1036D01*
X680Y1034D01*
X684Y1034D01*
X684Y1032D01*
X688Y1032D01*
X688Y1030D01*
X692Y1030D01*
X692Y1028D01*
X694Y1028D01*
X694Y1026D01*
X696Y1026D01*
X696Y1024D01*
X700Y1024D01*
X700Y1020D01*
X702Y1020D01*
X702Y1018D01*
X704Y1018D01*
X704Y1016D01*
X706Y1016D01*
X706Y1012D01*
X708Y1012D01*
X708Y1010D01*
X710Y1010D01*
X710Y1006D01*
X712Y1006D01*
X712Y1000D01*
X714Y1000D01*
X714Y990D01*
X716Y990D01*
X716Y980D01*
X714Y980D01*
X714Y970D01*
X712Y970D01*
X712Y964D01*
X710Y964D01*
X710Y960D01*
X708Y960D01*
X708Y956D01*
X706Y956D01*
X706Y954D01*
X704Y954D01*
X704Y952D01*
X702Y952D01*
X702Y948D01*
X700Y948D01*
X700Y946D01*
X698Y946D01*
X698Y944D01*
X694Y944D01*
X694Y942D01*
X692Y942D01*
X692Y940D01*
X688Y940D01*
X688Y938D01*
X684Y938D01*
X684Y936D01*
X680Y936D01*
X680Y934D01*
X674Y934D01*
X674Y932D01*
X782Y932D01*
X782Y934D01*
X778Y934D01*
X778Y936D01*
X776Y936D01*
X776Y938D01*
X774Y938D01*
X774Y940D01*
X772Y940D01*
X772Y944D01*
X770Y944D01*
X770Y946D01*
X768Y946D01*
X768Y950D01*
X766Y950D01*
X766Y954D01*
X764Y954D01*
X764Y960D01*
X762Y960D01*
X762Y978D01*
X764Y978D01*
X764Y986D01*
X766Y986D01*
X766Y990D01*
X768Y990D01*
X768Y994D01*
X770Y994D01*
X770Y996D01*
X772Y996D01*
X772Y998D01*
X774Y998D01*
X774Y1002D01*
X776Y1002D01*
X776Y1004D01*
X780Y1004D01*
X780Y1006D01*
X782Y1006D01*
X782Y1008D01*
X786Y1008D01*
X786Y1010D01*
X788Y1010D01*
X788Y1030D01*
X784Y1030D01*
X784Y1032D01*
X782Y1032D01*
X782Y1034D01*
X778Y1034D01*
X778Y1036D01*
X776Y1036D01*
X776Y1038D01*
X774Y1038D01*
X774Y1040D01*
X772Y1040D01*
X772Y1044D01*
X770Y1044D01*
X770Y1046D01*
X768Y1046D01*
X768Y1050D01*
X766Y1050D01*
X766Y1054D01*
X764Y1054D01*
X764Y1060D01*
X762Y1060D01*
X762Y1078D01*
X764Y1078D01*
X764Y1086D01*
X766Y1086D01*
X766Y1090D01*
X768Y1090D01*
X768Y1094D01*
X770Y1094D01*
X770Y1096D01*
X772Y1096D01*
X772Y1098D01*
X774Y1098D01*
X774Y1102D01*
X776Y1102D01*
X776Y1104D01*
X780Y1104D01*
X780Y1106D01*
X782Y1106D01*
X782Y1108D01*
X786Y1108D01*
X786Y1110D01*
X788Y1110D01*
X788Y1130D01*
X784Y1130D01*
X784Y1132D01*
X478Y1132D01*
G37*
D02*
G36*
X378Y1112D02*
X378Y1110D01*
X376Y1110D01*
X376Y1108D01*
X374Y1108D01*
X374Y1106D01*
X370Y1106D01*
X370Y1104D01*
X368Y1104D01*
X368Y1102D01*
X366Y1102D01*
X366Y1100D01*
X364Y1100D01*
X364Y1098D01*
X360Y1098D01*
X360Y1096D01*
X358Y1096D01*
X358Y1094D01*
X356Y1094D01*
X356Y1092D01*
X352Y1092D01*
X352Y1090D01*
X350Y1090D01*
X350Y1088D01*
X348Y1088D01*
X348Y1086D01*
X346Y1086D01*
X346Y1084D01*
X342Y1084D01*
X342Y1082D01*
X340Y1082D01*
X340Y1080D01*
X338Y1080D01*
X338Y1078D01*
X334Y1078D01*
X334Y1076D01*
X332Y1076D01*
X332Y1074D01*
X330Y1074D01*
X330Y1072D01*
X328Y1072D01*
X328Y1070D01*
X324Y1070D01*
X324Y1068D01*
X322Y1068D01*
X322Y1066D01*
X320Y1066D01*
X320Y1064D01*
X316Y1064D01*
X316Y1062D01*
X314Y1062D01*
X314Y1060D01*
X312Y1060D01*
X312Y1058D01*
X310Y1058D01*
X310Y1056D01*
X306Y1056D01*
X306Y1054D01*
X304Y1054D01*
X304Y1052D01*
X302Y1052D01*
X302Y1050D01*
X298Y1050D01*
X298Y1048D01*
X296Y1048D01*
X296Y1046D01*
X294Y1046D01*
X294Y908D01*
X430Y908D01*
X430Y910D01*
X424Y910D01*
X424Y912D01*
X420Y912D01*
X420Y914D01*
X416Y914D01*
X416Y916D01*
X414Y916D01*
X414Y918D01*
X412Y918D01*
X412Y920D01*
X410Y920D01*
X410Y922D01*
X408Y922D01*
X408Y924D01*
X406Y924D01*
X406Y926D01*
X404Y926D01*
X404Y930D01*
X402Y930D01*
X402Y934D01*
X400Y934D01*
X400Y940D01*
X398Y940D01*
X398Y962D01*
X400Y962D01*
X400Y970D01*
X402Y970D01*
X402Y972D01*
X404Y972D01*
X404Y976D01*
X406Y976D01*
X406Y978D01*
X408Y978D01*
X408Y1002D01*
X406Y1002D01*
X406Y1006D01*
X404Y1006D01*
X404Y1008D01*
X402Y1008D01*
X402Y1012D01*
X400Y1012D01*
X400Y1018D01*
X398Y1018D01*
X398Y1042D01*
X400Y1042D01*
X400Y1048D01*
X402Y1048D01*
X402Y1052D01*
X404Y1052D01*
X404Y1054D01*
X406Y1054D01*
X406Y1058D01*
X408Y1058D01*
X408Y1060D01*
X410Y1060D01*
X410Y1080D01*
X408Y1080D01*
X408Y1082D01*
X406Y1082D01*
X406Y1084D01*
X404Y1084D01*
X404Y1088D01*
X402Y1088D01*
X402Y1092D01*
X400Y1092D01*
X400Y1098D01*
X398Y1098D01*
X398Y1112D01*
X378Y1112D01*
G37*
D02*
G36*
X484Y1038D02*
X484Y1018D01*
X482Y1018D01*
X482Y1012D01*
X480Y1012D01*
X480Y1008D01*
X478Y1008D01*
X478Y1006D01*
X476Y1006D01*
X476Y1002D01*
X474Y1002D01*
X474Y978D01*
X476Y978D01*
X476Y976D01*
X478Y976D01*
X478Y972D01*
X480Y972D01*
X480Y970D01*
X482Y970D01*
X482Y962D01*
X484Y962D01*
X484Y940D01*
X482Y940D01*
X482Y934D01*
X480Y934D01*
X480Y932D01*
X650Y932D01*
X650Y934D01*
X644Y934D01*
X644Y936D01*
X640Y936D01*
X640Y938D01*
X636Y938D01*
X636Y940D01*
X632Y940D01*
X632Y942D01*
X630Y942D01*
X630Y944D01*
X626Y944D01*
X626Y946D01*
X624Y946D01*
X624Y948D01*
X622Y948D01*
X622Y952D01*
X620Y952D01*
X620Y954D01*
X618Y954D01*
X618Y956D01*
X616Y956D01*
X616Y960D01*
X614Y960D01*
X614Y964D01*
X612Y964D01*
X612Y970D01*
X610Y970D01*
X610Y980D01*
X608Y980D01*
X608Y990D01*
X610Y990D01*
X610Y1000D01*
X612Y1000D01*
X612Y1006D01*
X614Y1006D01*
X614Y1010D01*
X616Y1010D01*
X616Y1012D01*
X618Y1012D01*
X618Y1016D01*
X620Y1016D01*
X620Y1018D01*
X622Y1018D01*
X622Y1020D01*
X624Y1020D01*
X624Y1024D01*
X628Y1024D01*
X628Y1026D01*
X630Y1026D01*
X630Y1028D01*
X632Y1028D01*
X632Y1030D01*
X636Y1030D01*
X636Y1032D01*
X640Y1032D01*
X640Y1034D01*
X644Y1034D01*
X644Y1036D01*
X652Y1036D01*
X652Y1038D01*
X484Y1038D01*
G37*
D02*
G36*
X480Y932D02*
X480Y930D01*
X784Y930D01*
X784Y932D01*
X480Y932D01*
G37*
D02*
G36*
X480Y932D02*
X480Y930D01*
X784Y930D01*
X784Y932D01*
X480Y932D01*
G37*
D02*
G36*
X478Y930D02*
X478Y926D01*
X476Y926D01*
X476Y924D01*
X474Y924D01*
X474Y922D01*
X472Y922D01*
X472Y920D01*
X470Y920D01*
X470Y918D01*
X468Y918D01*
X468Y916D01*
X466Y916D01*
X466Y914D01*
X462Y914D01*
X462Y912D01*
X458Y912D01*
X458Y910D01*
X452Y910D01*
X452Y908D01*
X786Y908D01*
X786Y910D01*
X788Y910D01*
X788Y930D01*
X478Y930D01*
G37*
D02*
G36*
X294Y908D02*
X294Y906D01*
X782Y906D01*
X782Y908D01*
X294Y908D01*
G37*
D02*
G36*
X294Y908D02*
X294Y906D01*
X782Y906D01*
X782Y908D01*
X294Y908D01*
G37*
D02*
G36*
X294Y906D02*
X294Y860D01*
X512Y860D01*
X512Y858D01*
X524Y858D01*
X524Y856D01*
X530Y856D01*
X530Y854D01*
X534Y854D01*
X534Y852D01*
X538Y852D01*
X538Y850D01*
X540Y850D01*
X540Y848D01*
X544Y848D01*
X544Y846D01*
X546Y846D01*
X546Y844D01*
X548Y844D01*
X548Y840D01*
X550Y840D01*
X550Y838D01*
X552Y838D01*
X552Y836D01*
X554Y836D01*
X554Y832D01*
X556Y832D01*
X556Y826D01*
X558Y826D01*
X558Y820D01*
X560Y820D01*
X560Y800D01*
X558Y800D01*
X558Y794D01*
X556Y794D01*
X556Y788D01*
X554Y788D01*
X554Y786D01*
X552Y786D01*
X552Y782D01*
X550Y782D01*
X550Y780D01*
X548Y780D01*
X548Y776D01*
X546Y776D01*
X546Y774D01*
X542Y774D01*
X542Y772D01*
X540Y772D01*
X540Y770D01*
X538Y770D01*
X538Y768D01*
X534Y768D01*
X534Y766D01*
X530Y766D01*
X530Y764D01*
X524Y764D01*
X524Y762D01*
X762Y762D01*
X762Y778D01*
X764Y778D01*
X764Y786D01*
X766Y786D01*
X766Y790D01*
X768Y790D01*
X768Y794D01*
X770Y794D01*
X770Y796D01*
X772Y796D01*
X772Y798D01*
X774Y798D01*
X774Y802D01*
X776Y802D01*
X776Y804D01*
X780Y804D01*
X780Y806D01*
X782Y806D01*
X782Y808D01*
X786Y808D01*
X786Y810D01*
X788Y810D01*
X788Y830D01*
X784Y830D01*
X784Y832D01*
X782Y832D01*
X782Y834D01*
X778Y834D01*
X778Y836D01*
X776Y836D01*
X776Y838D01*
X774Y838D01*
X774Y840D01*
X772Y840D01*
X772Y844D01*
X770Y844D01*
X770Y846D01*
X768Y846D01*
X768Y850D01*
X766Y850D01*
X766Y854D01*
X764Y854D01*
X764Y860D01*
X762Y860D01*
X762Y878D01*
X764Y878D01*
X764Y886D01*
X766Y886D01*
X766Y890D01*
X768Y890D01*
X768Y894D01*
X770Y894D01*
X770Y896D01*
X772Y896D01*
X772Y898D01*
X774Y898D01*
X774Y902D01*
X776Y902D01*
X776Y904D01*
X780Y904D01*
X780Y906D01*
X294Y906D01*
G37*
D02*
G36*
X294Y860D02*
X294Y858D01*
X366Y858D01*
X366Y856D01*
X372Y856D01*
X372Y854D01*
X376Y854D01*
X376Y852D01*
X380Y852D01*
X380Y850D01*
X382Y850D01*
X382Y848D01*
X386Y848D01*
X386Y846D01*
X388Y846D01*
X388Y844D01*
X390Y844D01*
X390Y842D01*
X392Y842D01*
X392Y838D01*
X394Y838D01*
X394Y836D01*
X396Y836D01*
X396Y832D01*
X398Y832D01*
X398Y828D01*
X400Y828D01*
X400Y822D01*
X402Y822D01*
X402Y798D01*
X400Y798D01*
X400Y792D01*
X398Y792D01*
X398Y788D01*
X396Y788D01*
X396Y784D01*
X394Y784D01*
X394Y780D01*
X392Y780D01*
X392Y778D01*
X390Y778D01*
X390Y776D01*
X388Y776D01*
X388Y774D01*
X386Y774D01*
X386Y772D01*
X384Y772D01*
X384Y770D01*
X380Y770D01*
X380Y768D01*
X378Y768D01*
X378Y766D01*
X374Y766D01*
X374Y764D01*
X368Y764D01*
X368Y762D01*
X498Y762D01*
X498Y764D01*
X492Y764D01*
X492Y766D01*
X488Y766D01*
X488Y768D01*
X484Y768D01*
X484Y770D01*
X482Y770D01*
X482Y772D01*
X480Y772D01*
X480Y774D01*
X478Y774D01*
X478Y776D01*
X476Y776D01*
X476Y778D01*
X474Y778D01*
X474Y780D01*
X472Y780D01*
X472Y782D01*
X470Y782D01*
X470Y786D01*
X468Y786D01*
X468Y790D01*
X466Y790D01*
X466Y794D01*
X464Y794D01*
X464Y802D01*
X462Y802D01*
X462Y818D01*
X464Y818D01*
X464Y826D01*
X466Y826D01*
X466Y830D01*
X468Y830D01*
X468Y834D01*
X470Y834D01*
X470Y838D01*
X472Y838D01*
X472Y840D01*
X474Y840D01*
X474Y842D01*
X476Y842D01*
X476Y846D01*
X480Y846D01*
X480Y848D01*
X482Y848D01*
X482Y850D01*
X484Y850D01*
X484Y852D01*
X488Y852D01*
X488Y854D01*
X492Y854D01*
X492Y856D01*
X498Y856D01*
X498Y858D01*
X510Y858D01*
X510Y860D01*
X294Y860D01*
G37*
D02*
G36*
X294Y858D02*
X294Y836D01*
X314Y836D01*
X314Y840D01*
X316Y840D01*
X316Y842D01*
X318Y842D01*
X318Y844D01*
X320Y844D01*
X320Y846D01*
X322Y846D01*
X322Y848D01*
X324Y848D01*
X324Y850D01*
X328Y850D01*
X328Y852D01*
X332Y852D01*
X332Y854D01*
X336Y854D01*
X336Y856D01*
X342Y856D01*
X342Y858D01*
X294Y858D01*
G37*
D02*
G36*
X294Y782D02*
X294Y760D01*
X350Y760D01*
X350Y762D01*
X340Y762D01*
X340Y764D01*
X334Y764D01*
X334Y766D01*
X330Y766D01*
X330Y768D01*
X326Y768D01*
X326Y770D01*
X324Y770D01*
X324Y772D01*
X322Y772D01*
X322Y774D01*
X320Y774D01*
X320Y776D01*
X318Y776D01*
X318Y778D01*
X316Y778D01*
X316Y780D01*
X314Y780D01*
X314Y782D01*
X294Y782D01*
G37*
D02*
G36*
X358Y762D02*
X358Y760D01*
X762Y760D01*
X762Y762D01*
X358Y762D01*
G37*
D02*
G36*
X358Y762D02*
X358Y760D01*
X762Y760D01*
X762Y762D01*
X358Y762D01*
G37*
D02*
G36*
X294Y760D02*
X294Y758D01*
X764Y758D01*
X764Y760D01*
X294Y760D01*
G37*
D02*
G36*
X294Y760D02*
X294Y758D01*
X764Y758D01*
X764Y760D01*
X294Y760D01*
G37*
D02*
G36*
X294Y758D02*
X294Y748D01*
X298Y748D01*
X298Y746D01*
X306Y746D01*
X306Y744D01*
X312Y744D01*
X312Y742D01*
X318Y742D01*
X318Y740D01*
X324Y740D01*
X324Y738D01*
X332Y738D01*
X332Y736D01*
X338Y736D01*
X338Y734D01*
X344Y734D01*
X344Y732D01*
X352Y732D01*
X352Y730D01*
X358Y730D01*
X358Y728D01*
X364Y728D01*
X364Y726D01*
X370Y726D01*
X370Y724D01*
X378Y724D01*
X378Y722D01*
X384Y722D01*
X384Y720D01*
X390Y720D01*
X390Y718D01*
X398Y718D01*
X398Y716D01*
X404Y716D01*
X404Y714D01*
X410Y714D01*
X410Y712D01*
X418Y712D01*
X418Y710D01*
X424Y710D01*
X424Y708D01*
X430Y708D01*
X430Y706D01*
X436Y706D01*
X436Y704D01*
X444Y704D01*
X444Y702D01*
X450Y702D01*
X450Y700D01*
X456Y700D01*
X456Y698D01*
X464Y698D01*
X464Y696D01*
X470Y696D01*
X470Y694D01*
X476Y694D01*
X476Y692D01*
X484Y692D01*
X484Y690D01*
X490Y690D01*
X490Y688D01*
X496Y688D01*
X496Y686D01*
X502Y686D01*
X502Y684D01*
X510Y684D01*
X510Y682D01*
X516Y682D01*
X516Y680D01*
X522Y680D01*
X522Y678D01*
X530Y678D01*
X530Y676D01*
X536Y676D01*
X536Y674D01*
X542Y674D01*
X542Y672D01*
X550Y672D01*
X550Y670D01*
X556Y670D01*
X556Y668D01*
X562Y668D01*
X562Y666D01*
X568Y666D01*
X568Y664D01*
X576Y664D01*
X576Y662D01*
X582Y662D01*
X582Y660D01*
X588Y660D01*
X588Y658D01*
X596Y658D01*
X596Y656D01*
X602Y656D01*
X602Y654D01*
X608Y654D01*
X608Y652D01*
X616Y652D01*
X616Y650D01*
X622Y650D01*
X622Y648D01*
X628Y648D01*
X628Y646D01*
X634Y646D01*
X634Y644D01*
X642Y644D01*
X642Y642D01*
X648Y642D01*
X648Y640D01*
X654Y640D01*
X654Y638D01*
X662Y638D01*
X662Y636D01*
X668Y636D01*
X668Y634D01*
X674Y634D01*
X674Y632D01*
X682Y632D01*
X682Y630D01*
X688Y630D01*
X688Y628D01*
X694Y628D01*
X694Y626D01*
X700Y626D01*
X700Y624D01*
X708Y624D01*
X708Y622D01*
X714Y622D01*
X714Y620D01*
X720Y620D01*
X720Y618D01*
X728Y618D01*
X728Y616D01*
X734Y616D01*
X734Y614D01*
X740Y614D01*
X740Y612D01*
X748Y612D01*
X748Y610D01*
X754Y610D01*
X754Y608D01*
X760Y608D01*
X760Y606D01*
X782Y606D01*
X782Y608D01*
X786Y608D01*
X786Y610D01*
X788Y610D01*
X788Y630D01*
X784Y630D01*
X784Y632D01*
X782Y632D01*
X782Y634D01*
X778Y634D01*
X778Y636D01*
X776Y636D01*
X776Y638D01*
X774Y638D01*
X774Y640D01*
X772Y640D01*
X772Y644D01*
X770Y644D01*
X770Y646D01*
X768Y646D01*
X768Y650D01*
X766Y650D01*
X766Y654D01*
X764Y654D01*
X764Y660D01*
X762Y660D01*
X762Y678D01*
X764Y678D01*
X764Y686D01*
X766Y686D01*
X766Y690D01*
X768Y690D01*
X768Y694D01*
X770Y694D01*
X770Y696D01*
X772Y696D01*
X772Y698D01*
X774Y698D01*
X774Y702D01*
X776Y702D01*
X776Y704D01*
X780Y704D01*
X780Y706D01*
X782Y706D01*
X782Y708D01*
X786Y708D01*
X786Y710D01*
X788Y710D01*
X788Y730D01*
X784Y730D01*
X784Y732D01*
X782Y732D01*
X782Y734D01*
X778Y734D01*
X778Y736D01*
X776Y736D01*
X776Y738D01*
X774Y738D01*
X774Y740D01*
X772Y740D01*
X772Y744D01*
X770Y744D01*
X770Y746D01*
X768Y746D01*
X768Y750D01*
X766Y750D01*
X766Y754D01*
X764Y754D01*
X764Y758D01*
X294Y758D01*
G37*
D02*
G36*
X704Y1866D02*
X704Y1846D01*
X706Y1846D01*
X706Y1842D01*
X708Y1842D01*
X708Y1836D01*
X710Y1836D01*
X710Y1810D01*
X708Y1810D01*
X708Y1804D01*
X706Y1804D01*
X706Y1800D01*
X704Y1800D01*
X704Y1796D01*
X702Y1796D01*
X702Y1794D01*
X700Y1794D01*
X700Y1792D01*
X698Y1792D01*
X698Y1790D01*
X696Y1790D01*
X696Y1788D01*
X694Y1788D01*
X694Y1786D01*
X692Y1786D01*
X692Y1784D01*
X690Y1784D01*
X690Y1782D01*
X686Y1782D01*
X686Y1780D01*
X682Y1780D01*
X682Y1778D01*
X678Y1778D01*
X678Y1776D01*
X670Y1776D01*
X670Y1774D01*
X664Y1774D01*
X664Y1770D01*
X788Y1770D01*
X788Y1772D01*
X782Y1772D01*
X782Y1774D01*
X776Y1774D01*
X776Y1776D01*
X772Y1776D01*
X772Y1778D01*
X770Y1778D01*
X770Y1780D01*
X766Y1780D01*
X766Y1782D01*
X764Y1782D01*
X764Y1784D01*
X762Y1784D01*
X762Y1786D01*
X760Y1786D01*
X760Y1788D01*
X758Y1788D01*
X758Y1790D01*
X756Y1790D01*
X756Y1792D01*
X754Y1792D01*
X754Y1796D01*
X752Y1796D01*
X752Y1800D01*
X750Y1800D01*
X750Y1804D01*
X748Y1804D01*
X748Y1810D01*
X746Y1810D01*
X746Y1836D01*
X748Y1836D01*
X748Y1842D01*
X750Y1842D01*
X750Y1846D01*
X752Y1846D01*
X752Y1866D01*
X704Y1866D01*
G37*
D02*
G36*
X846Y1866D02*
X846Y1844D01*
X848Y1844D01*
X848Y1840D01*
X850Y1840D01*
X850Y1832D01*
X852Y1832D01*
X852Y1814D01*
X850Y1814D01*
X850Y1806D01*
X848Y1806D01*
X848Y1802D01*
X846Y1802D01*
X846Y1798D01*
X844Y1798D01*
X844Y1794D01*
X842Y1794D01*
X842Y1792D01*
X840Y1792D01*
X840Y1790D01*
X838Y1790D01*
X838Y1786D01*
X836Y1786D01*
X836Y1784D01*
X832Y1784D01*
X832Y1782D01*
X830Y1782D01*
X830Y1780D01*
X828Y1780D01*
X828Y1778D01*
X824Y1778D01*
X824Y1776D01*
X820Y1776D01*
X820Y1774D01*
X816Y1774D01*
X816Y1772D01*
X808Y1772D01*
X808Y1770D01*
X904Y1770D01*
X904Y1772D01*
X902Y1772D01*
X902Y1774D01*
X900Y1774D01*
X900Y1776D01*
X898Y1776D01*
X898Y1778D01*
X896Y1778D01*
X896Y1780D01*
X894Y1780D01*
X894Y1784D01*
X892Y1784D01*
X892Y1788D01*
X890Y1788D01*
X890Y1792D01*
X888Y1792D01*
X888Y1798D01*
X886Y1798D01*
X886Y1818D01*
X888Y1818D01*
X888Y1824D01*
X890Y1824D01*
X890Y1830D01*
X892Y1830D01*
X892Y1834D01*
X894Y1834D01*
X894Y1836D01*
X896Y1836D01*
X896Y1838D01*
X898Y1838D01*
X898Y1842D01*
X900Y1842D01*
X900Y1844D01*
X902Y1844D01*
X902Y1846D01*
X906Y1846D01*
X906Y1866D01*
X846Y1866D01*
G37*
D02*
G36*
X664Y1770D02*
X664Y1768D01*
X906Y1768D01*
X906Y1770D01*
X664Y1770D01*
G37*
D02*
G36*
X664Y1770D02*
X664Y1768D01*
X906Y1768D01*
X906Y1770D01*
X664Y1770D01*
G37*
D02*
G36*
X664Y1768D02*
X664Y1754D01*
X666Y1754D01*
X666Y1752D01*
X668Y1752D01*
X668Y1748D01*
X670Y1748D01*
X670Y1742D01*
X672Y1742D01*
X672Y1736D01*
X674Y1736D01*
X674Y1710D01*
X676Y1710D01*
X676Y1708D01*
X680Y1708D01*
X680Y1706D01*
X682Y1706D01*
X682Y1704D01*
X684Y1704D01*
X684Y1702D01*
X686Y1702D01*
X686Y1700D01*
X688Y1700D01*
X688Y1698D01*
X692Y1698D01*
X692Y1696D01*
X694Y1696D01*
X694Y1694D01*
X696Y1694D01*
X696Y1692D01*
X698Y1692D01*
X698Y1690D01*
X700Y1690D01*
X700Y1688D01*
X702Y1688D01*
X702Y1686D01*
X706Y1686D01*
X706Y1684D01*
X708Y1684D01*
X708Y1682D01*
X710Y1682D01*
X710Y1680D01*
X712Y1680D01*
X712Y1678D01*
X714Y1678D01*
X714Y1676D01*
X716Y1676D01*
X716Y1674D01*
X720Y1674D01*
X720Y1672D01*
X722Y1672D01*
X722Y1670D01*
X724Y1670D01*
X724Y1668D01*
X726Y1668D01*
X726Y1666D01*
X728Y1666D01*
X728Y1664D01*
X732Y1664D01*
X732Y1662D01*
X734Y1662D01*
X734Y1660D01*
X736Y1660D01*
X736Y1658D01*
X738Y1658D01*
X738Y1656D01*
X740Y1656D01*
X740Y1654D01*
X742Y1654D01*
X742Y1652D01*
X746Y1652D01*
X746Y1650D01*
X748Y1650D01*
X748Y1648D01*
X750Y1648D01*
X750Y1646D01*
X752Y1646D01*
X752Y1644D01*
X754Y1644D01*
X754Y1642D01*
X758Y1642D01*
X758Y1640D01*
X760Y1640D01*
X760Y1638D01*
X762Y1638D01*
X762Y1636D01*
X764Y1636D01*
X764Y1634D01*
X766Y1634D01*
X766Y1632D01*
X768Y1632D01*
X768Y1630D01*
X772Y1630D01*
X772Y1628D01*
X774Y1628D01*
X774Y1626D01*
X776Y1626D01*
X776Y1624D01*
X778Y1624D01*
X778Y1622D01*
X780Y1622D01*
X780Y1620D01*
X784Y1620D01*
X784Y1618D01*
X786Y1618D01*
X786Y1616D01*
X788Y1616D01*
X788Y1614D01*
X818Y1614D01*
X818Y1612D01*
X824Y1612D01*
X824Y1610D01*
X828Y1610D01*
X828Y1608D01*
X832Y1608D01*
X832Y1606D01*
X834Y1606D01*
X834Y1604D01*
X838Y1604D01*
X838Y1602D01*
X840Y1602D01*
X840Y1598D01*
X842Y1598D01*
X842Y1596D01*
X844Y1596D01*
X844Y1594D01*
X846Y1594D01*
X846Y1590D01*
X848Y1590D01*
X848Y1586D01*
X850Y1586D01*
X850Y1578D01*
X852Y1578D01*
X852Y1560D01*
X850Y1560D01*
X850Y1554D01*
X848Y1554D01*
X848Y1550D01*
X846Y1550D01*
X846Y1546D01*
X844Y1546D01*
X844Y1544D01*
X842Y1544D01*
X842Y1540D01*
X840Y1540D01*
X840Y1538D01*
X838Y1538D01*
X838Y1536D01*
X836Y1536D01*
X836Y1534D01*
X832Y1534D01*
X832Y1532D01*
X830Y1532D01*
X830Y1530D01*
X826Y1530D01*
X826Y1510D01*
X828Y1510D01*
X828Y1508D01*
X832Y1508D01*
X832Y1506D01*
X834Y1506D01*
X834Y1504D01*
X838Y1504D01*
X838Y1502D01*
X840Y1502D01*
X840Y1498D01*
X842Y1498D01*
X842Y1496D01*
X844Y1496D01*
X844Y1494D01*
X846Y1494D01*
X846Y1490D01*
X848Y1490D01*
X848Y1486D01*
X850Y1486D01*
X850Y1478D01*
X852Y1478D01*
X852Y1460D01*
X850Y1460D01*
X850Y1454D01*
X848Y1454D01*
X848Y1450D01*
X846Y1450D01*
X846Y1446D01*
X844Y1446D01*
X844Y1444D01*
X842Y1444D01*
X842Y1440D01*
X840Y1440D01*
X840Y1438D01*
X838Y1438D01*
X838Y1436D01*
X836Y1436D01*
X836Y1434D01*
X832Y1434D01*
X832Y1432D01*
X830Y1432D01*
X830Y1430D01*
X826Y1430D01*
X826Y1410D01*
X828Y1410D01*
X828Y1408D01*
X832Y1408D01*
X832Y1406D01*
X834Y1406D01*
X834Y1404D01*
X838Y1404D01*
X838Y1402D01*
X840Y1402D01*
X840Y1398D01*
X842Y1398D01*
X842Y1396D01*
X844Y1396D01*
X844Y1394D01*
X846Y1394D01*
X846Y1390D01*
X848Y1390D01*
X848Y1386D01*
X850Y1386D01*
X850Y1378D01*
X852Y1378D01*
X852Y1360D01*
X850Y1360D01*
X850Y1354D01*
X848Y1354D01*
X848Y1350D01*
X846Y1350D01*
X846Y1346D01*
X844Y1346D01*
X844Y1344D01*
X842Y1344D01*
X842Y1340D01*
X840Y1340D01*
X840Y1338D01*
X838Y1338D01*
X838Y1336D01*
X836Y1336D01*
X836Y1334D01*
X832Y1334D01*
X832Y1332D01*
X830Y1332D01*
X830Y1330D01*
X826Y1330D01*
X826Y1310D01*
X828Y1310D01*
X828Y1308D01*
X832Y1308D01*
X832Y1306D01*
X834Y1306D01*
X834Y1304D01*
X838Y1304D01*
X838Y1302D01*
X840Y1302D01*
X840Y1298D01*
X842Y1298D01*
X842Y1296D01*
X844Y1296D01*
X844Y1294D01*
X846Y1294D01*
X846Y1290D01*
X848Y1290D01*
X848Y1286D01*
X850Y1286D01*
X850Y1278D01*
X852Y1278D01*
X852Y1260D01*
X850Y1260D01*
X850Y1254D01*
X848Y1254D01*
X848Y1250D01*
X846Y1250D01*
X846Y1246D01*
X844Y1246D01*
X844Y1244D01*
X842Y1244D01*
X842Y1240D01*
X840Y1240D01*
X840Y1238D01*
X838Y1238D01*
X838Y1236D01*
X836Y1236D01*
X836Y1234D01*
X832Y1234D01*
X832Y1232D01*
X830Y1232D01*
X830Y1230D01*
X826Y1230D01*
X826Y1210D01*
X828Y1210D01*
X828Y1208D01*
X832Y1208D01*
X832Y1206D01*
X834Y1206D01*
X834Y1204D01*
X838Y1204D01*
X838Y1202D01*
X840Y1202D01*
X840Y1198D01*
X842Y1198D01*
X842Y1196D01*
X844Y1196D01*
X844Y1194D01*
X846Y1194D01*
X846Y1190D01*
X848Y1190D01*
X848Y1186D01*
X850Y1186D01*
X850Y1178D01*
X852Y1178D01*
X852Y1160D01*
X850Y1160D01*
X850Y1154D01*
X848Y1154D01*
X848Y1150D01*
X846Y1150D01*
X846Y1146D01*
X844Y1146D01*
X844Y1144D01*
X842Y1144D01*
X842Y1140D01*
X840Y1140D01*
X840Y1138D01*
X838Y1138D01*
X838Y1136D01*
X836Y1136D01*
X836Y1134D01*
X832Y1134D01*
X832Y1132D01*
X830Y1132D01*
X830Y1130D01*
X826Y1130D01*
X826Y1110D01*
X828Y1110D01*
X828Y1108D01*
X832Y1108D01*
X832Y1106D01*
X834Y1106D01*
X834Y1104D01*
X838Y1104D01*
X838Y1102D01*
X840Y1102D01*
X840Y1098D01*
X842Y1098D01*
X842Y1096D01*
X844Y1096D01*
X844Y1094D01*
X846Y1094D01*
X846Y1090D01*
X848Y1090D01*
X848Y1086D01*
X850Y1086D01*
X850Y1078D01*
X852Y1078D01*
X852Y1060D01*
X850Y1060D01*
X850Y1054D01*
X848Y1054D01*
X848Y1050D01*
X846Y1050D01*
X846Y1046D01*
X844Y1046D01*
X844Y1044D01*
X842Y1044D01*
X842Y1040D01*
X840Y1040D01*
X840Y1038D01*
X838Y1038D01*
X838Y1036D01*
X836Y1036D01*
X836Y1034D01*
X832Y1034D01*
X832Y1032D01*
X830Y1032D01*
X830Y1030D01*
X826Y1030D01*
X826Y1010D01*
X828Y1010D01*
X828Y1008D01*
X832Y1008D01*
X832Y1006D01*
X834Y1006D01*
X834Y1004D01*
X838Y1004D01*
X838Y1002D01*
X840Y1002D01*
X840Y998D01*
X842Y998D01*
X842Y996D01*
X844Y996D01*
X844Y994D01*
X846Y994D01*
X846Y990D01*
X848Y990D01*
X848Y986D01*
X850Y986D01*
X850Y978D01*
X852Y978D01*
X852Y960D01*
X850Y960D01*
X850Y954D01*
X848Y954D01*
X848Y950D01*
X846Y950D01*
X846Y946D01*
X844Y946D01*
X844Y944D01*
X842Y944D01*
X842Y940D01*
X840Y940D01*
X840Y938D01*
X838Y938D01*
X838Y936D01*
X836Y936D01*
X836Y934D01*
X832Y934D01*
X832Y932D01*
X830Y932D01*
X830Y930D01*
X826Y930D01*
X826Y910D01*
X828Y910D01*
X828Y908D01*
X832Y908D01*
X832Y906D01*
X834Y906D01*
X834Y904D01*
X838Y904D01*
X838Y902D01*
X840Y902D01*
X840Y898D01*
X842Y898D01*
X842Y896D01*
X844Y896D01*
X844Y894D01*
X846Y894D01*
X846Y890D01*
X848Y890D01*
X848Y886D01*
X850Y886D01*
X850Y878D01*
X852Y878D01*
X852Y860D01*
X850Y860D01*
X850Y854D01*
X848Y854D01*
X848Y850D01*
X846Y850D01*
X846Y846D01*
X844Y846D01*
X844Y844D01*
X842Y844D01*
X842Y840D01*
X840Y840D01*
X840Y838D01*
X838Y838D01*
X838Y836D01*
X836Y836D01*
X836Y834D01*
X832Y834D01*
X832Y832D01*
X830Y832D01*
X830Y830D01*
X826Y830D01*
X826Y810D01*
X828Y810D01*
X828Y808D01*
X832Y808D01*
X832Y806D01*
X834Y806D01*
X834Y804D01*
X838Y804D01*
X838Y802D01*
X840Y802D01*
X840Y798D01*
X842Y798D01*
X842Y796D01*
X844Y796D01*
X844Y794D01*
X846Y794D01*
X846Y790D01*
X848Y790D01*
X848Y786D01*
X850Y786D01*
X850Y778D01*
X852Y778D01*
X852Y760D01*
X850Y760D01*
X850Y754D01*
X848Y754D01*
X848Y750D01*
X846Y750D01*
X846Y746D01*
X844Y746D01*
X844Y744D01*
X842Y744D01*
X842Y740D01*
X840Y740D01*
X840Y738D01*
X838Y738D01*
X838Y736D01*
X836Y736D01*
X836Y734D01*
X832Y734D01*
X832Y732D01*
X830Y732D01*
X830Y730D01*
X826Y730D01*
X826Y710D01*
X828Y710D01*
X828Y708D01*
X832Y708D01*
X832Y706D01*
X834Y706D01*
X834Y704D01*
X838Y704D01*
X838Y702D01*
X840Y702D01*
X840Y698D01*
X842Y698D01*
X842Y696D01*
X844Y696D01*
X844Y694D01*
X846Y694D01*
X846Y690D01*
X848Y690D01*
X848Y686D01*
X850Y686D01*
X850Y678D01*
X852Y678D01*
X852Y660D01*
X850Y660D01*
X850Y654D01*
X848Y654D01*
X848Y650D01*
X846Y650D01*
X846Y646D01*
X844Y646D01*
X844Y644D01*
X842Y644D01*
X842Y640D01*
X840Y640D01*
X840Y638D01*
X838Y638D01*
X838Y636D01*
X836Y636D01*
X836Y634D01*
X832Y634D01*
X832Y632D01*
X830Y632D01*
X830Y630D01*
X826Y630D01*
X826Y610D01*
X828Y610D01*
X828Y608D01*
X832Y608D01*
X832Y606D01*
X834Y606D01*
X834Y604D01*
X838Y604D01*
X838Y602D01*
X840Y602D01*
X840Y598D01*
X842Y598D01*
X842Y596D01*
X844Y596D01*
X844Y594D01*
X846Y594D01*
X846Y590D01*
X848Y590D01*
X848Y586D01*
X850Y586D01*
X850Y578D01*
X852Y578D01*
X852Y560D01*
X850Y560D01*
X850Y554D01*
X848Y554D01*
X848Y550D01*
X846Y550D01*
X846Y546D01*
X844Y546D01*
X844Y544D01*
X842Y544D01*
X842Y540D01*
X840Y540D01*
X840Y538D01*
X838Y538D01*
X838Y536D01*
X836Y536D01*
X836Y534D01*
X832Y534D01*
X832Y532D01*
X830Y532D01*
X830Y530D01*
X826Y530D01*
X826Y510D01*
X828Y510D01*
X828Y508D01*
X832Y508D01*
X832Y506D01*
X834Y506D01*
X834Y504D01*
X838Y504D01*
X838Y502D01*
X840Y502D01*
X840Y498D01*
X842Y498D01*
X842Y496D01*
X844Y496D01*
X844Y494D01*
X846Y494D01*
X846Y490D01*
X848Y490D01*
X848Y486D01*
X850Y486D01*
X850Y478D01*
X852Y478D01*
X852Y460D01*
X850Y460D01*
X850Y454D01*
X848Y454D01*
X848Y450D01*
X846Y450D01*
X846Y446D01*
X844Y446D01*
X844Y444D01*
X842Y444D01*
X842Y440D01*
X840Y440D01*
X840Y438D01*
X838Y438D01*
X838Y436D01*
X836Y436D01*
X836Y434D01*
X832Y434D01*
X832Y432D01*
X830Y432D01*
X830Y430D01*
X826Y430D01*
X826Y410D01*
X828Y410D01*
X828Y408D01*
X832Y408D01*
X832Y406D01*
X834Y406D01*
X834Y404D01*
X838Y404D01*
X838Y402D01*
X840Y402D01*
X840Y398D01*
X842Y398D01*
X842Y396D01*
X844Y396D01*
X844Y394D01*
X846Y394D01*
X846Y390D01*
X848Y390D01*
X848Y386D01*
X850Y386D01*
X850Y378D01*
X852Y378D01*
X852Y360D01*
X850Y360D01*
X850Y354D01*
X848Y354D01*
X848Y350D01*
X846Y350D01*
X846Y346D01*
X844Y346D01*
X844Y344D01*
X842Y344D01*
X842Y340D01*
X840Y340D01*
X840Y338D01*
X838Y338D01*
X838Y336D01*
X836Y336D01*
X836Y334D01*
X832Y334D01*
X832Y332D01*
X830Y332D01*
X830Y330D01*
X826Y330D01*
X826Y310D01*
X828Y310D01*
X828Y308D01*
X832Y308D01*
X832Y306D01*
X834Y306D01*
X834Y304D01*
X838Y304D01*
X838Y302D01*
X840Y302D01*
X840Y298D01*
X842Y298D01*
X842Y296D01*
X844Y296D01*
X844Y294D01*
X846Y294D01*
X846Y290D01*
X848Y290D01*
X848Y286D01*
X850Y286D01*
X850Y278D01*
X852Y278D01*
X852Y260D01*
X850Y260D01*
X850Y254D01*
X848Y254D01*
X848Y250D01*
X846Y250D01*
X846Y246D01*
X844Y246D01*
X844Y244D01*
X842Y244D01*
X842Y240D01*
X840Y240D01*
X840Y238D01*
X838Y238D01*
X838Y236D01*
X836Y236D01*
X836Y234D01*
X832Y234D01*
X832Y214D01*
X852Y214D01*
X852Y124D01*
X890Y124D01*
X890Y130D01*
X892Y130D01*
X892Y134D01*
X894Y134D01*
X894Y136D01*
X896Y136D01*
X896Y138D01*
X898Y138D01*
X898Y142D01*
X900Y142D01*
X900Y144D01*
X902Y144D01*
X902Y146D01*
X906Y146D01*
X906Y148D01*
X908Y148D01*
X908Y168D01*
X906Y168D01*
X906Y170D01*
X904Y170D01*
X904Y172D01*
X902Y172D01*
X902Y174D01*
X900Y174D01*
X900Y176D01*
X898Y176D01*
X898Y178D01*
X896Y178D01*
X896Y180D01*
X894Y180D01*
X894Y184D01*
X892Y184D01*
X892Y188D01*
X890Y188D01*
X890Y192D01*
X888Y192D01*
X888Y198D01*
X886Y198D01*
X886Y218D01*
X888Y218D01*
X888Y224D01*
X890Y224D01*
X890Y230D01*
X892Y230D01*
X892Y234D01*
X894Y234D01*
X894Y236D01*
X896Y236D01*
X896Y238D01*
X898Y238D01*
X898Y242D01*
X900Y242D01*
X900Y244D01*
X902Y244D01*
X902Y246D01*
X906Y246D01*
X906Y248D01*
X908Y248D01*
X908Y268D01*
X906Y268D01*
X906Y270D01*
X904Y270D01*
X904Y272D01*
X902Y272D01*
X902Y274D01*
X900Y274D01*
X900Y276D01*
X898Y276D01*
X898Y278D01*
X896Y278D01*
X896Y280D01*
X894Y280D01*
X894Y284D01*
X892Y284D01*
X892Y288D01*
X890Y288D01*
X890Y292D01*
X888Y292D01*
X888Y298D01*
X886Y298D01*
X886Y318D01*
X888Y318D01*
X888Y324D01*
X890Y324D01*
X890Y330D01*
X892Y330D01*
X892Y334D01*
X894Y334D01*
X894Y336D01*
X896Y336D01*
X896Y338D01*
X898Y338D01*
X898Y342D01*
X900Y342D01*
X900Y344D01*
X902Y344D01*
X902Y346D01*
X906Y346D01*
X906Y348D01*
X908Y348D01*
X908Y368D01*
X906Y368D01*
X906Y370D01*
X904Y370D01*
X904Y372D01*
X902Y372D01*
X902Y374D01*
X900Y374D01*
X900Y376D01*
X898Y376D01*
X898Y378D01*
X896Y378D01*
X896Y380D01*
X894Y380D01*
X894Y384D01*
X892Y384D01*
X892Y388D01*
X890Y388D01*
X890Y392D01*
X888Y392D01*
X888Y398D01*
X886Y398D01*
X886Y418D01*
X888Y418D01*
X888Y424D01*
X890Y424D01*
X890Y430D01*
X892Y430D01*
X892Y434D01*
X894Y434D01*
X894Y436D01*
X896Y436D01*
X896Y438D01*
X898Y438D01*
X898Y442D01*
X900Y442D01*
X900Y444D01*
X902Y444D01*
X902Y446D01*
X906Y446D01*
X906Y448D01*
X908Y448D01*
X908Y468D01*
X906Y468D01*
X906Y470D01*
X904Y470D01*
X904Y472D01*
X902Y472D01*
X902Y474D01*
X900Y474D01*
X900Y476D01*
X898Y476D01*
X898Y478D01*
X896Y478D01*
X896Y480D01*
X894Y480D01*
X894Y484D01*
X892Y484D01*
X892Y488D01*
X890Y488D01*
X890Y492D01*
X888Y492D01*
X888Y498D01*
X886Y498D01*
X886Y518D01*
X888Y518D01*
X888Y524D01*
X890Y524D01*
X890Y530D01*
X892Y530D01*
X892Y534D01*
X894Y534D01*
X894Y536D01*
X896Y536D01*
X896Y538D01*
X898Y538D01*
X898Y542D01*
X900Y542D01*
X900Y544D01*
X902Y544D01*
X902Y546D01*
X906Y546D01*
X906Y548D01*
X908Y548D01*
X908Y568D01*
X906Y568D01*
X906Y570D01*
X904Y570D01*
X904Y572D01*
X902Y572D01*
X902Y574D01*
X900Y574D01*
X900Y576D01*
X898Y576D01*
X898Y578D01*
X896Y578D01*
X896Y580D01*
X894Y580D01*
X894Y584D01*
X892Y584D01*
X892Y588D01*
X890Y588D01*
X890Y592D01*
X888Y592D01*
X888Y598D01*
X886Y598D01*
X886Y618D01*
X888Y618D01*
X888Y624D01*
X890Y624D01*
X890Y630D01*
X892Y630D01*
X892Y634D01*
X894Y634D01*
X894Y636D01*
X896Y636D01*
X896Y638D01*
X898Y638D01*
X898Y642D01*
X900Y642D01*
X900Y644D01*
X902Y644D01*
X902Y646D01*
X906Y646D01*
X906Y648D01*
X908Y648D01*
X908Y668D01*
X906Y668D01*
X906Y670D01*
X904Y670D01*
X904Y672D01*
X902Y672D01*
X902Y674D01*
X900Y674D01*
X900Y676D01*
X898Y676D01*
X898Y678D01*
X896Y678D01*
X896Y680D01*
X894Y680D01*
X894Y684D01*
X892Y684D01*
X892Y688D01*
X890Y688D01*
X890Y692D01*
X888Y692D01*
X888Y698D01*
X886Y698D01*
X886Y718D01*
X888Y718D01*
X888Y724D01*
X890Y724D01*
X890Y730D01*
X892Y730D01*
X892Y734D01*
X894Y734D01*
X894Y736D01*
X896Y736D01*
X896Y738D01*
X898Y738D01*
X898Y742D01*
X900Y742D01*
X900Y744D01*
X902Y744D01*
X902Y746D01*
X906Y746D01*
X906Y748D01*
X908Y748D01*
X908Y768D01*
X906Y768D01*
X906Y770D01*
X904Y770D01*
X904Y772D01*
X902Y772D01*
X902Y774D01*
X900Y774D01*
X900Y776D01*
X898Y776D01*
X898Y778D01*
X896Y778D01*
X896Y780D01*
X894Y780D01*
X894Y784D01*
X892Y784D01*
X892Y788D01*
X890Y788D01*
X890Y792D01*
X888Y792D01*
X888Y798D01*
X886Y798D01*
X886Y818D01*
X888Y818D01*
X888Y824D01*
X890Y824D01*
X890Y830D01*
X892Y830D01*
X892Y834D01*
X894Y834D01*
X894Y836D01*
X896Y836D01*
X896Y838D01*
X898Y838D01*
X898Y842D01*
X900Y842D01*
X900Y844D01*
X902Y844D01*
X902Y846D01*
X906Y846D01*
X906Y848D01*
X908Y848D01*
X908Y868D01*
X906Y868D01*
X906Y870D01*
X904Y870D01*
X904Y872D01*
X902Y872D01*
X902Y874D01*
X900Y874D01*
X900Y876D01*
X898Y876D01*
X898Y878D01*
X896Y878D01*
X896Y880D01*
X894Y880D01*
X894Y884D01*
X892Y884D01*
X892Y888D01*
X890Y888D01*
X890Y892D01*
X888Y892D01*
X888Y898D01*
X886Y898D01*
X886Y918D01*
X888Y918D01*
X888Y924D01*
X890Y924D01*
X890Y930D01*
X892Y930D01*
X892Y934D01*
X894Y934D01*
X894Y936D01*
X896Y936D01*
X896Y938D01*
X898Y938D01*
X898Y942D01*
X900Y942D01*
X900Y944D01*
X902Y944D01*
X902Y946D01*
X906Y946D01*
X906Y948D01*
X908Y948D01*
X908Y968D01*
X906Y968D01*
X906Y970D01*
X904Y970D01*
X904Y972D01*
X902Y972D01*
X902Y974D01*
X900Y974D01*
X900Y976D01*
X898Y976D01*
X898Y978D01*
X896Y978D01*
X896Y980D01*
X894Y980D01*
X894Y984D01*
X892Y984D01*
X892Y988D01*
X890Y988D01*
X890Y992D01*
X888Y992D01*
X888Y998D01*
X886Y998D01*
X886Y1018D01*
X888Y1018D01*
X888Y1024D01*
X890Y1024D01*
X890Y1030D01*
X892Y1030D01*
X892Y1034D01*
X894Y1034D01*
X894Y1036D01*
X896Y1036D01*
X896Y1038D01*
X898Y1038D01*
X898Y1042D01*
X900Y1042D01*
X900Y1044D01*
X902Y1044D01*
X902Y1046D01*
X906Y1046D01*
X906Y1048D01*
X908Y1048D01*
X908Y1068D01*
X906Y1068D01*
X906Y1070D01*
X904Y1070D01*
X904Y1072D01*
X902Y1072D01*
X902Y1074D01*
X900Y1074D01*
X900Y1076D01*
X898Y1076D01*
X898Y1078D01*
X896Y1078D01*
X896Y1080D01*
X894Y1080D01*
X894Y1084D01*
X892Y1084D01*
X892Y1088D01*
X890Y1088D01*
X890Y1092D01*
X888Y1092D01*
X888Y1098D01*
X886Y1098D01*
X886Y1118D01*
X888Y1118D01*
X888Y1124D01*
X890Y1124D01*
X890Y1130D01*
X892Y1130D01*
X892Y1134D01*
X894Y1134D01*
X894Y1136D01*
X896Y1136D01*
X896Y1138D01*
X898Y1138D01*
X898Y1142D01*
X900Y1142D01*
X900Y1144D01*
X902Y1144D01*
X902Y1146D01*
X906Y1146D01*
X906Y1148D01*
X908Y1148D01*
X908Y1168D01*
X906Y1168D01*
X906Y1170D01*
X904Y1170D01*
X904Y1172D01*
X902Y1172D01*
X902Y1174D01*
X900Y1174D01*
X900Y1176D01*
X898Y1176D01*
X898Y1178D01*
X896Y1178D01*
X896Y1180D01*
X894Y1180D01*
X894Y1184D01*
X892Y1184D01*
X892Y1188D01*
X890Y1188D01*
X890Y1192D01*
X888Y1192D01*
X888Y1198D01*
X886Y1198D01*
X886Y1218D01*
X888Y1218D01*
X888Y1224D01*
X890Y1224D01*
X890Y1230D01*
X892Y1230D01*
X892Y1234D01*
X894Y1234D01*
X894Y1236D01*
X896Y1236D01*
X896Y1238D01*
X898Y1238D01*
X898Y1242D01*
X900Y1242D01*
X900Y1244D01*
X902Y1244D01*
X902Y1246D01*
X906Y1246D01*
X906Y1248D01*
X908Y1248D01*
X908Y1268D01*
X906Y1268D01*
X906Y1270D01*
X904Y1270D01*
X904Y1272D01*
X902Y1272D01*
X902Y1274D01*
X900Y1274D01*
X900Y1276D01*
X898Y1276D01*
X898Y1278D01*
X896Y1278D01*
X896Y1280D01*
X894Y1280D01*
X894Y1284D01*
X892Y1284D01*
X892Y1288D01*
X890Y1288D01*
X890Y1292D01*
X888Y1292D01*
X888Y1298D01*
X886Y1298D01*
X886Y1318D01*
X888Y1318D01*
X888Y1324D01*
X890Y1324D01*
X890Y1330D01*
X892Y1330D01*
X892Y1334D01*
X894Y1334D01*
X894Y1336D01*
X896Y1336D01*
X896Y1338D01*
X898Y1338D01*
X898Y1342D01*
X900Y1342D01*
X900Y1344D01*
X902Y1344D01*
X902Y1346D01*
X906Y1346D01*
X906Y1348D01*
X908Y1348D01*
X908Y1368D01*
X906Y1368D01*
X906Y1370D01*
X904Y1370D01*
X904Y1372D01*
X902Y1372D01*
X902Y1374D01*
X900Y1374D01*
X900Y1376D01*
X898Y1376D01*
X898Y1378D01*
X896Y1378D01*
X896Y1380D01*
X894Y1380D01*
X894Y1384D01*
X892Y1384D01*
X892Y1388D01*
X890Y1388D01*
X890Y1392D01*
X888Y1392D01*
X888Y1398D01*
X886Y1398D01*
X886Y1418D01*
X888Y1418D01*
X888Y1424D01*
X890Y1424D01*
X890Y1430D01*
X892Y1430D01*
X892Y1434D01*
X894Y1434D01*
X894Y1436D01*
X896Y1436D01*
X896Y1438D01*
X898Y1438D01*
X898Y1442D01*
X900Y1442D01*
X900Y1444D01*
X902Y1444D01*
X902Y1446D01*
X906Y1446D01*
X906Y1448D01*
X908Y1448D01*
X908Y1468D01*
X906Y1468D01*
X906Y1470D01*
X904Y1470D01*
X904Y1472D01*
X902Y1472D01*
X902Y1474D01*
X900Y1474D01*
X900Y1476D01*
X898Y1476D01*
X898Y1478D01*
X896Y1478D01*
X896Y1480D01*
X894Y1480D01*
X894Y1484D01*
X892Y1484D01*
X892Y1488D01*
X890Y1488D01*
X890Y1492D01*
X888Y1492D01*
X888Y1498D01*
X886Y1498D01*
X886Y1518D01*
X888Y1518D01*
X888Y1524D01*
X890Y1524D01*
X890Y1530D01*
X892Y1530D01*
X892Y1534D01*
X894Y1534D01*
X894Y1536D01*
X896Y1536D01*
X896Y1538D01*
X898Y1538D01*
X898Y1542D01*
X900Y1542D01*
X900Y1544D01*
X902Y1544D01*
X902Y1546D01*
X906Y1546D01*
X906Y1548D01*
X908Y1548D01*
X908Y1568D01*
X906Y1568D01*
X906Y1570D01*
X904Y1570D01*
X904Y1572D01*
X902Y1572D01*
X902Y1574D01*
X900Y1574D01*
X900Y1576D01*
X898Y1576D01*
X898Y1578D01*
X896Y1578D01*
X896Y1580D01*
X894Y1580D01*
X894Y1584D01*
X892Y1584D01*
X892Y1588D01*
X890Y1588D01*
X890Y1592D01*
X888Y1592D01*
X888Y1598D01*
X886Y1598D01*
X886Y1618D01*
X888Y1618D01*
X888Y1624D01*
X890Y1624D01*
X890Y1630D01*
X892Y1630D01*
X892Y1634D01*
X894Y1634D01*
X894Y1636D01*
X896Y1636D01*
X896Y1638D01*
X898Y1638D01*
X898Y1642D01*
X900Y1642D01*
X900Y1644D01*
X902Y1644D01*
X902Y1646D01*
X906Y1646D01*
X906Y1648D01*
X908Y1648D01*
X908Y1668D01*
X906Y1668D01*
X906Y1670D01*
X904Y1670D01*
X904Y1672D01*
X902Y1672D01*
X902Y1674D01*
X900Y1674D01*
X900Y1676D01*
X898Y1676D01*
X898Y1678D01*
X896Y1678D01*
X896Y1680D01*
X894Y1680D01*
X894Y1684D01*
X892Y1684D01*
X892Y1688D01*
X890Y1688D01*
X890Y1692D01*
X888Y1692D01*
X888Y1698D01*
X886Y1698D01*
X886Y1718D01*
X888Y1718D01*
X888Y1724D01*
X890Y1724D01*
X890Y1730D01*
X892Y1730D01*
X892Y1734D01*
X894Y1734D01*
X894Y1736D01*
X896Y1736D01*
X896Y1738D01*
X898Y1738D01*
X898Y1742D01*
X900Y1742D01*
X900Y1744D01*
X902Y1744D01*
X902Y1746D01*
X906Y1746D01*
X906Y1748D01*
X908Y1748D01*
X908Y1768D01*
X664Y1768D01*
G37*
D02*
G36*
X230Y732D02*
X230Y730D01*
X226Y730D01*
X226Y710D01*
X228Y710D01*
X228Y708D01*
X232Y708D01*
X232Y706D01*
X234Y706D01*
X234Y704D01*
X238Y704D01*
X238Y702D01*
X240Y702D01*
X240Y698D01*
X242Y698D01*
X242Y696D01*
X244Y696D01*
X244Y694D01*
X246Y694D01*
X246Y690D01*
X248Y690D01*
X248Y686D01*
X250Y686D01*
X250Y678D01*
X252Y678D01*
X252Y660D01*
X250Y660D01*
X250Y654D01*
X248Y654D01*
X248Y650D01*
X246Y650D01*
X246Y646D01*
X244Y646D01*
X244Y644D01*
X242Y644D01*
X242Y640D01*
X240Y640D01*
X240Y638D01*
X238Y638D01*
X238Y636D01*
X236Y636D01*
X236Y634D01*
X232Y634D01*
X232Y632D01*
X230Y632D01*
X230Y630D01*
X226Y630D01*
X226Y612D01*
X484Y612D01*
X484Y610D01*
X492Y610D01*
X492Y608D01*
X496Y608D01*
X496Y606D01*
X498Y606D01*
X498Y604D01*
X500Y604D01*
X500Y602D01*
X502Y602D01*
X502Y600D01*
X504Y600D01*
X504Y598D01*
X506Y598D01*
X506Y594D01*
X508Y594D01*
X508Y590D01*
X510Y590D01*
X510Y588D01*
X512Y588D01*
X512Y586D01*
X516Y586D01*
X516Y584D01*
X518Y584D01*
X518Y582D01*
X522Y582D01*
X522Y580D01*
X524Y580D01*
X524Y578D01*
X528Y578D01*
X528Y576D01*
X530Y576D01*
X530Y574D01*
X534Y574D01*
X534Y572D01*
X538Y572D01*
X538Y570D01*
X540Y570D01*
X540Y568D01*
X544Y568D01*
X544Y566D01*
X546Y566D01*
X546Y564D01*
X550Y564D01*
X550Y562D01*
X552Y562D01*
X552Y560D01*
X556Y560D01*
X556Y558D01*
X558Y558D01*
X558Y556D01*
X562Y556D01*
X562Y554D01*
X564Y554D01*
X564Y552D01*
X568Y552D01*
X568Y550D01*
X572Y550D01*
X572Y548D01*
X574Y548D01*
X574Y546D01*
X578Y546D01*
X578Y544D01*
X580Y544D01*
X580Y542D01*
X584Y542D01*
X584Y540D01*
X586Y540D01*
X586Y538D01*
X590Y538D01*
X590Y536D01*
X592Y536D01*
X592Y534D01*
X596Y534D01*
X596Y532D01*
X598Y532D01*
X598Y530D01*
X602Y530D01*
X602Y528D01*
X606Y528D01*
X606Y526D01*
X608Y526D01*
X608Y524D01*
X612Y524D01*
X612Y522D01*
X614Y522D01*
X614Y520D01*
X618Y520D01*
X618Y518D01*
X620Y518D01*
X620Y516D01*
X624Y516D01*
X624Y514D01*
X626Y514D01*
X626Y512D01*
X630Y512D01*
X630Y510D01*
X632Y510D01*
X632Y508D01*
X636Y508D01*
X636Y506D01*
X638Y506D01*
X638Y504D01*
X642Y504D01*
X642Y502D01*
X646Y502D01*
X646Y500D01*
X648Y500D01*
X648Y498D01*
X652Y498D01*
X652Y496D01*
X654Y496D01*
X654Y494D01*
X658Y494D01*
X658Y492D01*
X660Y492D01*
X660Y490D01*
X664Y490D01*
X664Y488D01*
X666Y488D01*
X666Y486D01*
X670Y486D01*
X670Y484D01*
X672Y484D01*
X672Y482D01*
X676Y482D01*
X676Y480D01*
X680Y480D01*
X680Y478D01*
X682Y478D01*
X682Y476D01*
X686Y476D01*
X686Y474D01*
X688Y474D01*
X688Y472D01*
X692Y472D01*
X692Y470D01*
X694Y470D01*
X694Y468D01*
X698Y468D01*
X698Y466D01*
X700Y466D01*
X700Y464D01*
X704Y464D01*
X704Y462D01*
X706Y462D01*
X706Y460D01*
X710Y460D01*
X710Y458D01*
X712Y458D01*
X712Y456D01*
X716Y456D01*
X716Y454D01*
X720Y454D01*
X720Y452D01*
X722Y452D01*
X722Y450D01*
X726Y450D01*
X726Y448D01*
X728Y448D01*
X728Y446D01*
X732Y446D01*
X732Y444D01*
X734Y444D01*
X734Y442D01*
X738Y442D01*
X738Y440D01*
X740Y440D01*
X740Y438D01*
X744Y438D01*
X744Y436D01*
X746Y436D01*
X746Y434D01*
X750Y434D01*
X750Y432D01*
X754Y432D01*
X754Y430D01*
X756Y430D01*
X756Y428D01*
X760Y428D01*
X760Y426D01*
X762Y426D01*
X762Y424D01*
X766Y424D01*
X766Y422D01*
X768Y422D01*
X768Y420D01*
X788Y420D01*
X788Y430D01*
X784Y430D01*
X784Y432D01*
X782Y432D01*
X782Y434D01*
X778Y434D01*
X778Y436D01*
X776Y436D01*
X776Y438D01*
X774Y438D01*
X774Y440D01*
X772Y440D01*
X772Y444D01*
X770Y444D01*
X770Y446D01*
X768Y446D01*
X768Y450D01*
X766Y450D01*
X766Y454D01*
X764Y454D01*
X764Y460D01*
X762Y460D01*
X762Y478D01*
X764Y478D01*
X764Y486D01*
X766Y486D01*
X766Y490D01*
X768Y490D01*
X768Y494D01*
X770Y494D01*
X770Y496D01*
X772Y496D01*
X772Y498D01*
X774Y498D01*
X774Y502D01*
X776Y502D01*
X776Y504D01*
X780Y504D01*
X780Y506D01*
X782Y506D01*
X782Y508D01*
X786Y508D01*
X786Y510D01*
X788Y510D01*
X788Y530D01*
X784Y530D01*
X784Y532D01*
X782Y532D01*
X782Y534D01*
X778Y534D01*
X778Y536D01*
X776Y536D01*
X776Y538D01*
X774Y538D01*
X774Y540D01*
X772Y540D01*
X772Y544D01*
X770Y544D01*
X770Y546D01*
X768Y546D01*
X768Y550D01*
X766Y550D01*
X766Y554D01*
X764Y554D01*
X764Y560D01*
X760Y560D01*
X760Y562D01*
X754Y562D01*
X754Y564D01*
X748Y564D01*
X748Y566D01*
X740Y566D01*
X740Y568D01*
X734Y568D01*
X734Y570D01*
X728Y570D01*
X728Y572D01*
X720Y572D01*
X720Y574D01*
X714Y574D01*
X714Y576D01*
X708Y576D01*
X708Y578D01*
X700Y578D01*
X700Y580D01*
X694Y580D01*
X694Y582D01*
X688Y582D01*
X688Y584D01*
X682Y584D01*
X682Y586D01*
X674Y586D01*
X674Y588D01*
X668Y588D01*
X668Y590D01*
X662Y590D01*
X662Y592D01*
X654Y592D01*
X654Y594D01*
X648Y594D01*
X648Y596D01*
X642Y596D01*
X642Y598D01*
X634Y598D01*
X634Y600D01*
X628Y600D01*
X628Y602D01*
X622Y602D01*
X622Y604D01*
X616Y604D01*
X616Y606D01*
X608Y606D01*
X608Y608D01*
X602Y608D01*
X602Y610D01*
X596Y610D01*
X596Y612D01*
X588Y612D01*
X588Y614D01*
X582Y614D01*
X582Y616D01*
X576Y616D01*
X576Y618D01*
X568Y618D01*
X568Y620D01*
X562Y620D01*
X562Y622D01*
X556Y622D01*
X556Y624D01*
X550Y624D01*
X550Y626D01*
X542Y626D01*
X542Y628D01*
X536Y628D01*
X536Y630D01*
X530Y630D01*
X530Y632D01*
X522Y632D01*
X522Y634D01*
X516Y634D01*
X516Y636D01*
X510Y636D01*
X510Y638D01*
X502Y638D01*
X502Y640D01*
X496Y640D01*
X496Y642D01*
X490Y642D01*
X490Y644D01*
X484Y644D01*
X484Y646D01*
X476Y646D01*
X476Y648D01*
X470Y648D01*
X470Y650D01*
X464Y650D01*
X464Y652D01*
X456Y652D01*
X456Y654D01*
X450Y654D01*
X450Y656D01*
X444Y656D01*
X444Y658D01*
X436Y658D01*
X436Y660D01*
X430Y660D01*
X430Y662D01*
X424Y662D01*
X424Y664D01*
X418Y664D01*
X418Y666D01*
X410Y666D01*
X410Y668D01*
X404Y668D01*
X404Y670D01*
X398Y670D01*
X398Y672D01*
X390Y672D01*
X390Y674D01*
X384Y674D01*
X384Y676D01*
X378Y676D01*
X378Y678D01*
X370Y678D01*
X370Y680D01*
X364Y680D01*
X364Y682D01*
X358Y682D01*
X358Y684D01*
X352Y684D01*
X352Y686D01*
X344Y686D01*
X344Y688D01*
X338Y688D01*
X338Y690D01*
X332Y690D01*
X332Y692D01*
X324Y692D01*
X324Y694D01*
X318Y694D01*
X318Y696D01*
X312Y696D01*
X312Y698D01*
X304Y698D01*
X304Y700D01*
X298Y700D01*
X298Y702D01*
X292Y702D01*
X292Y704D01*
X286Y704D01*
X286Y706D01*
X278Y706D01*
X278Y708D01*
X272Y708D01*
X272Y710D01*
X266Y710D01*
X266Y712D01*
X262Y712D01*
X262Y714D01*
X258Y714D01*
X258Y716D01*
X256Y716D01*
X256Y718D01*
X254Y718D01*
X254Y722D01*
X252Y722D01*
X252Y726D01*
X250Y726D01*
X250Y732D01*
X230Y732D01*
G37*
D02*
G36*
X226Y612D02*
X226Y610D01*
X228Y610D01*
X228Y608D01*
X232Y608D01*
X232Y606D01*
X234Y606D01*
X234Y604D01*
X238Y604D01*
X238Y602D01*
X240Y602D01*
X240Y598D01*
X242Y598D01*
X242Y596D01*
X244Y596D01*
X244Y594D01*
X246Y594D01*
X246Y590D01*
X248Y590D01*
X248Y586D01*
X250Y586D01*
X250Y578D01*
X252Y578D01*
X252Y560D01*
X250Y560D01*
X250Y554D01*
X248Y554D01*
X248Y550D01*
X246Y550D01*
X246Y546D01*
X244Y546D01*
X244Y544D01*
X242Y544D01*
X242Y540D01*
X240Y540D01*
X240Y538D01*
X238Y538D01*
X238Y536D01*
X236Y536D01*
X236Y534D01*
X232Y534D01*
X232Y532D01*
X230Y532D01*
X230Y530D01*
X226Y530D01*
X226Y510D01*
X228Y510D01*
X228Y508D01*
X232Y508D01*
X232Y506D01*
X234Y506D01*
X234Y504D01*
X238Y504D01*
X238Y502D01*
X240Y502D01*
X240Y498D01*
X242Y498D01*
X242Y496D01*
X244Y496D01*
X244Y494D01*
X246Y494D01*
X246Y490D01*
X248Y490D01*
X248Y486D01*
X250Y486D01*
X250Y478D01*
X252Y478D01*
X252Y462D01*
X256Y462D01*
X256Y460D01*
X258Y460D01*
X258Y458D01*
X262Y458D01*
X262Y456D01*
X264Y456D01*
X264Y454D01*
X266Y454D01*
X266Y452D01*
X270Y452D01*
X270Y450D01*
X272Y450D01*
X272Y448D01*
X274Y448D01*
X274Y446D01*
X278Y446D01*
X278Y444D01*
X280Y444D01*
X280Y442D01*
X282Y442D01*
X282Y440D01*
X286Y440D01*
X286Y438D01*
X288Y438D01*
X288Y436D01*
X290Y436D01*
X290Y434D01*
X294Y434D01*
X294Y432D01*
X296Y432D01*
X296Y430D01*
X298Y430D01*
X298Y428D01*
X302Y428D01*
X302Y426D01*
X304Y426D01*
X304Y424D01*
X306Y424D01*
X306Y422D01*
X308Y422D01*
X308Y420D01*
X310Y420D01*
X310Y418D01*
X312Y418D01*
X312Y414D01*
X314Y414D01*
X314Y192D01*
X312Y192D01*
X312Y186D01*
X310Y186D01*
X310Y182D01*
X308Y182D01*
X308Y178D01*
X306Y178D01*
X306Y174D01*
X304Y174D01*
X304Y168D01*
X302Y168D01*
X302Y164D01*
X300Y164D01*
X300Y160D01*
X298Y160D01*
X298Y156D01*
X296Y156D01*
X296Y150D01*
X676Y150D01*
X676Y148D01*
X684Y148D01*
X684Y146D01*
X690Y146D01*
X690Y144D01*
X692Y144D01*
X692Y142D01*
X696Y142D01*
X696Y140D01*
X698Y140D01*
X698Y138D01*
X702Y138D01*
X702Y136D01*
X704Y136D01*
X704Y134D01*
X706Y134D01*
X706Y130D01*
X708Y130D01*
X708Y128D01*
X710Y128D01*
X710Y124D01*
X762Y124D01*
X762Y214D01*
X782Y214D01*
X782Y234D01*
X778Y234D01*
X778Y236D01*
X776Y236D01*
X776Y238D01*
X774Y238D01*
X774Y240D01*
X772Y240D01*
X772Y244D01*
X770Y244D01*
X770Y246D01*
X768Y246D01*
X768Y250D01*
X766Y250D01*
X766Y254D01*
X764Y254D01*
X764Y260D01*
X762Y260D01*
X762Y278D01*
X764Y278D01*
X764Y286D01*
X766Y286D01*
X766Y290D01*
X768Y290D01*
X768Y294D01*
X770Y294D01*
X770Y296D01*
X772Y296D01*
X772Y298D01*
X774Y298D01*
X774Y302D01*
X776Y302D01*
X776Y304D01*
X780Y304D01*
X780Y306D01*
X782Y306D01*
X782Y308D01*
X786Y308D01*
X786Y310D01*
X788Y310D01*
X788Y330D01*
X784Y330D01*
X784Y332D01*
X782Y332D01*
X782Y334D01*
X778Y334D01*
X778Y336D01*
X776Y336D01*
X776Y338D01*
X774Y338D01*
X774Y340D01*
X772Y340D01*
X772Y344D01*
X770Y344D01*
X770Y346D01*
X768Y346D01*
X768Y350D01*
X766Y350D01*
X766Y354D01*
X764Y354D01*
X764Y360D01*
X762Y360D01*
X762Y374D01*
X758Y374D01*
X758Y376D01*
X756Y376D01*
X756Y378D01*
X752Y378D01*
X752Y380D01*
X750Y380D01*
X750Y382D01*
X746Y382D01*
X746Y384D01*
X744Y384D01*
X744Y386D01*
X740Y386D01*
X740Y388D01*
X736Y388D01*
X736Y390D01*
X734Y390D01*
X734Y392D01*
X730Y392D01*
X730Y394D01*
X728Y394D01*
X728Y396D01*
X724Y396D01*
X724Y398D01*
X722Y398D01*
X722Y400D01*
X718Y400D01*
X718Y402D01*
X716Y402D01*
X716Y404D01*
X712Y404D01*
X712Y406D01*
X710Y406D01*
X710Y408D01*
X706Y408D01*
X706Y410D01*
X704Y410D01*
X704Y412D01*
X700Y412D01*
X700Y414D01*
X696Y414D01*
X696Y416D01*
X694Y416D01*
X694Y418D01*
X690Y418D01*
X690Y420D01*
X688Y420D01*
X688Y422D01*
X684Y422D01*
X684Y424D01*
X682Y424D01*
X682Y426D01*
X678Y426D01*
X678Y428D01*
X676Y428D01*
X676Y430D01*
X672Y430D01*
X672Y432D01*
X670Y432D01*
X670Y434D01*
X666Y434D01*
X666Y436D01*
X662Y436D01*
X662Y438D01*
X660Y438D01*
X660Y440D01*
X656Y440D01*
X656Y442D01*
X654Y442D01*
X654Y444D01*
X650Y444D01*
X650Y446D01*
X648Y446D01*
X648Y448D01*
X644Y448D01*
X644Y450D01*
X642Y450D01*
X642Y452D01*
X638Y452D01*
X638Y454D01*
X636Y454D01*
X636Y456D01*
X632Y456D01*
X632Y458D01*
X628Y458D01*
X628Y460D01*
X626Y460D01*
X626Y462D01*
X622Y462D01*
X622Y464D01*
X620Y464D01*
X620Y466D01*
X616Y466D01*
X616Y468D01*
X614Y468D01*
X614Y470D01*
X610Y470D01*
X610Y472D01*
X608Y472D01*
X608Y474D01*
X604Y474D01*
X604Y476D01*
X602Y476D01*
X602Y478D01*
X598Y478D01*
X598Y480D01*
X596Y480D01*
X596Y482D01*
X592Y482D01*
X592Y484D01*
X588Y484D01*
X588Y486D01*
X586Y486D01*
X586Y488D01*
X582Y488D01*
X582Y490D01*
X580Y490D01*
X580Y492D01*
X576Y492D01*
X576Y494D01*
X574Y494D01*
X574Y496D01*
X570Y496D01*
X570Y498D01*
X568Y498D01*
X568Y500D01*
X564Y500D01*
X564Y502D01*
X562Y502D01*
X562Y504D01*
X558Y504D01*
X558Y506D01*
X554Y506D01*
X554Y508D01*
X552Y508D01*
X552Y510D01*
X548Y510D01*
X548Y512D01*
X546Y512D01*
X546Y514D01*
X542Y514D01*
X542Y516D01*
X540Y516D01*
X540Y518D01*
X536Y518D01*
X536Y520D01*
X534Y520D01*
X534Y522D01*
X530Y522D01*
X530Y524D01*
X528Y524D01*
X528Y526D01*
X524Y526D01*
X524Y528D01*
X520Y528D01*
X520Y530D01*
X518Y530D01*
X518Y532D01*
X514Y532D01*
X514Y534D01*
X512Y534D01*
X512Y536D01*
X508Y536D01*
X508Y538D01*
X506Y538D01*
X506Y540D01*
X502Y540D01*
X502Y542D01*
X500Y542D01*
X500Y544D01*
X496Y544D01*
X496Y546D01*
X494Y546D01*
X494Y548D01*
X490Y548D01*
X490Y550D01*
X488Y550D01*
X488Y552D01*
X474Y552D01*
X474Y554D01*
X468Y554D01*
X468Y556D01*
X464Y556D01*
X464Y558D01*
X462Y558D01*
X462Y560D01*
X458Y560D01*
X458Y564D01*
X456Y564D01*
X456Y566D01*
X454Y566D01*
X454Y570D01*
X452Y570D01*
X452Y576D01*
X450Y576D01*
X450Y588D01*
X452Y588D01*
X452Y594D01*
X454Y594D01*
X454Y598D01*
X456Y598D01*
X456Y600D01*
X458Y600D01*
X458Y602D01*
X460Y602D01*
X460Y604D01*
X462Y604D01*
X462Y606D01*
X464Y606D01*
X464Y608D01*
X468Y608D01*
X468Y610D01*
X476Y610D01*
X476Y612D01*
X226Y612D01*
G37*
D02*
G36*
X402Y150D02*
X402Y112D01*
X542Y112D01*
X542Y110D01*
X550Y110D01*
X550Y108D01*
X554Y108D01*
X554Y106D01*
X556Y106D01*
X556Y104D01*
X560Y104D01*
X560Y102D01*
X562Y102D01*
X562Y98D01*
X564Y98D01*
X564Y96D01*
X566Y96D01*
X566Y90D01*
X568Y90D01*
X568Y74D01*
X566Y74D01*
X566Y68D01*
X564Y68D01*
X564Y64D01*
X562Y64D01*
X562Y62D01*
X560Y62D01*
X560Y42D01*
X640Y42D01*
X640Y62D01*
X638Y62D01*
X638Y64D01*
X636Y64D01*
X636Y66D01*
X634Y66D01*
X634Y68D01*
X632Y68D01*
X632Y70D01*
X630Y70D01*
X630Y72D01*
X628Y72D01*
X628Y76D01*
X626Y76D01*
X626Y78D01*
X624Y78D01*
X624Y82D01*
X622Y82D01*
X622Y90D01*
X620Y90D01*
X620Y112D01*
X622Y112D01*
X622Y118D01*
X624Y118D01*
X624Y122D01*
X626Y122D01*
X626Y126D01*
X628Y126D01*
X628Y130D01*
X630Y130D01*
X630Y132D01*
X632Y132D01*
X632Y134D01*
X634Y134D01*
X634Y136D01*
X636Y136D01*
X636Y138D01*
X638Y138D01*
X638Y140D01*
X640Y140D01*
X640Y142D01*
X644Y142D01*
X644Y144D01*
X648Y144D01*
X648Y146D01*
X652Y146D01*
X652Y148D01*
X660Y148D01*
X660Y150D01*
X402Y150D01*
G37*
D02*
G36*
X712Y124D02*
X712Y122D01*
X888Y122D01*
X888Y124D01*
X712Y124D01*
G37*
D02*
G36*
X712Y124D02*
X712Y122D01*
X888Y122D01*
X888Y124D01*
X712Y124D01*
G37*
D02*
G36*
X714Y122D02*
X714Y116D01*
X716Y116D01*
X716Y106D01*
X718Y106D01*
X718Y94D01*
X716Y94D01*
X716Y86D01*
X714Y86D01*
X714Y80D01*
X712Y80D01*
X712Y76D01*
X710Y76D01*
X710Y74D01*
X708Y74D01*
X708Y70D01*
X706Y70D01*
X706Y68D01*
X704Y68D01*
X704Y66D01*
X702Y66D01*
X702Y64D01*
X700Y64D01*
X700Y62D01*
X696Y62D01*
X696Y42D01*
X924Y42D01*
X924Y62D01*
X916Y62D01*
X916Y64D01*
X912Y64D01*
X912Y66D01*
X908Y66D01*
X908Y68D01*
X906Y68D01*
X906Y70D01*
X904Y70D01*
X904Y72D01*
X902Y72D01*
X902Y74D01*
X900Y74D01*
X900Y76D01*
X898Y76D01*
X898Y78D01*
X896Y78D01*
X896Y80D01*
X894Y80D01*
X894Y84D01*
X892Y84D01*
X892Y88D01*
X890Y88D01*
X890Y92D01*
X888Y92D01*
X888Y98D01*
X886Y98D01*
X886Y118D01*
X888Y118D01*
X888Y122D01*
X714Y122D01*
G37*
D02*
G36*
X402Y112D02*
X402Y42D01*
X518Y42D01*
X518Y62D01*
X516Y62D01*
X516Y64D01*
X514Y64D01*
X514Y68D01*
X512Y68D01*
X512Y72D01*
X510Y72D01*
X510Y92D01*
X512Y92D01*
X512Y96D01*
X514Y96D01*
X514Y100D01*
X516Y100D01*
X516Y102D01*
X518Y102D01*
X518Y104D01*
X520Y104D01*
X520Y106D01*
X524Y106D01*
X524Y108D01*
X528Y108D01*
X528Y110D01*
X536Y110D01*
X536Y112D01*
X402Y112D01*
G37*
D02*
G36*
X250Y360D02*
X250Y354D01*
X248Y354D01*
X248Y350D01*
X246Y350D01*
X246Y346D01*
X244Y346D01*
X244Y344D01*
X242Y344D01*
X242Y340D01*
X240Y340D01*
X240Y338D01*
X238Y338D01*
X238Y336D01*
X236Y336D01*
X236Y334D01*
X232Y334D01*
X232Y332D01*
X230Y332D01*
X230Y330D01*
X226Y330D01*
X226Y310D01*
X228Y310D01*
X228Y308D01*
X232Y308D01*
X232Y306D01*
X234Y306D01*
X234Y304D01*
X238Y304D01*
X238Y302D01*
X240Y302D01*
X240Y298D01*
X242Y298D01*
X242Y296D01*
X244Y296D01*
X244Y294D01*
X246Y294D01*
X246Y290D01*
X248Y290D01*
X248Y286D01*
X250Y286D01*
X250Y278D01*
X270Y278D01*
X270Y360D01*
X250Y360D01*
G37*
D02*
G36*
X250Y260D02*
X250Y254D01*
X248Y254D01*
X248Y250D01*
X246Y250D01*
X246Y246D01*
X244Y246D01*
X244Y244D01*
X242Y244D01*
X242Y240D01*
X240Y240D01*
X240Y238D01*
X238Y238D01*
X238Y236D01*
X236Y236D01*
X236Y234D01*
X232Y234D01*
X232Y232D01*
X230Y232D01*
X230Y230D01*
X226Y230D01*
X226Y210D01*
X228Y210D01*
X228Y208D01*
X232Y208D01*
X232Y206D01*
X234Y206D01*
X234Y204D01*
X238Y204D01*
X238Y202D01*
X240Y202D01*
X240Y198D01*
X242Y198D01*
X242Y196D01*
X244Y196D01*
X244Y194D01*
X246Y194D01*
X246Y192D01*
X266Y192D01*
X266Y196D01*
X268Y196D01*
X268Y200D01*
X270Y200D01*
X270Y260D01*
X250Y260D01*
G37*
D02*
G36*
X284Y128D02*
X284Y124D01*
X282Y124D01*
X282Y118D01*
X280Y118D01*
X280Y114D01*
X278Y114D01*
X278Y110D01*
X276Y110D01*
X276Y106D01*
X274Y106D01*
X274Y100D01*
X272Y100D01*
X272Y96D01*
X270Y96D01*
X270Y92D01*
X268Y92D01*
X268Y88D01*
X266Y88D01*
X266Y84D01*
X264Y84D01*
X264Y80D01*
X262Y80D01*
X262Y78D01*
X258Y78D01*
X258Y76D01*
X256Y76D01*
X256Y74D01*
X210Y74D01*
X210Y72D01*
X116Y72D01*
X116Y68D01*
X114Y68D01*
X114Y66D01*
X112Y66D01*
X112Y62D01*
X110Y62D01*
X110Y42D01*
X304Y42D01*
X304Y128D01*
X284Y128D01*
G37*
D02*
G36*
X331Y85D02*
X375Y85D01*
X375Y52D01*
X331Y52D01*
X331Y85D01*
G37*
D02*
G36*
X371Y125D02*
X402Y125D01*
X402Y81D01*
X371Y81D01*
X371Y125D01*
G37*
D02*
G36*
X525Y116D02*
X550Y116D01*
X550Y92D01*
X525Y92D01*
X525Y116D01*
G37*
D02*
G36*
X525Y78D02*
X550Y78D01*
X550Y52D01*
X525Y52D01*
X525Y78D01*
G37*
D02*
G36*
X506Y96D02*
X530Y96D01*
X530Y71D01*
X506Y71D01*
X506Y96D01*
G37*
D02*
G36*
X544Y96D02*
X568Y96D01*
X568Y71D01*
X544Y71D01*
X544Y96D01*
G37*
D02*
G36*
X488Y864D02*
X532Y864D01*
X532Y832D01*
X488Y832D01*
X488Y864D01*
G37*
D02*
G36*
X488Y794D02*
X532Y794D01*
X532Y762D01*
X488Y762D01*
X488Y794D01*
G37*
D02*
G36*
X458Y834D02*
X490Y834D01*
X490Y789D01*
X458Y789D01*
X458Y834D01*
G37*
D02*
G36*
X528Y834D02*
X560Y834D01*
X560Y789D01*
X528Y789D01*
X528Y834D01*
G37*
D02*
G04 End of Copper1*
M02*