; NON-PLATED HOLES START AT T1
; THROUGH (PLATED) HOLES START AT T100
M48
INCH
T1C0.086614
T100C0.027559
T101C0.036000
T102C0.042000
T103C0.038000
T104C0.015748
T105C0.043307
%
T1
X007984Y018230
X003044Y011795
X006619Y009845
X006099Y011860
X002134Y018230
T100
X004410Y010298
X004410Y013448
X004410Y015810
X004410Y011086
X004410Y016597
X004410Y012660
X004410Y015023
X004410Y011873
X004410Y009511
X004410Y017385
X004410Y018172
X004410Y014235
T101
X008070Y008695
X002070Y011695
X008070Y001695
X002070Y010695
X008070Y014695
X002070Y004695
X008070Y010695
X002070Y014695
X008070Y004695
X002070Y008695
X008070Y011695
X002070Y001695
X008070Y006695
X002070Y013695
X002070Y005695
X008070Y015695
X008070Y003695
X008070Y009695
X002070Y012695
X008070Y007695
X008070Y002695
X002070Y007695
X002070Y002695
X008070Y012695
X002070Y006695
X002070Y015695
X002070Y003695
X008070Y013695
X008070Y005695
X002070Y009695
T102
X006230Y017255
X006230Y014275
T103
X009350Y011080
X009350Y014080
X009350Y010080
X009350Y015080
X009350Y003080
X009350Y007080
X009350Y012080
X003536Y001006
X005620Y018230
X009350Y006080
X006685Y001005
X009350Y018080
X003536Y008094
X009350Y009080
X009350Y016080
X009350Y008080
X009350Y017080
X009350Y013080
X009350Y002080
X009350Y004080
X009350Y001080
X009350Y005080
X006620Y018230
X005111Y008098
T104
X004800Y005815
X005386Y000814
T105
X000705Y012940
X000705Y003940
X000705Y007940
X000705Y016940
X000705Y015940
X000705Y009940
X000705Y008940
X000705Y011940
X000705Y014940
X000705Y000940
X000705Y001940
X000705Y010940
X000705Y004940
X000705Y013940
X000705Y002940
X000705Y006940
X000705Y005940
T00
M30
