<?xml version='1.0' encoding='UTF-8'?>
<!-- Generator: Adobe Illustrator 13.0.0, SVG Export Plug-In . SVG Version: 6.00 Build 14948)  -->
<svg xmlns="http://www.w3.org/2000/svg"  width="32" height="32" y="0px" id="svg2" gorn="0" x="0px" version="1.0" baseProfile="tiny">
    <desc>
        <referenceFile>basic_toggle_switch.svg</referenceFile>
    </desc>
    <rect  width="1.7305385" height="1.0857501" y="27.333277" id="connector0terminal" gorn="0.0" x="8.3900003" style="fill:#b3b3b3"/>
    <rect  width="1.7312251" height="1.0857501" y="27.333277" id="connector1terminal" gorn="0.1" x="15.256528" style="fill:#b3b3b3"/>
    <rect  width="1.7312251" height="1.0857501" y="27.333277" id="connector2terminal" gorn="0.2" x="22.12237" style="fill:#b3b3b3"/>
    <rect  width="1.7305385" height="4.8931136" y="23.527231" id="connector0pin" gorn="0.3" x="8.3900003" style="fill:#b3b3b3"/>
    <rect  width="1.7312251" height="4.8931136" y="23.527231" id="connector1pin" gorn="0.4" x="15.256528" style="fill:#b3b3b3"/>
    <rect  width="1.7312251" height="4.8931136" y="23.527231" id="connector2pin" gorn="0.5" x="22.12237" style="fill:#b3b3b3"/>
    <g  transform="matrix(0.6867216,0,0,0.6580304,23.405029,7.5682501)">
        <g  id="breadboard" gorn="0.6.0">
            <rect  width="2.52" height="20.785" y="11.025" id="rect4" gorn="0.6.0.0" x="-21.877001" style="fill:#b3b3b3"/>
            <rect  width="2.5209999" height="20.785" y="11.025" id="rect6" gorn="0.6.0.1" x="-11.878" style="fill:#b3b3b3"/>
            <rect  width="2.5209999" height="20.785" y="11.025" id="rect8" gorn="0.6.0.2" x="-1.88" style="fill:#b3b3b3"/>
            <polygon  points="-17.117,21.169 -19.357,22.169 -21.876,22.169 -24.117,21.169 -24.117,8.99 -17.117,8.99 -17.117,21.169 " id="polygon21" gorn="0.6.0.3" style="fill:#b3b3b3"/>
            <polygon  points="-7.118,21.169 -9.357,22.169 -11.877,22.169 -14.118,21.169 -14.118,8.99 -7.118,8.99 -7.118,21.169 " id="polygon23" gorn="0.6.0.4" style="fill:#b3b3b3"/>
            <polygon  points="2.88,21.169 0.641,22.169 -1.878,22.169 -4.119,21.169 -4.119,8.99 2.88,8.99 2.88,21.169 " id="polygon25" gorn="0.6.0.5" style="fill:#b3b3b3"/>
            <rect  width="36.997002" height="18.471001" y="-0.233" id="rect27" gorn="0.6.0.6" x="-29.115999" style="fill:#1a1a1a"/>
            <rect  width="36.997002" height="4.6490002" y="3.3699999" id="rect49" gorn="0.6.0.7" x="-29.115999"/>
            <rect  width="36.997002" height="5.7480001" y="-0.37900001" id="rect51" gorn="0.6.0.8" x="-29.115999" style="fill:#333333"/>
            <rect  width="15.56" height="4.6490002" y="0.182" id="rect49_1_" gorn="0.6.0.9" x="-17.761999"/>
            <rect  width="6.6630001" height="7.3319998" y="-2.6659999" id="rect27_1_" gorn="0.6.0.10" x="-9.0719995" style="fill:#1a1a1a"/>
            <rect  width="6.6630001" height="3.046" y="-5.7119999" id="rect51_1_" gorn="0.6.0.11" x="-9.0719995" style="fill:#333333"/>
        </g>
    </g>
</svg>
