G04 MADE WITH FRITZING*
G04 WWW.FRITZING.ORG*
G04 DOUBLE SIDED*
G04 HOLES PLATED*
G04 CONTOUR ON CENTER OF CONTOUR VECTOR*
%ASAXBY*%
%FSLAX23Y23*%
%MOIN*%
%OFA0B0*%
%SFA1.0B1.0*%
%ADD10C,0.092000*%
%ADD11C,0.088000*%
%ADD12C,0.085000*%
%ADD13C,0.075000*%
%ADD14C,0.049370*%
%ADD15C,0.096614*%
%LNMASK1*%
G90*
G70*
G54D10*
X598Y200D03*
X964Y449D03*
X717Y819D03*
X350Y567D03*
X699Y233D03*
X619Y732D03*
X929Y361D03*
X599Y819D03*
X350Y449D03*
X965Y567D03*
X507Y449D03*
G54D11*
X77Y851D03*
X77Y751D03*
X77Y651D03*
X77Y551D03*
X77Y451D03*
X77Y351D03*
X77Y251D03*
X77Y151D03*
G54D12*
X226Y460D03*
X226Y60D03*
X1100Y63D03*
X1100Y463D03*
X889Y956D03*
X489Y956D03*
X220Y956D03*
X220Y556D03*
X1100Y950D03*
X1100Y550D03*
G54D11*
X1298Y708D03*
X1298Y608D03*
X1298Y508D03*
X1298Y408D03*
X1298Y308D03*
G54D13*
X1001Y772D03*
X1001Y969D03*
X1001Y772D03*
X1001Y969D03*
X1007Y94D03*
X810Y94D03*
X1007Y94D03*
X810Y94D03*
G54D14*
X450Y795D03*
G54D15*
X1280Y938D03*
X1279Y83D03*
X362Y82D03*
X362Y938D03*
G54D14*
X306Y243D03*
X828Y367D03*
X616Y652D03*
X1007Y262D03*
G04 End of Mask1*
M02*