G04 MADE WITH FRITZING*
G04 WWW.FRITZING.ORG*
G04 DOUBLE SIDED*
G04 HOLES PLATED*
G04 CONTOUR ON CENTER OF CONTOUR VECTOR*
%ASAXBY*%
%FSLAX23Y23*%
%MOIN*%
%OFA0B0*%
%SFA1.0B1.0*%
%ADD10C,0.082000*%
%ADD11C,0.078000*%
%ADD12C,0.075000*%
%ADD13C,0.065000*%
%ADD14C,0.039370*%
%ADD15C,0.024000*%
%ADD16C,0.016000*%
%LNCOPPER1*%
G90*
G70*
G54D10*
X598Y200D03*
X964Y449D03*
X717Y819D03*
X350Y567D03*
X699Y233D03*
X619Y732D03*
X929Y361D03*
X599Y819D03*
X350Y449D03*
X965Y567D03*
X507Y449D03*
G54D11*
X77Y851D03*
X77Y751D03*
X77Y651D03*
X77Y551D03*
X77Y451D03*
X77Y351D03*
X77Y251D03*
X77Y151D03*
G54D12*
X226Y460D03*
X226Y60D03*
X1100Y63D03*
X1100Y463D03*
X889Y956D03*
X489Y956D03*
X220Y956D03*
X220Y556D03*
X1100Y950D03*
X1100Y550D03*
G54D11*
X1298Y708D03*
X1298Y608D03*
X1298Y508D03*
X1298Y408D03*
X1298Y308D03*
G54D13*
X1001Y772D03*
X1001Y969D03*
X1001Y772D03*
X1001Y969D03*
X1007Y94D03*
X810Y94D03*
X1007Y94D03*
X810Y94D03*
G54D14*
X450Y795D03*
X306Y243D03*
X828Y367D03*
X616Y652D03*
X1007Y262D03*
G54D15*
X991Y114D02*
X927Y194D01*
D02*
X927Y194D02*
X929Y329D01*
G54D16*
D02*
X634Y268D02*
X676Y245D01*
D02*
X436Y199D02*
X529Y268D01*
D02*
X164Y194D02*
X436Y199D01*
D02*
X529Y268D02*
X634Y268D01*
D02*
X104Y164D02*
X164Y194D01*
G54D15*
D02*
X1162Y708D02*
X1268Y708D01*
D02*
X1001Y888D02*
X1162Y708D01*
D02*
X1001Y944D02*
X1001Y888D01*
D02*
X1175Y608D02*
X1123Y568D01*
D02*
X1268Y608D02*
X1175Y608D01*
G54D16*
D02*
X95Y434D02*
X196Y342D01*
D02*
X196Y342D02*
X444Y342D01*
D02*
X444Y342D02*
X634Y447D01*
D02*
X634Y447D02*
X938Y449D01*
G54D15*
D02*
X1001Y888D02*
X1001Y944D01*
D02*
X672Y894D02*
X1001Y888D01*
D02*
X621Y842D02*
X672Y894D01*
G54D16*
D02*
X423Y850D02*
X642Y956D01*
D02*
X220Y851D02*
X423Y850D01*
D02*
X642Y956D02*
X866Y956D01*
D02*
X220Y933D02*
X220Y851D01*
D02*
X288Y381D02*
X386Y379D01*
D02*
X240Y442D02*
X288Y381D01*
D02*
X386Y379D02*
X423Y418D01*
D02*
X423Y418D02*
X423Y645D01*
D02*
X220Y851D02*
X220Y933D01*
D02*
X423Y645D02*
X220Y851D01*
G54D15*
D02*
X1218Y373D02*
X1271Y396D01*
D02*
X1033Y405D02*
X1062Y373D01*
D02*
X1033Y497D02*
X1033Y405D01*
D02*
X1062Y373D02*
X1218Y373D01*
D02*
X988Y544D02*
X1033Y497D01*
D02*
X275Y666D02*
X99Y830D01*
D02*
X275Y510D02*
X275Y666D01*
D02*
X325Y469D02*
X275Y510D01*
D02*
X460Y779D02*
X592Y566D01*
D02*
X592Y566D02*
X933Y567D01*
D02*
X138Y244D02*
X287Y243D01*
D02*
X107Y247D02*
X138Y244D01*
G54D16*
D02*
X468Y294D02*
X146Y294D01*
D02*
X605Y360D02*
X468Y294D01*
D02*
X814Y367D02*
X605Y360D01*
D02*
X146Y294D02*
X96Y335D01*
G54D15*
D02*
X717Y787D02*
X716Y695D01*
D02*
X716Y695D02*
X634Y660D01*
D02*
X1098Y92D02*
X1094Y156D01*
D02*
X1094Y156D02*
X1019Y247D01*
G04 End of Copper1*
M02*