; NON-PLATED HOLES START AT T1
; THROUGH (PLATED) HOLES START AT T100
M48
INCH
T1C0.086614
T100C0.042000
T101C0.015748
T102C0.027559
T103C0.035000
T104C0.038000
%
T1
X012798Y009376
X003622Y009376
X003622Y000820
X012787Y000827
T100
X009289Y003606
X007168Y008189
X003500Y004485
X005978Y001998
X005987Y008189
X006989Y002327
X006188Y007320
X009653Y005671
X009644Y004490
X005072Y004485
X003500Y005666
T101
X006164Y006523
X010070Y002618
X008275Y003671
X004497Y007948
X003064Y002432
T102
X010070Y000944
X008101Y000944
X010008Y009686
X010008Y007717
T103
X002258Y000602
X011000Y009500
X004892Y009562
X002196Y009562
X011000Y000634
X011000Y005500
X002196Y005562
X008892Y009562
X002258Y004602
X011000Y004634
T104
X012984Y006082
X000770Y005508
X012984Y007082
X000770Y006508
X000770Y007508
X000770Y001508
X012984Y003082
X000770Y008508
X000770Y002508
X012984Y004082
X000770Y003508
X012984Y005082
X000770Y004508
T00
M30
