; NON-PLATED HOLES START AT T1
; THROUGH (PLATED) HOLES START AT T100
M48
INCH
T1C0.125984
T100C0.039370
T101C0.043307
T102C0.027559
T103C0.036000
T104C0.035000
T105C0.015748
%
T1
X001058Y026066
X038308Y001066
X001058Y001066
X038308Y026066
T100
X012535Y016796
X000933Y023941
X037183Y005441
X021657Y002311
X014721Y004419
X005058Y025441
X036683Y001691
X017183Y018566
X007327Y001877
X001933Y016441
X037183Y020191
X038183Y005441
X024183Y018566
X037183Y011941
X018183Y018566
X008327Y001877
X027725Y008411
X037183Y018691
X002058Y005191
X001933Y022941
X025178Y012575
X007721Y004419
X025183Y018566
X001058Y007191
X037183Y006441
X013535Y012851
X020649Y003365
X025671Y007457
X001933Y017441
X032308Y001691
X018649Y003365
X026178Y012575
X037183Y021191
X008721Y004419
X038183Y006441
X017123Y023639
X014535Y012851
X027725Y010411
X020178Y012575
X037183Y012941
X026671Y007457
X007327Y000699
X034308Y025691
X027725Y009411
X033308Y001691
X020183Y018566
X002058Y006191
X010327Y001877
X019649Y003365
X013535Y016796
X001933Y023941
X038183Y021191
X009721Y004419
X021178Y012575
X021058Y024941
X001058Y008191
X037183Y007441
X008327Y000699
X025671Y008457
X017557Y022151
X021183Y018566
X014535Y016796
X001933Y018441
X037183Y022191
X017657Y002311
X019183Y018566
X009327Y001877
X030639Y010991
X022178Y012575
X038183Y007441
X010721Y004419
X037183Y013941
X026671Y008457
X000933Y020941
X030639Y009991
X002808Y001441
X010535Y012851
X026183Y018566
X002058Y007191
X021649Y003365
X038183Y022191
X011721Y004419
X027178Y012575
X037183Y008441
X015308Y025441
X025671Y009457
X003808Y001441
X027183Y018566
X022649Y003365
X027725Y005411
X037183Y023191
X009535Y012851
X035308Y025691
X010535Y016796
X012721Y004419
X038183Y008441
X011047Y018679
X016308Y025441
X003058Y025441
X034683Y001691
X037183Y014941
X026671Y009457
X000933Y021941
X028183Y018566
X022058Y024941
X002058Y008191
X038183Y023191
X036308Y025691
X020657Y002311
X022183Y018566
X004058Y025441
X035683Y001691
X009535Y016796
X018657Y002311
X023178Y012575
X023058Y024941
X027725Y006411
X037183Y016691
X001933Y020941
X037183Y024191
X023183Y018566
X011535Y012851
X001933Y019941
X019657Y002311
X001058Y005191
X000933Y022941
X037183Y004441
X030308Y001691
X016649Y003365
X024178Y012575
X024058Y024941
X030183Y018566
X038183Y024191
X004808Y001441
X012535Y012851
X031308Y001691
X017649Y003365
X037183Y010941
X011535Y016796
X013721Y004419
X010241Y021717
X031183Y018566
X017308Y025441
X027725Y007411
X037183Y017691
X002058Y004191
X037183Y009941
X029308Y001691
X016183Y018566
X001933Y021941
X029183Y018566
X001058Y006191
T101
X001933Y011691
X001933Y014691
X001933Y012691
X001933Y009691
X001933Y010691
X001933Y013691
T102
X028010Y022647
X024073Y022647
X006089Y025441
X037402Y002941
X025648Y022647
X024861Y022647
X034558Y016222
X034558Y018191
X004058Y002941
X032683Y024691
X030714Y024691
X008058Y025441
X020136Y022647
X026435Y022647
X003683Y016097
X020924Y022647
X004683Y016097
X027223Y022647
X022498Y022647
X003683Y018066
X023286Y022647
X004683Y018066
X035808Y016222
X035433Y002941
X035808Y018191
X019349Y022647
X002089Y002941
X021711Y022647
T103
X017683Y005441
X020683Y005441
X012683Y011441
X014683Y005441
X024683Y011441
X011683Y005441
X018683Y011441
X021683Y011441
X025683Y005441
X017683Y011441
X020683Y011441
X023683Y005441
X019683Y005441
X022683Y005441
X014683Y011441
X016683Y005441
X011683Y011441
X015683Y005441
X013683Y005441
X025683Y011441
X012683Y005441
X023683Y011441
X019683Y011441
X022683Y011441
X024683Y005441
X016683Y011441
X015683Y011441
X018683Y005441
X021683Y005441
X013683Y011441
T104
X005304Y007437
X003058Y020941
X003183Y005316
X023683Y003566
X029933Y002816
X005179Y019820
X014829Y000489
X003187Y023937
X036054Y006445
X036058Y022191
X005183Y020816
X006211Y010557
X033933Y022066
X036058Y004441
X032933Y002816
X033933Y009566
X003211Y010557
X014829Y003489
X032058Y004191
X033937Y007562
X035058Y004191
X032933Y010691
X003058Y021941
X036054Y023187
X035933Y010691
X005808Y023691
X003173Y011487
X003187Y006320
X006058Y000941
X008808Y023691
X006173Y011487
X033937Y019070
X005308Y008441
X036054Y007445
X005304Y006437
X033937Y020070
X018425Y004419
X003183Y004316
X024558Y000566
X005179Y018820
X036058Y005441
X006058Y003941
X015697Y000675
X036058Y021191
X023683Y000566
X032933Y011566
X021425Y004419
X030058Y025941
X036054Y024187
X033933Y021066
X033933Y008566
X035933Y011566
X033058Y025941
X024558Y003566
X003062Y022937
X003187Y007320
X005308Y021816
X033937Y006562
X005308Y009441
X015697Y003675
T105
X008800Y010563
X017185Y007705
X013933Y022191
X011183Y007066
X018673Y009255
X020347Y004419
X019479Y023639
X006433Y009066
X016308Y002316
X020808Y023691
X018177Y007705
X010179Y022709
X020433Y009941
X015433Y009191
X012597Y018493
X010179Y003365
X023757Y006775
X011977Y018245
X015808Y023691
X033308Y023441
X025183Y004191
T00
M30
