G04 MADE WITH FRITZING*
G04 WWW.FRITZING.ORG*
G04 DOUBLE SIDED*
G04 HOLES PLATED*
G04 CONTOUR ON CENTER OF CONTOUR VECTOR*
%ASAXBY*%
%FSLAX23Y23*%
%MOIN*%
%OFA0B0*%
%SFA1.0B1.0*%
%ADD10C,0.039370*%
%ADD11C,0.079370*%
%ADD12C,0.075000*%
%ADD13C,0.065000*%
%ADD14C,0.067559*%
%ADD15C,0.070000*%
%ADD16C,0.083307*%
%ADD17R,0.070000X0.069972*%
%ADD18C,0.024000*%
%ADD19C,0.016000*%
%ADD20C,0.012000*%
%ADD21C,0.008000*%
%LNCOPPER1*%
G90*
G70*
G54D10*
X1018Y2271D03*
X1631Y232D03*
X1948Y2364D03*
X2081Y2369D03*
X1260Y1849D03*
X1198Y1825D03*
X880Y1056D03*
X643Y907D03*
X3331Y2344D03*
X1393Y2219D03*
X1581Y2369D03*
X2376Y678D03*
X1118Y707D03*
X2518Y419D03*
X1818Y771D03*
X2035Y442D03*
X1543Y919D03*
X2043Y994D03*
G54D11*
X3818Y844D03*
X3818Y744D03*
X3818Y644D03*
X3818Y544D03*
X3718Y1494D03*
X3718Y1394D03*
X3718Y1294D03*
X3718Y1194D03*
X3718Y1094D03*
X3718Y994D03*
X3718Y844D03*
X3718Y744D03*
X3718Y644D03*
X3718Y544D03*
X3718Y444D03*
G54D12*
X581Y2369D03*
X881Y2369D03*
X3306Y2594D03*
X3006Y2594D03*
X606Y94D03*
X606Y394D03*
X3506Y419D03*
X3206Y419D03*
G54D13*
X3581Y1819D03*
X3581Y1622D03*
X3581Y1819D03*
X3581Y1622D03*
X3456Y1819D03*
X3456Y1622D03*
X3456Y1819D03*
X3456Y1622D03*
X468Y1807D03*
X468Y1610D03*
X468Y1807D03*
X468Y1610D03*
X368Y1807D03*
X368Y1610D03*
X368Y1807D03*
X368Y1610D03*
G54D12*
X3293Y282D03*
X2993Y282D03*
X2456Y357D03*
X2456Y57D03*
X2368Y357D03*
X2368Y57D03*
X3606Y444D03*
X3394Y656D03*
X318Y432D03*
X530Y644D03*
X3606Y2119D03*
X3394Y1907D03*
X306Y2094D03*
X518Y1882D03*
X1843Y442D03*
X2143Y442D03*
X3606Y544D03*
X3394Y756D03*
X318Y532D03*
X530Y744D03*
X3606Y2219D03*
X3394Y2007D03*
X306Y2194D03*
X518Y1982D03*
X3293Y1157D03*
X3593Y1157D03*
X3593Y1069D03*
X3293Y1069D03*
X621Y1056D03*
X321Y1056D03*
X317Y1149D03*
X617Y1149D03*
X1483Y349D03*
X1483Y49D03*
X1570Y368D03*
X1570Y68D03*
X3393Y957D03*
X3605Y745D03*
X3393Y857D03*
X3605Y645D03*
X531Y844D03*
X319Y632D03*
X531Y944D03*
X319Y732D03*
X3393Y2107D03*
X3605Y2319D03*
X3393Y2207D03*
X3605Y2419D03*
X531Y2182D03*
X319Y2394D03*
X518Y2082D03*
X306Y2294D03*
G54D13*
X806Y2544D03*
X609Y2544D03*
X806Y2544D03*
X609Y2544D03*
X3268Y2469D03*
X3071Y2469D03*
X3268Y2469D03*
X3071Y2469D03*
X406Y294D03*
X209Y294D03*
X406Y294D03*
X209Y294D03*
X3543Y294D03*
X3740Y294D03*
X3543Y294D03*
X3740Y294D03*
G54D14*
X1935Y2265D03*
X2014Y2265D03*
X2092Y2265D03*
X2171Y2265D03*
X2250Y2265D03*
X2329Y2265D03*
X2407Y2265D03*
X2486Y2265D03*
X2565Y2265D03*
X2644Y2265D03*
X2722Y2265D03*
X2801Y2265D03*
G54D15*
X2568Y1144D03*
X2468Y1144D03*
X2368Y1144D03*
X2268Y1144D03*
X2168Y1144D03*
X2068Y1144D03*
X1968Y1144D03*
X1868Y1144D03*
X1768Y1144D03*
X1668Y1144D03*
X1568Y1144D03*
X1468Y1144D03*
X1368Y1144D03*
X1268Y1144D03*
X1168Y1144D03*
X2568Y544D03*
X2468Y544D03*
X2368Y544D03*
X2268Y544D03*
X2168Y544D03*
X2068Y544D03*
X1968Y544D03*
X1868Y544D03*
X1768Y544D03*
X1668Y544D03*
X1568Y544D03*
X1468Y544D03*
X1368Y544D03*
X1268Y544D03*
X1168Y544D03*
G54D11*
X3431Y2569D03*
X3531Y2569D03*
X3631Y2569D03*
X3718Y2419D03*
X3718Y2319D03*
X3718Y2219D03*
X3718Y2119D03*
X3718Y2019D03*
X3818Y2419D03*
X3818Y2319D03*
X3818Y2219D03*
X3818Y2119D03*
X3718Y1869D03*
X3718Y1769D03*
X3718Y1669D03*
X3468Y169D03*
X3568Y169D03*
X3668Y169D03*
X2931Y169D03*
X3031Y169D03*
X3131Y169D03*
X3231Y169D03*
X3331Y169D03*
X1766Y231D03*
X1866Y231D03*
X1966Y231D03*
X2066Y231D03*
X2166Y231D03*
X1665Y337D03*
X1765Y337D03*
X1865Y337D03*
X1965Y337D03*
X2065Y337D03*
X2165Y337D03*
X2265Y337D03*
X733Y188D03*
X833Y188D03*
X933Y188D03*
X1033Y188D03*
X733Y70D03*
X833Y70D03*
X281Y144D03*
X381Y144D03*
X481Y144D03*
X206Y819D03*
X206Y719D03*
X206Y619D03*
X206Y519D03*
X206Y419D03*
X106Y819D03*
X106Y719D03*
X106Y619D03*
X106Y519D03*
G54D16*
X193Y1469D03*
X193Y1369D03*
X193Y1269D03*
X193Y1169D03*
X193Y1069D03*
X193Y969D03*
G54D11*
X193Y1844D03*
X193Y1744D03*
X193Y1644D03*
X193Y2394D03*
X193Y2294D03*
X193Y2194D03*
X193Y2094D03*
X193Y1994D03*
X93Y2394D03*
X93Y2294D03*
X93Y2194D03*
X93Y2094D03*
X306Y2544D03*
X406Y2544D03*
X506Y2544D03*
X1531Y2544D03*
X1631Y2544D03*
X1731Y2544D03*
X2106Y2494D03*
X2206Y2494D03*
X2306Y2494D03*
X2406Y2494D03*
X3118Y1857D03*
X3018Y1857D03*
X2918Y1857D03*
X2818Y1857D03*
X2718Y1857D03*
X2618Y1857D03*
X2518Y1857D03*
X2418Y1857D03*
X2318Y1857D03*
X2218Y1857D03*
X2118Y1857D03*
X2018Y1857D03*
X1918Y1857D03*
X1818Y1857D03*
X1718Y1857D03*
X1618Y1857D03*
X2718Y1258D03*
X2618Y1258D03*
X2518Y1258D03*
X2418Y1258D03*
X2318Y1258D03*
X2218Y1258D03*
X2118Y1258D03*
X2018Y1258D03*
X3064Y1099D03*
X3064Y999D03*
X2567Y946D03*
X2567Y846D03*
X2567Y746D03*
X2567Y946D03*
X2567Y846D03*
X2567Y746D03*
X2667Y746D03*
X2667Y846D03*
X2667Y946D03*
X954Y1680D03*
X1054Y1680D03*
X1154Y1680D03*
X1254Y1680D03*
X1354Y1680D03*
X1454Y1680D03*
X954Y1285D03*
X1054Y1285D03*
X1154Y1285D03*
X1254Y1285D03*
X1354Y1285D03*
X1454Y1285D03*
X1105Y1868D03*
X1024Y2172D03*
X1756Y2215D03*
X1712Y2364D03*
X2773Y1041D03*
X2773Y941D03*
X2773Y841D03*
X2773Y741D03*
X2773Y641D03*
X2773Y541D03*
G54D10*
X1867Y926D03*
X1719Y771D03*
X1018Y337D03*
G54D11*
X772Y442D03*
X872Y442D03*
X972Y442D03*
X1072Y442D03*
X1172Y442D03*
X1272Y442D03*
X1372Y442D03*
X1472Y442D03*
G54D17*
X2568Y1144D03*
G54D18*
X2394Y684D02*
X2538Y735D01*
D02*
X3040Y1080D02*
X2984Y1037D01*
D02*
X2984Y1037D02*
X2803Y1041D01*
D02*
X3272Y1050D02*
X3208Y993D01*
D02*
X3208Y993D02*
X3095Y998D01*
D02*
X2886Y826D02*
X2886Y715D01*
D02*
X2886Y715D02*
X2798Y658D01*
D02*
X3042Y978D02*
X2886Y826D01*
G54D19*
D02*
X1741Y231D02*
X1644Y232D01*
D02*
X696Y964D02*
X652Y916D01*
D02*
X695Y1081D02*
X696Y964D01*
G54D20*
D02*
X1958Y2372D02*
X2086Y2478D01*
D02*
X2188Y2476D02*
X2090Y2379D01*
G54D19*
D02*
X635Y1134D02*
X695Y1081D01*
D02*
X768Y2444D02*
X618Y2294D01*
D02*
X480Y2294D02*
X431Y2243D01*
D02*
X618Y2294D02*
X480Y2294D01*
D02*
X930Y2444D02*
X768Y2444D01*
D02*
X980Y2357D02*
X930Y2444D01*
D02*
X1080Y2302D02*
X980Y2357D01*
D02*
X1192Y2283D02*
X1080Y2302D01*
D02*
X1029Y2264D02*
X1104Y2215D01*
D02*
X1104Y2215D02*
X1380Y2219D01*
D02*
X1517Y2318D02*
X1192Y2283D01*
D02*
X431Y2243D02*
X430Y2068D01*
D02*
X430Y2068D02*
X502Y1998D01*
D02*
X1570Y2361D02*
X1517Y2318D01*
D02*
X780Y1270D02*
X718Y1207D01*
D02*
X718Y1207D02*
X580Y1207D01*
D02*
X780Y1370D02*
X780Y1270D01*
D02*
X580Y1207D02*
X531Y1170D01*
D02*
X531Y1170D02*
X529Y1056D01*
D02*
X780Y970D02*
X993Y781D01*
D02*
X993Y781D02*
X993Y632D01*
D02*
X931Y1407D02*
X880Y1356D01*
D02*
X1669Y1407D02*
X931Y1407D01*
D02*
X780Y1070D02*
X780Y970D01*
D02*
X880Y1156D02*
X780Y1070D01*
D02*
X880Y1356D02*
X880Y1156D01*
D02*
X721Y522D02*
X621Y411D01*
D02*
X993Y632D02*
X845Y522D01*
D02*
X845Y522D02*
X721Y522D01*
G54D20*
D02*
X731Y919D02*
X548Y759D01*
D02*
X731Y1119D02*
X731Y919D01*
D02*
X818Y1194D02*
X731Y1119D01*
D02*
X818Y1344D02*
X818Y1194D01*
D02*
X944Y1470D02*
X818Y1344D01*
D02*
X1631Y1470D02*
X944Y1470D01*
G54D19*
D02*
X944Y1532D02*
X780Y1370D01*
D02*
X1607Y1532D02*
X944Y1532D01*
D02*
X943Y1602D02*
X814Y1633D01*
D02*
X814Y1633D02*
X580Y1632D01*
D02*
X1582Y1602D02*
X943Y1602D01*
D02*
X580Y1632D02*
X484Y1559D01*
D02*
X484Y1559D02*
X380Y1543D01*
D02*
X380Y1543D02*
X213Y1388D01*
D02*
X529Y1056D02*
X598Y1056D01*
D02*
X2105Y1843D02*
X1669Y1407D01*
G54D20*
D02*
X1824Y1682D02*
X1631Y1470D01*
D02*
X2000Y1840D02*
X1824Y1682D01*
G54D19*
D02*
X1905Y1843D02*
X1607Y1532D01*
D02*
X1805Y1842D02*
X1582Y1602D01*
G54D18*
D02*
X2611Y2321D02*
X2425Y2478D01*
D02*
X2982Y2321D02*
X2611Y2321D01*
G54D19*
D02*
X3157Y2444D02*
X3157Y2494D01*
D02*
X3243Y2344D02*
X3157Y2444D01*
D02*
X3317Y2344D02*
X3243Y2344D01*
D02*
X3157Y2494D02*
X3025Y2581D01*
G54D18*
D02*
X3493Y1943D02*
X3480Y2294D01*
D02*
X3480Y2294D02*
X3107Y2294D01*
D02*
X3107Y2294D02*
X2982Y2321D01*
D02*
X3393Y370D02*
X3394Y628D01*
D02*
X3276Y367D02*
X3393Y370D01*
D02*
X3176Y281D02*
X3276Y367D01*
D02*
X3393Y370D02*
X3469Y281D01*
D02*
X3469Y281D02*
X3468Y194D01*
D02*
X3421Y1917D02*
X3493Y1943D01*
D02*
X3394Y628D02*
X3393Y370D01*
D02*
X3022Y282D02*
X3176Y281D01*
G54D19*
D02*
X2259Y1166D02*
X2228Y1235D01*
D02*
X1456Y1070D02*
X2080Y1070D01*
D02*
X1386Y1129D02*
X1456Y1070D01*
D02*
X2080Y1070D02*
X2150Y1129D01*
G54D18*
D02*
X3302Y255D02*
X3323Y193D01*
D02*
X3023Y193D02*
X3002Y255D01*
G54D20*
D02*
X1117Y1743D02*
X1303Y1743D01*
D02*
X1071Y1698D02*
X1117Y1743D01*
D02*
X1303Y1743D02*
X1457Y2020D01*
D02*
X1818Y2020D02*
X1862Y2177D01*
D02*
X1862Y2177D02*
X2338Y2177D01*
D02*
X1457Y2020D02*
X1818Y2020D01*
D02*
X1518Y1981D02*
X1363Y1697D01*
D02*
X1580Y1943D02*
X1462Y1697D01*
D02*
X1870Y1943D02*
X1580Y1943D01*
D02*
X1917Y2116D02*
X1870Y1943D01*
D02*
X2414Y2116D02*
X1917Y2116D01*
D02*
X2338Y2177D02*
X2395Y2250D01*
D02*
X1842Y1980D02*
X1518Y1981D01*
D02*
X2382Y2148D02*
X1892Y2148D01*
D02*
X1891Y2148D02*
X1842Y1980D01*
D02*
X2473Y2250D02*
X2382Y2148D01*
D02*
X2551Y2251D02*
X2414Y2116D01*
G54D19*
D02*
X2343Y1494D02*
X2506Y1273D01*
D02*
X1980Y1444D02*
X2280Y1443D01*
D02*
X2280Y1443D02*
X2406Y1273D01*
D02*
X1950Y1159D02*
X1880Y1219D01*
D02*
X1880Y1319D02*
X1980Y1444D01*
D02*
X1880Y1219D02*
X1880Y1319D01*
D02*
X1943Y1494D02*
X2343Y1494D01*
G54D20*
D02*
X1055Y1775D02*
X972Y1697D01*
D02*
X1273Y1775D02*
X1055Y1775D01*
D02*
X1793Y2057D02*
X1418Y2056D01*
D02*
X1836Y2209D02*
X1793Y2057D01*
D02*
X2290Y2209D02*
X1836Y2209D01*
D02*
X1418Y2056D02*
X1273Y1775D01*
D02*
X2318Y2249D02*
X2290Y2209D01*
G54D19*
D02*
X1943Y1294D02*
X2030Y1394D01*
D02*
X1943Y1231D02*
X1943Y1294D01*
D02*
X2030Y1394D02*
X2218Y1394D01*
D02*
X2049Y1158D02*
X1943Y1231D01*
D02*
X2218Y1394D02*
X2306Y1273D01*
D02*
X2407Y1543D02*
X2606Y1273D01*
D02*
X1584Y1162D02*
X1906Y1544D01*
D02*
X1906Y1544D02*
X2407Y1543D01*
D02*
X1683Y1163D02*
X1943Y1494D01*
D02*
X2271Y442D02*
X2351Y372D01*
D02*
X1099Y672D02*
X1112Y695D01*
D02*
X851Y492D02*
X1099Y672D01*
D02*
X788Y452D02*
X851Y492D01*
D02*
X2656Y432D02*
X2530Y357D01*
D02*
X2530Y357D02*
X2456Y218D01*
D02*
X2869Y432D02*
X2656Y432D01*
D02*
X2166Y442D02*
X2271Y442D01*
G54D18*
D02*
X2511Y437D02*
X2479Y517D01*
G54D19*
D02*
X2656Y432D02*
X2530Y357D01*
D02*
X2530Y357D02*
X2456Y218D01*
D02*
X2456Y218D02*
X2456Y80D01*
D02*
X2656Y570D02*
X2656Y432D01*
D02*
X2607Y619D02*
X2656Y570D01*
D02*
X2430Y620D02*
X2607Y619D01*
D02*
X2385Y668D02*
X2430Y620D01*
G54D18*
D02*
X2364Y663D02*
X2287Y567D01*
G54D19*
D02*
X2456Y218D02*
X2456Y80D01*
D02*
X2979Y299D02*
X2869Y432D01*
G54D18*
D02*
X2106Y2607D02*
X2293Y2607D01*
D02*
X1929Y2470D02*
X2106Y2607D01*
D02*
X1701Y2470D02*
X1929Y2470D01*
D02*
X1652Y2522D02*
X1701Y2470D01*
D02*
X2293Y2607D02*
X2384Y2516D01*
G54D20*
D02*
X1749Y479D02*
X1848Y533D01*
D02*
X1508Y498D02*
X1557Y474D01*
D02*
X1386Y455D02*
X1427Y492D01*
D02*
X1557Y474D02*
X1749Y479D01*
D02*
X1427Y492D02*
X1508Y498D01*
D02*
X1817Y607D02*
X1818Y757D01*
D02*
X1854Y562D02*
X1817Y607D01*
D02*
X1769Y443D02*
X1491Y442D01*
D02*
X1829Y498D02*
X1793Y473D01*
D02*
X1793Y473D02*
X1769Y443D01*
D02*
X1904Y486D02*
X1829Y498D01*
D02*
X1951Y528D02*
X1904Y486D01*
D02*
X1811Y386D02*
X1775Y411D01*
D02*
X1874Y393D02*
X1811Y386D01*
D02*
X1923Y405D02*
X1874Y393D01*
D02*
X1738Y411D02*
X1683Y355D01*
D02*
X1775Y411D02*
X1738Y411D01*
D02*
X2022Y438D02*
X1923Y405D01*
G54D19*
D02*
X1540Y274D02*
X1700Y275D01*
D02*
X1700Y275D02*
X1747Y319D01*
D02*
X1482Y226D02*
X1540Y274D01*
D02*
X1483Y72D02*
X1482Y226D01*
G54D18*
D02*
X518Y294D02*
X431Y294D01*
D02*
X594Y120D02*
X518Y294D01*
D02*
X2244Y314D02*
X2187Y254D01*
D02*
X3498Y1943D02*
X3421Y1916D01*
D02*
X3482Y2494D02*
X3498Y1943D01*
D02*
X3806Y1057D02*
X3743Y1012D01*
D02*
X3807Y1894D02*
X3806Y1057D01*
D02*
X3756Y1944D02*
X3807Y1894D01*
D02*
X3656Y1944D02*
X3756Y1944D01*
D02*
X3493Y1943D02*
X3656Y1944D01*
D02*
X3421Y1917D02*
X3493Y1943D01*
G54D20*
D02*
X2669Y657D02*
X2668Y721D01*
D02*
X2756Y560D02*
X2669Y657D01*
D02*
X2755Y759D02*
X2685Y828D01*
G54D21*
D02*
X2698Y894D02*
X2629Y894D01*
D02*
X2629Y894D02*
X2582Y858D01*
D02*
X2752Y856D02*
X2698Y894D01*
G54D20*
D02*
X2747Y942D02*
X2692Y945D01*
G54D19*
D02*
X2723Y1000D02*
X2623Y1000D01*
D02*
X2623Y1000D02*
X2585Y963D01*
D02*
X2753Y1025D02*
X2723Y1000D01*
G54D18*
D02*
X3445Y2549D02*
X3482Y2494D01*
G54D19*
D02*
X2080Y1343D02*
X2029Y1273D01*
D02*
X2156Y1343D02*
X2080Y1343D01*
D02*
X2206Y1273D02*
X2156Y1343D01*
G54D18*
D02*
X744Y2543D02*
X781Y2544D01*
D02*
X600Y2390D02*
X744Y2543D01*
G54D20*
D02*
X1811Y852D02*
X1729Y779D01*
D02*
X2147Y852D02*
X1811Y852D01*
D02*
X2513Y1019D02*
X2147Y852D01*
D02*
X2667Y1026D02*
X2513Y1019D01*
D02*
X3331Y1619D02*
X2927Y1620D01*
D02*
X2927Y1620D02*
X2903Y1589D01*
D02*
X3407Y1681D02*
X3331Y1619D01*
D02*
X3507Y1681D02*
X3407Y1681D01*
D02*
X3566Y1634D02*
X3507Y1681D01*
D02*
X2903Y1285D02*
X2667Y1026D01*
D02*
X2903Y1589D02*
X2903Y1285D01*
G54D18*
D02*
X904Y1883D02*
X547Y1882D01*
D02*
X1080Y1870D02*
X904Y1883D01*
D02*
X3322Y1069D02*
X3407Y1070D01*
D02*
X3493Y732D02*
X3417Y674D01*
D02*
X3493Y994D02*
X3493Y732D01*
D02*
X3407Y1070D02*
X3493Y994D01*
D02*
X1753Y569D02*
X1553Y903D01*
G54D20*
D02*
X3280Y1670D02*
X3441Y1807D01*
D02*
X2140Y894D02*
X2475Y1050D01*
D02*
X1880Y920D02*
X1942Y894D01*
D02*
X1942Y894D02*
X2140Y894D01*
D02*
X2847Y1298D02*
X2847Y1615D01*
D02*
X2847Y1615D02*
X2897Y1670D01*
D02*
X2636Y1050D02*
X2847Y1298D01*
D02*
X2897Y1670D02*
X3280Y1670D01*
D02*
X2475Y1050D02*
X2636Y1050D01*
G54D19*
D02*
X1493Y632D02*
X1553Y562D01*
D02*
X1493Y944D02*
X1493Y632D01*
D02*
X1518Y969D02*
X1493Y944D01*
D02*
X1968Y969D02*
X1518Y969D01*
D02*
X2019Y943D02*
X1968Y969D01*
D02*
X2232Y1081D02*
X2081Y945D01*
D02*
X2081Y945D02*
X2019Y943D01*
D02*
X2618Y1081D02*
X2232Y1081D01*
D02*
X2708Y1241D02*
X2618Y1081D01*
D02*
X1444Y594D02*
X1458Y565D01*
D02*
X1443Y994D02*
X1444Y594D01*
D02*
X1468Y1019D02*
X1443Y994D01*
D02*
X2007Y1019D02*
X1468Y1019D01*
D02*
X2032Y1002D02*
X2007Y1019D01*
D02*
X1390Y2110D02*
X1266Y1861D01*
D02*
X1595Y2109D02*
X1390Y2110D01*
G54D18*
D02*
X379Y2016D02*
X497Y1902D01*
D02*
X327Y2521D02*
X386Y2457D01*
D02*
X386Y2457D02*
X379Y2016D01*
G54D19*
D02*
X1681Y2202D02*
X1595Y2109D01*
D02*
X1681Y2289D02*
X1681Y2202D01*
D02*
X1702Y2341D02*
X1681Y2289D01*
D02*
X323Y342D02*
X404Y416D01*
G54D18*
D02*
X211Y1977D02*
X269Y1919D01*
G54D19*
D02*
X344Y957D02*
X293Y957D01*
D02*
X404Y889D02*
X344Y957D01*
D02*
X293Y957D02*
X206Y1055D01*
D02*
X268Y345D02*
X323Y342D01*
D02*
X218Y404D02*
X268Y345D01*
D02*
X404Y416D02*
X404Y889D01*
G54D18*
D02*
X429Y1050D02*
X593Y1055D01*
D02*
X339Y1130D02*
X429Y1050D01*
G54D19*
D02*
X281Y1056D02*
X210Y1148D01*
D02*
X298Y1056D02*
X281Y1056D01*
G54D18*
D02*
X231Y1245D02*
X221Y1252D01*
D02*
X298Y1170D02*
X231Y1245D01*
G54D19*
D02*
X280Y255D02*
X281Y169D01*
D02*
X531Y481D02*
X280Y255D01*
D02*
X531Y621D02*
X531Y481D01*
G54D18*
D02*
X381Y232D02*
X381Y169D01*
D02*
X396Y271D02*
X381Y232D01*
D02*
X269Y1819D02*
X211Y1762D01*
D02*
X269Y1919D02*
X269Y1819D01*
G54D19*
D02*
X3644Y1719D02*
X3644Y1494D01*
D02*
X3644Y1494D02*
X3693Y1494D01*
D02*
X3642Y1494D02*
X3655Y1094D01*
D02*
X3693Y1494D02*
X3642Y1494D01*
D02*
X3655Y1094D02*
X3693Y1094D01*
D02*
X3656Y1094D02*
X3693Y1094D01*
D02*
X3702Y463D02*
X3660Y510D01*
D02*
X3660Y1043D02*
X3656Y1094D01*
D02*
X3660Y510D02*
X3660Y1043D01*
D02*
X1069Y981D02*
X1167Y907D01*
D02*
X1167Y907D02*
X1168Y568D01*
D02*
X1068Y1148D02*
X1069Y981D01*
D02*
X1117Y1199D02*
X1068Y1148D01*
D02*
X1198Y1229D02*
X1236Y1267D01*
D02*
X1049Y1229D02*
X1198Y1229D01*
D02*
X889Y1066D02*
X1049Y1229D01*
D02*
X3660Y2512D02*
X3660Y2072D01*
D02*
X3642Y2547D02*
X3660Y2512D01*
D02*
X3660Y2072D02*
X3700Y2036D01*
D02*
X3702Y1758D02*
X3644Y1719D01*
D02*
X1235Y1199D02*
X1117Y1199D01*
D02*
X1333Y1270D02*
X1235Y1199D01*
G54D18*
D02*
X1160Y1937D02*
X1192Y1843D01*
D02*
X1156Y2170D02*
X1160Y1937D01*
D02*
X1582Y2172D02*
X1156Y2170D01*
D02*
X1625Y2222D02*
X1582Y2172D01*
D02*
X1625Y2346D02*
X1625Y2222D01*
D02*
X1682Y2433D02*
X1625Y2346D01*
D02*
X1836Y2433D02*
X1682Y2433D01*
D02*
X1910Y2320D02*
X1836Y2433D01*
D02*
X2018Y2319D02*
X1910Y2320D01*
D02*
X2127Y2322D02*
X2018Y2319D01*
D02*
X2156Y2284D02*
X2127Y2322D01*
D02*
X1049Y2172D02*
X1154Y2172D01*
D02*
X1160Y1937D02*
X1192Y1843D01*
D02*
X1154Y2172D02*
X1160Y1937D01*
D02*
X3801Y2102D02*
X3736Y2037D01*
D02*
X3818Y2194D02*
X3818Y2144D01*
D02*
X3818Y2294D02*
X3818Y2244D01*
D02*
X3818Y2344D02*
X3818Y2394D01*
D02*
X106Y744D02*
X106Y794D01*
D02*
X1791Y231D02*
X1841Y231D01*
D02*
X1991Y231D02*
X2041Y231D01*
D02*
X1891Y231D02*
X1941Y231D01*
D02*
X2091Y231D02*
X2141Y231D01*
D02*
X3818Y775D02*
X3818Y813D01*
D02*
X3818Y675D02*
X3818Y713D01*
D02*
X3818Y575D02*
X3818Y613D01*
D02*
X3797Y522D02*
X3740Y466D01*
D02*
X111Y2077D02*
X176Y2012D01*
D02*
X93Y2169D02*
X93Y2119D01*
D02*
X93Y2219D02*
X93Y2269D01*
D02*
X93Y2319D02*
X93Y2369D01*
D02*
X123Y502D02*
X188Y437D01*
D02*
X106Y544D02*
X106Y594D01*
D02*
X106Y644D02*
X106Y694D01*
D02*
X212Y1660D02*
X281Y1720D01*
D02*
X3644Y1894D02*
X3531Y1894D01*
D02*
X3695Y1877D02*
X3644Y1894D01*
D02*
X3531Y1894D02*
X3473Y1837D01*
D02*
X468Y1656D02*
X468Y1635D01*
D02*
X419Y1720D02*
X468Y1656D01*
D02*
X281Y1720D02*
X419Y1720D01*
G54D20*
D02*
X1216Y627D02*
X1216Y1024D01*
D02*
X1255Y461D02*
X1222Y497D01*
D02*
X1222Y497D02*
X1216Y627D01*
D02*
X1216Y1024D02*
X1259Y1123D01*
G54D19*
D02*
X658Y318D02*
X759Y428D01*
D02*
X658Y157D02*
X658Y318D01*
D02*
X716Y89D02*
X658Y157D01*
G54D20*
D02*
X1403Y386D02*
X1222Y386D01*
D02*
X1452Y426D02*
X1403Y386D01*
D02*
X1222Y386D02*
X1074Y262D01*
D02*
X1074Y262D02*
X925Y262D01*
D02*
X925Y262D02*
X852Y204D01*
D02*
X988Y292D02*
X850Y293D01*
D02*
X850Y293D02*
X752Y205D01*
D02*
X1010Y325D02*
X988Y292D01*
G04 End of Copper1*
M02*