<?xml version="1.0" encoding="UTF-8" standalone="no"?>
<!-- Created with Inkscape (http://www.inkscape.org/) -->

<svg
   width="43.113647mm"
   height="22.256523mm"
   viewBox="0 0 43.113647 22.256524"
   version="1.1"
   id="svg5"
   xml:space="preserve"
   inkscape:version="1.2.2 (b0a8486, 2022-12-01)"
   sodipodi:docname="PCB_SVGc.svg"
   xmlns:inkscape="http://www.inkscape.org/namespaces/inkscape"
   xmlns:sodipodi="http://sodipodi.sourceforge.net/DTD/sodipodi-0.dtd"
   xmlns="http://www.w3.org/2000/svg"
   xmlns:svg="http://www.w3.org/2000/svg"><sodipodi:namedview
     id="namedview7"
     pagecolor="#ffffff"
     bordercolor="#000000"
     borderopacity="0.25"
     inkscape:showpageshadow="2"
     inkscape:pageopacity="0.0"
     inkscape:pagecheckerboard="0"
     inkscape:deskcolor="#d1d1d1"
     inkscape:document-units="mm"
     showgrid="false"
     inkscape:zoom="2.5999218"
     inkscape:cx="23.462244"
     inkscape:cy="113.65726"
     inkscape:window-width="1680"
     inkscape:window-height="997"
     inkscape:window-x="0"
     inkscape:window-y="25"
     inkscape:window-maximized="0"
     inkscape:current-layer="board" /><defs
     id="defs2"><marker
       id="DistanceX"
       orient="auto"
       refX="0"
       refY="0"
       style="overflow:visible"><path
         d="M 3,-3 -3,3 M 0,-5 V 5"
         style="stroke:#000000;stroke-width:0.5"
         id="path1793" /></marker><pattern
       id="Hatch"
       patternUnits="userSpaceOnUse"
       width="8"
       height="8"
       x="0"
       y="0"><path
         d="M8 4 l-4,4"
         stroke="#000000"
         stroke-width="0.25"
         linecap="square"
         id="path1796" /><path
         d="M6 2 l-4,4"
         stroke="#000000"
         stroke-width="0.25"
         linecap="square"
         id="path1798" /><path
         d="M4 0 l-4,4"
         stroke="#000000"
         stroke-width="0.25"
         linecap="square"
         id="path1800" /></pattern><symbol
       id="*MODEL_SPACE" /><symbol
       id="*PAPER_SPACE" /><inkscape:path-effect
       effect="fill_between_many"
       method="originald"
       linkedpaths="#path2951,0,1"
       id="path-effect394"
       is_visible="true"
       lpeversion="0"
       join="true"
       close="true"
       autoreverse="true" /><marker
       id="DistanceX-7"
       orient="auto"
       refX="0"
       refY="0"
       style="overflow:visible"><path
         d="M 3,-3 -3,3 M 0,-5 V 5"
         style="stroke:#000000;stroke-width:0.5"
         id="path1651" /></marker><pattern
       id="Hatch-1"
       patternUnits="userSpaceOnUse"
       width="8"
       height="8"
       x="0"
       y="0"><path
         d="M8 4 l-4,4"
         stroke="#000000"
         stroke-width="0.25"
         linecap="square"
         id="path1654" /><path
         d="M6 2 l-4,4"
         stroke="#000000"
         stroke-width="0.25"
         linecap="square"
         id="path1656" /><path
         d="M4 0 l-4,4"
         stroke="#000000"
         stroke-width="0.25"
         linecap="square"
         id="path1658" /></pattern><symbol
       id="*Model_Space" /><symbol
       id="*Paper_Space" /><symbol
       id="*Paper_Space0" /><marker
       id="DistanceX-4"
       orient="auto"
       refX="0"
       refY="0"
       style="overflow:visible"><path
         d="M 3,-3 -3,3 M 0,-5 V 5"
         style="stroke:#000000;stroke-width:0.5"
         id="path1827" /></marker><pattern
       id="Hatch-8"
       patternUnits="userSpaceOnUse"
       width="8"
       height="8"
       x="0"
       y="0"><path
         d="M8 4 l-4,4"
         stroke="#000000"
         stroke-width="0.25"
         linecap="square"
         id="path1830" /><path
         d="M6 2 l-4,4"
         stroke="#000000"
         stroke-width="0.25"
         linecap="square"
         id="path1832" /><path
         d="M4 0 l-4,4"
         stroke="#000000"
         stroke-width="0.25"
         linecap="square"
         id="path1834" /></pattern><symbol
       id="*MODEL_SPACE-0" /><symbol
       id="*PAPER_SPACE-4" /><marker
       id="DistanceX-8"
       orient="auto"
       refX="0"
       refY="0"
       style="overflow:visible"><path
         d="M 3,-3 -3,3 M 0,-5 V 5"
         style="stroke:#000000;stroke-width:0.5"
         id="path2339" /></marker><pattern
       id="Hatch-15"
       patternUnits="userSpaceOnUse"
       width="8"
       height="8"
       x="0"
       y="0"><path
         d="M8 4 l-4,4"
         stroke="#000000"
         stroke-width="0.25"
         linecap="square"
         id="path2342" /><path
         d="M6 2 l-4,4"
         stroke="#000000"
         stroke-width="0.25"
         linecap="square"
         id="path2344" /><path
         d="M4 0 l-4,4"
         stroke="#000000"
         stroke-width="0.25"
         linecap="square"
         id="path2346" /></pattern><symbol
       id="*MODEL_SPACE-3" /><symbol
       id="*PAPER_SPACE-5" /><marker
       id="DistanceX-78"
       orient="auto"
       refX="0"
       refY="0"
       style="overflow:visible"><path
         d="M 3,-3 -3,3 M 0,-5 V 5"
         style="stroke:#000000;stroke-width:0.5"
         id="path4040" /></marker><pattern
       id="Hatch-4"
       patternUnits="userSpaceOnUse"
       width="8"
       height="8"
       x="0"
       y="0"><path
         d="M8 4 l-4,4"
         stroke="#000000"
         stroke-width="0.25"
         linecap="square"
         id="path4043" /><path
         d="M6 2 l-4,4"
         stroke="#000000"
         stroke-width="0.25"
         linecap="square"
         id="path4045" /><path
         d="M4 0 l-4,4"
         stroke="#000000"
         stroke-width="0.25"
         linecap="square"
         id="path4047" /></pattern><symbol
       id="*MODEL_SPACE-1" /><symbol
       id="*PAPER_SPACE-7" /><marker
       id="DistanceX-77"
       orient="auto"
       refX="0"
       refY="0"
       style="overflow:visible"><path
         d="M 3,-3 -3,3 M 0,-5 V 5"
         style="stroke:#000000;stroke-width:0.5"
         id="path4969" /></marker><pattern
       id="Hatch-44"
       patternUnits="userSpaceOnUse"
       width="8"
       height="8"
       x="0"
       y="0"><path
         d="M8 4 l-4,4"
         stroke="#000000"
         stroke-width="0.25"
         linecap="square"
         id="path4972" /><path
         d="M6 2 l-4,4"
         stroke="#000000"
         stroke-width="0.25"
         linecap="square"
         id="path4974" /><path
         d="M4 0 l-4,4"
         stroke="#000000"
         stroke-width="0.25"
         linecap="square"
         id="path4976" /></pattern><symbol
       id="*MODEL_SPACE-9" /><symbol
       id="*PAPER_SPACE-1" /></defs><g
     inkscape:groupmode="layer"
     id="layer1"
     inkscape:label="silkscreen"
     transform="translate(-0.121651,-0.121651)" /><g
     inkscape:groupmode="layer"
     id="board"
     inkscape:label="board"
     transform="translate(-27.864449,-22.469946)"
     style="display:inline"><path
       id="rect522"
       style="opacity:1;fill:#10f3ff;fill-opacity:1;fill-rule:evenodd;stroke:none;stroke-width:0.243301"
       d="m 47.721635,22.469946 v 8.468734 h -1.059367 a 9.6234703,9.6234703 0 0 0 -9.174117,-6.720003 9.6234703,9.6234703 0 0 0 -9.623702,9.623702 9.6234703,9.6234703 0 0 0 9.623702,9.623185 9.6234703,9.6234703 0 0 0 9.173084,-6.72207 h 1.0604 v 7.982975 H 70.978097 V 22.469946 Z m -0.510046,9.461955 a 0.42992246,0.42992255 0 0 1 0.429947,0.429431 0.42992246,0.42992255 0 0 1 -0.429947,0.429948 0.42992246,0.42992255 0 0 1 -0.429948,-0.429948 0.42992246,0.42992255 0 0 1 0.429948,-0.429431 z m 0.02739,1.674316 a 0.42992246,0.42992255 0 0 1 0.429948,0.429432 0.42992246,0.42992255 0 0 1 -0.429948,0.429948 0.42992246,0.42992255 0 0 1 -0.429948,-0.429948 0.42992246,0.42992255 0 0 1 0.429948,-0.429432 z m 0,1.591635 a 0.42992246,0.42992255 0 0 1 0.429948,0.429947 0.42992246,0.42992255 0 0 1 -0.429948,0.429948 0.42992246,0.42992255 0 0 1 -0.429948,-0.429948 0.42992246,0.42992255 0 0 1 0.429948,-0.429947 z" /></g></svg>
