<?xml version="1.0" encoding="UTF-8" standalone="no"?>
<!-- Created with Inkscape (http://www.inkscape.org/) -->

<svg
   width="43.377197mm"
   height="22.500435mm"
   viewBox="0 0 43.377197 22.500435"
   version="1.1"
   id="svg5"
   xml:space="preserve"
   inkscape:version="1.2.2 (b0a8486, 2022-12-01)"
   sodipodi:docname="PCB_SVGc 2.svg"
   xmlns:inkscape="http://www.inkscape.org/namespaces/inkscape"
   xmlns:sodipodi="http://sodipodi.sourceforge.net/DTD/sodipodi-0.dtd"
   xmlns="http://www.w3.org/2000/svg"
   xmlns:svg="http://www.w3.org/2000/svg"><sodipodi:namedview
     id="namedview7"
     pagecolor="#ffffff"
     bordercolor="#000000"
     borderopacity="0.25"
     inkscape:showpageshadow="2"
     inkscape:pageopacity="0.0"
     inkscape:pagecheckerboard="0"
     inkscape:deskcolor="#d1d1d1"
     inkscape:document-units="mm"
     showgrid="false"
     inkscape:zoom="3.1832145"
     inkscape:cx="94.244357"
     inkscape:cy="18.063502"
     inkscape:window-width="1680"
     inkscape:window-height="997"
     inkscape:window-x="0"
     inkscape:window-y="25"
     inkscape:window-maximized="0"
     inkscape:current-layer="board" /><defs
     id="defs2"><marker
       id="DistanceX"
       orient="auto"
       refX="0"
       refY="0"
       style="overflow:visible"><path
         d="M 3,-3 -3,3 M 0,-5 V 5"
         style="stroke:#000000;stroke-width:0.5"
         id="path1793" /></marker><pattern
       id="Hatch"
       patternUnits="userSpaceOnUse"
       width="8"
       height="8"
       x="0"
       y="0"><path
         d="M8 4 l-4,4"
         stroke="#000000"
         stroke-width="0.25"
         linecap="square"
         id="path1796" /><path
         d="M6 2 l-4,4"
         stroke="#000000"
         stroke-width="0.25"
         linecap="square"
         id="path1798" /><path
         d="M4 0 l-4,4"
         stroke="#000000"
         stroke-width="0.25"
         linecap="square"
         id="path1800" /></pattern><symbol
       id="*MODEL_SPACE" /><symbol
       id="*PAPER_SPACE" /><inkscape:path-effect
       effect="fill_between_many"
       method="originald"
       linkedpaths="#path2951,0,1"
       id="path-effect394"
       is_visible="true"
       lpeversion="0"
       join="true"
       close="true"
       autoreverse="true" /><marker
       id="DistanceX-7"
       orient="auto"
       refX="0"
       refY="0"
       style="overflow:visible"><path
         d="M 3,-3 -3,3 M 0,-5 V 5"
         style="stroke:#000000;stroke-width:0.5"
         id="path1651" /></marker><pattern
       id="Hatch-1"
       patternUnits="userSpaceOnUse"
       width="8"
       height="8"
       x="0"
       y="0"><path
         d="M8 4 l-4,4"
         stroke="#000000"
         stroke-width="0.25"
         linecap="square"
         id="path1654" /><path
         d="M6 2 l-4,4"
         stroke="#000000"
         stroke-width="0.25"
         linecap="square"
         id="path1656" /><path
         d="M4 0 l-4,4"
         stroke="#000000"
         stroke-width="0.25"
         linecap="square"
         id="path1658" /></pattern><symbol
       id="*Model_Space" /><symbol
       id="*Paper_Space" /><symbol
       id="*Paper_Space0" /><marker
       id="DistanceX-4"
       orient="auto"
       refX="0"
       refY="0"
       style="overflow:visible"><path
         d="M 3,-3 -3,3 M 0,-5 V 5"
         style="stroke:#000000;stroke-width:0.5"
         id="path1827" /></marker><pattern
       id="Hatch-8"
       patternUnits="userSpaceOnUse"
       width="8"
       height="8"
       x="0"
       y="0"><path
         d="M8 4 l-4,4"
         stroke="#000000"
         stroke-width="0.25"
         linecap="square"
         id="path1830" /><path
         d="M6 2 l-4,4"
         stroke="#000000"
         stroke-width="0.25"
         linecap="square"
         id="path1832" /><path
         d="M4 0 l-4,4"
         stroke="#000000"
         stroke-width="0.25"
         linecap="square"
         id="path1834" /></pattern><symbol
       id="*MODEL_SPACE-0" /><symbol
       id="*PAPER_SPACE-4" /><marker
       id="DistanceX-8"
       orient="auto"
       refX="0"
       refY="0"
       style="overflow:visible"><path
         d="M 3,-3 -3,3 M 0,-5 V 5"
         style="stroke:#000000;stroke-width:0.5"
         id="path2339" /></marker><pattern
       id="Hatch-15"
       patternUnits="userSpaceOnUse"
       width="8"
       height="8"
       x="0"
       y="0"><path
         d="M8 4 l-4,4"
         stroke="#000000"
         stroke-width="0.25"
         linecap="square"
         id="path2342" /><path
         d="M6 2 l-4,4"
         stroke="#000000"
         stroke-width="0.25"
         linecap="square"
         id="path2344" /><path
         d="M4 0 l-4,4"
         stroke="#000000"
         stroke-width="0.25"
         linecap="square"
         id="path2346" /></pattern><symbol
       id="*MODEL_SPACE-3" /><symbol
       id="*PAPER_SPACE-5" /><marker
       id="DistanceX-78"
       orient="auto"
       refX="0"
       refY="0"
       style="overflow:visible"><path
         d="M 3,-3 -3,3 M 0,-5 V 5"
         style="stroke:#000000;stroke-width:0.5"
         id="path4040" /></marker><pattern
       id="Hatch-4"
       patternUnits="userSpaceOnUse"
       width="8"
       height="8"
       x="0"
       y="0"><path
         d="M8 4 l-4,4"
         stroke="#000000"
         stroke-width="0.25"
         linecap="square"
         id="path4043" /><path
         d="M6 2 l-4,4"
         stroke="#000000"
         stroke-width="0.25"
         linecap="square"
         id="path4045" /><path
         d="M4 0 l-4,4"
         stroke="#000000"
         stroke-width="0.25"
         linecap="square"
         id="path4047" /></pattern><symbol
       id="*MODEL_SPACE-1" /><symbol
       id="*PAPER_SPACE-7" /><marker
       id="DistanceX-77"
       orient="auto"
       refX="0"
       refY="0"
       style="overflow:visible"><path
         d="M 3,-3 -3,3 M 0,-5 V 5"
         style="stroke:#000000;stroke-width:0.5"
         id="path4969" /></marker><pattern
       id="Hatch-44"
       patternUnits="userSpaceOnUse"
       width="8"
       height="8"
       x="0"
       y="0"><path
         d="M8 4 l-4,4"
         stroke="#000000"
         stroke-width="0.25"
         linecap="square"
         id="path4972" /><path
         d="M6 2 l-4,4"
         stroke="#000000"
         stroke-width="0.25"
         linecap="square"
         id="path4974" /><path
         d="M4 0 l-4,4"
         stroke="#000000"
         stroke-width="0.25"
         linecap="square"
         id="path4976" /></pattern><symbol
       id="*MODEL_SPACE-9" /><symbol
       id="*PAPER_SPACE-1" /></defs><g
     inkscape:groupmode="layer"
     id="board"
     inkscape:label="Board"
     transform="translate(-23.445262,-15.169506)"
     style="display:inline"><path
       id="path1898"
       style="display:none;fill:#10f3ff;fill-opacity:1;fill-rule:evenodd;stroke:none;stroke-width:0.243301"
       d="m 43.481248,15.292496 v 8.468734 h -1.059367 c -1.265977,-4.000515 -4.978069,-6.719608 -9.174117,-6.720003 -5.315077,-1.28e-4 -9.62383,4.308625 -9.623702,9.623702 1.58e-4,5.314875 4.308827,9.623313 9.623702,9.623185 4.196226,-0.0011 7.907955,-2.7211 9.173084,-6.72207 h 1.0604 l -0.09689,7.982975 H 66.73771 V 15.292496 Z m -0.510046,9.461955 c 0.237257,-1.4e-5 0.429676,0.192174 0.429947,0.429431 1.4e-5,0.237459 -0.192488,0.429962 -0.429947,0.429948 -0.23746,1.4e-5 -0.429962,-0.192488 -0.429948,-0.429948 2.71e-4,-0.237258 0.19269,-0.429445 0.429948,-0.429431 z m 0.02739,1.674316 c 0.237258,-1.4e-5 0.429677,0.192174 0.429948,0.429432 1.4e-5,0.23746 -0.192488,0.429962 -0.429948,0.429948 -0.23746,1.4e-5 -0.429962,-0.192488 -0.429948,-0.429948 2.71e-4,-0.237258 0.19269,-0.429446 0.429948,-0.429432 z m 0,1.591635 c 0.237459,-1.4e-5 0.429962,0.192488 0.429948,0.429947 1.4e-5,0.23746 -0.192488,0.429962 -0.429948,0.429948 -0.23746,1.4e-5 -0.429962,-0.192488 -0.429948,-0.429948 -1.4e-5,-0.237459 0.192489,-0.429961 0.429948,-0.429947 z"
       sodipodi:nodetypes="ccccccccccccccccccccccccccc" /><rect
       style="display:none;fill:#00ff00;fill-rule:evenodd;stroke:none;stroke-width:0.202452"
       id="rect2255"
       width="23.5"
       height="22.5"
       x="43.322418"
       y="15.169708" /><circle
       style="display:none;fill:#00ff00;fill-rule:evenodd;stroke-width:0.204328"
       id="path2361"
       cx="33.195316"
       cy="26.786482"
       r="9.75" /><rect
       style="display:none;fill:#00ff00;fill-rule:evenodd;stroke:none;stroke-width:0.2"
       id="rect2762"
       width="2.8241205"
       height="5.7710285"
       x="41.714806"
       y="23.764856" /><circle
       style="display:none;fill:#ff00ff;fill-rule:evenodd;stroke:none;stroke-width:0.19546"
       id="path2764"
       cx="42.892902"
       cy="25.615395"
       r="0.5" /><circle
       style="display:none;fill:#ff00ff;fill-rule:evenodd;stroke:none;stroke-width:0.19546"
       id="circle2818"
       cx="42.892902"
       cy="27.825577"
       r="0.5" /><path
       id="rect2822"
       style="display:inline;fill:#00ff00;fill-rule:evenodd;stroke:none;stroke-width:0.202452"
       d="m 55.309984,-5.2897103 a 9.75,9.75 0 0 0 -9.75031,9.7503092 9.75,9.75 0 0 0 6.691065,9.2521481 v 1.456759 h -8.928137 v 8.595341 h -0.865064 a 9.75,9.75 0 0 0 -9.261967,-6.728272 9.75,9.75 0 0 0 -9.750309,9.749793 9.75,9.75 0 0 0 9.750309,9.750309 9.75,9.75 0 0 0 9.352401,-7.000606 h 0.77463 v 8.13387 h 9.034074 v 1.455209 a 9.75,9.75 0 0 0 -7.008358,9.3524 9.75,9.75 0 0 0 9.749792,9.75031 9.75,9.75 0 0 0 9.75031,-9.75031 9.75,9.75 0 0 0 -6.72052,-9.266617 v -1.540992 h 8.694559 v -8.271846 h 1.380795 a 9.75,9.75 0 0 0 9.231994,6.63267 9.75,9.75 0 0 0 9.749793,-9.750309 9.75,9.75 0 0 0 -9.749793,-9.749793 9.75,9.75 0 0 0 -9.376172,7.096208 H 66.822459 V 15.169506 H 58.021963 V 13.820751 A 9.75,9.75 0 0 0 65.059776,4.4605989 9.75,9.75 0 0 0 55.309984,-5.2897103 Z M 56.33111,14.057946 a 0.5,0.5 0 0 1 0.499711,0.500228 0.5,0.5 0 0 1 -0.499711,0.500228 0.5,0.5 0 0 1 -0.500228,-0.500228 0.5,0.5 0 0 1 0.500228,-0.500228 z m -2.222087,0.05323 a 0.5,0.5 0 0 1 0.499711,0.499711 0.5,0.5 0 0 1 -0.499711,0.500228 0.5,0.5 0 0 1 -0.500227,-0.500228 0.5,0.5 0 0 1 0.500227,-0.499711 z m 13.341305,10.731128 a 0.5,0.5 0 0 1 0.499711,0.499711 0.5,0.5 0 0 1 -0.499711,0.500228 0.5,0.5 0 0 1 -0.500228,-0.500228 0.5,0.5 0 0 1 0.500228,-0.499711 z m -24.557674,0.272851 a 0.5,0.5 0 0 1 0.500228,0.500228 0.5,0.5 0 0 1 -0.500228,0.500228 0.5,0.5 0 0 1 -0.499711,-0.500228 0.5,0.5 0 0 1 0.499711,-0.500228 z m 24.557674,2.072225 a 0.5,0.5 0 0 1 0.499711,0.500228 0.5,0.5 0 0 1 -0.499711,0.500228 0.5,0.5 0 0 1 -0.500228,-0.500228 0.5,0.5 0 0 1 0.500228,-0.500228 z m -24.557674,0.137976 a 0.5,0.5 0 0 1 0.500228,0.500228 0.5,0.5 0 0 1 -0.500228,0.500228 0.5,0.5 0 0 1 -0.499711,-0.500228 0.5,0.5 0 0 1 0.499711,-0.500228 z m 11.163143,10.540442 a 0.5,0.5 0 0 1 0.500228,0.499711 0.5,0.5 0 0 1 -0.500228,0.500228 0.5,0.5 0 0 1 -0.499711,-0.500228 0.5,0.5 0 0 1 0.499711,-0.499711 z m 2.43396,0.05271 a 0.5,0.5 0 0 1 0.499711,0.500228 0.5,0.5 0 0 1 -0.499711,0.499711 0.5,0.5 0 0 1 -0.500228,-0.499711 0.5,0.5 0 0 1 0.500228,-0.500228 z"
       inkscape:label="X5" /><path
       id="rect379"
       style="display:none;fill:#00ff00;fill-rule:evenodd;stroke:none;stroke-width:0.202452"
       d="m 43.322602,15.169506 v 8.595341 h -0.857829 a 9.75,9.75 0 0 0 -9.269202,-6.728272 9.75,9.75 0 0 0 -9.750309,9.749793 9.75,9.75 0 0 0 9.750309,9.750309 9.75,9.75 0 0 0 9.349817,-7.000606 h 0.777214 v 8.13387 H 66.822459 V 15.169506 Z m -0.429948,9.945646 a 0.5,0.5 0 0 1 0.500228,0.500228 0.5,0.5 0 0 1 -0.500228,0.500228 0.5,0.5 0 0 1 -0.499711,-0.500228 0.5,0.5 0 0 1 0.499711,-0.500228 z m 0,2.277381 a 0.5,0.5 0 0 1 0.500228,0.500227 0.5,0.5 0 0 1 -0.500228,0.499711 0.5,0.5 0 0 1 -0.499711,-0.499711 0.5,0.5 0 0 1 0.499711,-0.500227 z" /></g><g
     inkscape:groupmode="layer"
     id="silkscreen"
     inkscape:label="silkscreen"
     style="display:inline;fill:#00ff00;fill-opacity:0.0896861"
     transform="translate(-43.207882,-56.512201)" /></svg>
