<?xml version='1.0' encoding='UTF-8' standalone='no'?>
<svg
  xmlns:dc="http://purl.org/dc/elements/1.1/"
  xmlns:cc="http://creativecommons.org/ns#"
  xmlns:rdf="http://www.w3.org/1999/02/22-rdf-syntax-ns#"
  xmlns:svg="http://www.w3.org/2000/svg"
  xmlns="http://www.w3.org/2000/svg"
  x="0in"
  viewBox="0 0 594.99997 600"
  width="0.59499997in"
  height="0.60000002in"
  y="0in"
  version="1.2"
  id="svg190">
  <metadata
    id="metadata196">
    <rdf:RDF>
      <cc:Work
        rdf:about="">
        <dc:format>image/svg+xml</dc:format>
        <dc:type
          rdf:resource="http://purl.org/dc/dcmitype/StillImage"
        />
        <dc:title/>
      </cc:Work>
    </rdf:RDF>
  </metadata>
  <defs
    id="defs194"
  />
  <desc
    id="desc2">
    <referenceFile>prefix0000_3fd366eac77828e6d0e8fba8f74195a3_1_breadboard.svg</referenceFile>
  </desc>
  <desc
    id="desc4">Fritzing
    breadboard
    generated
    by
    brd2svg</desc>
  <g
    id="breadboard">
    <path
      id="path6"
      d="m 0,0 v 270 a 36.051501,30 0 0 1 0,60 v 270 h 594.99998 v -600 z"
      fill="#1f7a34"
      stroke="none"
      stroke-width="0"
    />
    <polygon
      points="291.264,69.6944 291.264,307.736 251.903,347.111 43.2361,347.111 3.86111,307.736 3.86111,69.6944 43.2361,30.3194 108.194,30.3194 186.931,30.3194 251.903,30.3194 "
      id="polygon8"
      transform="matrix(0.9996231,0,0,1,160,133.97273)"
      fill="#1a1a1a"
      stroke-width="1.00018847"
    />
    <polygon
      points="251.903,30.3194 167.972,30.3194 148.486,49.7917 129.028,30.3194 43.2361,30.3194 3.86111,69.6944 3.86111,266.542 43.2361,305.917 251.903,305.917 291.264,266.542 291.264,69.6944 "
      id="polygon10"
      transform="matrix(0.9996231,0,0,1,160,133.97273)"
      fill="#e6e6e6"
      stroke-width="1.00018847"
    />
    <polygon
      points="43.2361,305.917 3.86111,266.542 3.86111,264.056 43.2361,303.431 251.903,303.431 291.264,264.056 291.264,266.542 251.903,305.917 "
      id="polygon12"
      transform="matrix(0.9996231,0,0,1,160,133.97273)"
      opacity="0.2"
      stroke-width="1.00018847"
    />
    <polygon
      points="43.2361,347.111 3.86111,307.736 3.86111,305.264 43.2361,344.639 251.903,344.639 291.264,305.264 291.264,307.736 251.903,347.111 "
      id="polygon14"
      transform="matrix(0.9996231,0,0,1,160,133.97273)"
      stroke-width="1.00018847"
    />
    <polyline
      points="148.486,53.5,167.972,34.0278,251.903,34.0278,291.264,73.4028,291.264,69.6944,251.903,30.3194,167.972,30.3194,148.486,49.7917"
      id="polyline16"
      transform="matrix(0.9996231,0,0,1,160,133.97273)"
      opacity="0.2"
      fill="#ffffff"
      stroke-width="1.00018847"
    />
    <polyline
      points="148.486,53.5,129.028,34.0278,43.2361,34.0278,3.86111,73.4028,3.86111,69.6944,43.2361,30.3194,129.028,30.3194,148.486,49.7917"
      id="polyline18"
      transform="matrix(0.9996231,0,0,1,160,133.97273)"
      opacity="0.2"
      fill="#ffffff"
      stroke-width="1.00018847"
    />
    <polygon
      points="221.958,341.319 221.958,305.917 194.528,305.917 194.528,323.611 100.611,323.611 100.611,305.917 73.1806,305.917 73.1806,341.319 "
      id="polygon20"
      transform="matrix(0.9996231,0,0,1,160,133.97273)"
      fill="#e6e6e6"
      stroke-width="1.00018847"
    />
    <rect
      x="233.15302"
      width="148.72192"
      height="1"
      y="475.29172"
      id="rect22"
      opacity="0.5"
      stroke-width="0.99999994"
    />
    <rect
      x="260.57306"
      width="93.895203"
      height="1"
      y="457.58371"
      id="rect24"
      opacity="0.5"
      stroke-width="0.99999994"
    />
    <ellipse
      cx="307.51337"
      cy="302.08371"
      id="circle26"
      rx="59.03334"
      ry="59.055599"
      fill="#f2f2f2"
      stroke-width="0.99999994"
    />
    <path
      d="m 248.48054,304.69473 c 0,32.6111 26.42064,59.0556 59.03334,59.0556 32.59881,0 59.03334,-26.4444 59.03334,-59.0556 v -2.61111 c 0,32.6111 -26.43443,59.0556 -59.03334,59.0556 -32.6127,0 -59.03334,-26.4444 -59.03334,-59.0556 z"
      id="path28"
      opacity="0.2"
      stroke-width="0.99999994"
    />
    <ellipse
      cx="307.51337"
      cy="292.81973"
      id="circle30"
      rx="50.730873"
      ry="50.75"
      fill="#e6e6e6"
      stroke-width="0.99999994"
    />
    <ellipse
      cx="307.51337"
      cy="292.83371"
      id="circle32"
      rx="45.371792"
      ry="45.388901"
      fill="#1a1a1a"
      stroke-width="0.99999994"
    />
    <rect
      x="262.21146"
      width="90.451996"
      height="27.013901"
      y="270.01474"
      id="rect34"
      fill="#1a1a1a"
      stroke-width="0.99999994"
    />
    <ellipse
      cx="307.51337"
      cy="271.76474"
      id="circle36"
      rx="45.371792"
      ry="45.388901"
      fill="#333333"
      stroke-width="0.99999994"
    />
    <path
      d="m 262.15548,294.87573 c 0,25.0694 20.29795,45.3889 45.3579,45.3889 25.05995,0 45.37179,-20.3194 45.37179,-45.3889 v -2.04167 c 0,25.0694 -20.31174,45.3889 -45.37179,45.3889 -25.06005,0 -45.3579,-20.3194 -45.3579,-45.3889 z"
      id="path38"
      opacity="0.2"
      stroke-width="0.99999994"
    />
    <path
      d="m 352.88527,273.81973 c 0,25.0694 -20.31174,45.3889 -45.37179,45.3889 -25.06005,0 -45.3579,-20.3194 -45.3579,-45.3889 l -10e-5,-2.055 c 0,25.0694 20.29795,45.3889 45.3579,45.3889 25.05995,0 45.37179,-20.3194 45.37179,-45.3889 z"
      id="path40"
      opacity="0.2"
      stroke-width="0.99999994"
    />
    <path
      d="m 262.15548,271.76473 c 0,-25.0694 20.31174,-45.3889 45.3718,-45.3889 25.04615,0 45.37179,20.3194 45.37179,45.3889 v 2.04167 c 0,-25.0694 -20.31174,-45.3889 -45.37179,-45.3889 -25.05996,0 -45.3718,20.3194 -45.3718,45.3889 z"
      id="path42"
      opacity="0.2"
      fill="#ffffff"
      stroke-width="0.99999994"
    />
    <path
      d="m 314.87261,303.98673 c -4.05403,4.05556 -10.67658,4.05556 -14.73055,0 l -24.85173,-24.8611 c -4.05403,-4.05556 -4.05403,-10.6806 0,-14.7361 l 24.85173,-24.8611 c 4.05403,-4.05556 10.67658,-4.05556 14.73055,0 l 24.85173,24.8611 c 4.04014,4.05556 4.04014,10.6806 0,14.7361 z"
      id="path44"
      fill="#1a1a1a"
      stroke-width="0.99999994"
    />
    <rect
      x="272.26367"
      width="70.501221"
      height="61.208302"
      y="212.04213"
      id="rect46"
      fill="#1a1a1a"
      stroke-width="0.99999994"
    />
    <path
      d="m 314.87261,244.27873 c -4.05403,4.05556 -10.67658,4.05556 -14.73055,0 l -24.85173,-24.8611 c -4.05403,-4.05556 -4.05403,-10.6806 0,-14.7361 l 24.85173,-24.8611 c 4.05403,-4.05556 10.67658,-4.05556 14.73055,0 l 24.85173,24.8611 c 4.04014,4.05556 4.04014,10.6806 0,14.7361 z"
      id="path48"
      fill="#333333"
      stroke-width="0.99999994"
    />
    <rect
      x="160"
      width="3.8596547"
      height="145.83299"
      y="229.16713"
      id="rect50"
      fill="#e6e6e6"
      stroke-width="0.99999994"
    />
    <rect
      x="451.15424"
      width="3.8457699"
      height="145.83299"
      y="229.16713"
      id="rect52"
      fill="#e6e6e6"
      stroke-width="0.99999994"
    />
    <path
      d="m 275.30353,219.41713 c -4.05404,-4.05556 -4.05404,-8.84722 0,-12.8889 l 24.85173,-24.8611 c 4.05403,-4.05556 10.67657,-4.05556 14.73054,0 l 24.85173,24.8611 c 4.04015,4.05556 4.04015,8.84722 0,12.8889 v 0 c 4.04015,-4.05556 4.04015,-10.6806 0,-14.7361 l -24.85173,-24.8611 c -4.05403,-4.05556 -10.69037,-4.05556 -14.73054,0 l -24.85173,24.8611 c -4.03948,4.0556 -4.03948,10.6806 0,14.7361 z"
      id="path54"
      opacity="0.2"
      fill="#ffffff"
      stroke-width="0.99999994"
    />
    <path
      d="m 339.73823,204.68103 c 4.04015,4.05556 4.04015,8.84722 0,12.8889 l -24.86562,24.8611 c -4.04015,4.05556 -10.67658,4.05556 -14.73055,0 l -24.83783,-24.8611 c -4.05404,-4.05556 -4.05404,-8.84722 0,-12.8889 v 0 c -4.05404,4.05556 -4.05404,10.6806 0,14.7361 l 24.83783,24.8611 c 4.05403,4.05556 10.69037,4.05556 14.73055,0 l 24.86562,-24.8611 c 4.03948,-4.0555 4.03948,-10.6805 0,-14.7361 z"
      id="path56"
      opacity="0.2"
      fill="#ffffff"
      stroke-width="0.99999994"
    />
    <path
      d="m 339.73823,264.40373 c 4.04015,4.05556 4.04015,8.84722 0,12.8889 l -24.86562,24.8611 c -4.04015,4.04167 -10.67658,4.04167 -14.73055,0 l -24.83783,-24.8611 c -4.05404,-4.05556 -4.05404,-8.84722 0,-12.8889 v 0 c -4.05404,4.05556 -4.05404,10.6806 0,14.7361 l 24.83783,24.8611 c 4.05403,4.05556 10.69037,4.05556 14.73055,0 l 24.86562,-24.8611 c 4.03948,-4.0561 4.03948,-10.6811 0,-14.7361 z"
      id="path58"
      opacity="0.2"
      stroke-width="0.99999994"
    />
    <rect
      x="270.12546"
      width="74.791199"
      height="21.7083"
      y="475.29172"
      id="rect60"
      fill="#e6e6e6"
      stroke-width="0.99999994"
    />
    <rect
      x="81.597504"
      id="connector0pin"
      gorn="0.1.1.0.0"
      width="31.93"
      height="31.9"
      y="534.04999"
      fill="#8d8c8c"
    />
    <rect
      x="89.38903"
      width="16.444201"
      height="16.415199"
      y="541.78546"
      id="rect70"
      fill="#8c8663"
    />
    <polygon
      points="7.79153,6.97162 0,0 0,31.9 7.79153,24.1368 "
      id="polygon72"
      transform="translate(81.5975,534.05)"
      fill="#b8af82"
    />
    <polygon
      points="0,0 31.93,0 24.2079,7.76321 7.90264,7.76321 "
      id="polygon74"
      transform="translate(81.5975,534.05)"
      fill="#80795b"
    />
    <polygon
      points="31.93,0 31.93,31.9 24.2079,24.1368 24.2079,7.76321 "
      id="polygon76"
      transform="translate(81.5975,534.05)"
      fill="#5e5b43"
    />
    <polygon
      points="24.2079,24.1368 31.93,31.9 0,31.9 7.87486,24.1368 "
      id="polygon78"
      transform="translate(81.5975,534.05)"
      fill="#9a916c"
    />
    <rect
      x="81.597504"
      id="connector9pin"
      gorn="0.1.2.0.0"
      width="31.93"
      height="31.9"
      y="34.049999"
      fill="#8d8c8c"
    />
    <rect
      x="89.38903"
      width="16.444201"
      height="16.415199"
      y="41.785439"
      id="rect85"
      fill="#8c8663"
    />
    <polygon
      points="7.79153,6.97162 0,0 0,31.9 7.79153,24.1368 "
      id="polygon87"
      transform="translate(81.5975,34.05)"
      fill="#b8af82"
    />
    <polygon
      points="0,0 31.93,0 24.2079,7.76321 7.90264,7.76321 "
      id="polygon89"
      transform="translate(81.5975,34.05)"
      fill="#80795b"
    />
    <polygon
      points="31.93,0 31.93,31.9 24.2079,24.1368 24.2079,7.76321 "
      id="polygon91"
      transform="translate(81.5975,34.05)"
      fill="#5e5b43"
    />
    <polygon
      points="24.2079,24.1368 31.93,31.9 0,31.9 7.87486,24.1368 "
      id="polygon93"
      transform="translate(81.5975,34.05)"
      fill="#9a916c"
    />
    <rect
      x="181.597"
      id="connector1pin"
      gorn="0.1.3.0.0"
      width="31.93"
      height="31.9"
      y="534.04999"
      fill="#8d8c8c"
    />
    <rect
      x="189.38853"
      width="16.444201"
      height="16.415199"
      y="541.78546"
      id="rect100"
      fill="#8c8663"
    />
    <polygon
      points="7.79153,6.97162 0,0 0,31.9 7.79153,24.1368 "
      id="polygon102"
      transform="translate(181.597,534.05)"
      fill="#b8af82"
    />
    <polygon
      points="0,0 31.93,0 24.2079,7.76321 7.90264,7.76321 "
      id="polygon104"
      transform="translate(181.597,534.05)"
      fill="#80795b"
    />
    <polygon
      points="31.93,0 31.93,31.9 24.2079,24.1368 24.2079,7.76321 "
      id="polygon106"
      transform="translate(181.597,534.05)"
      fill="#5e5b43"
    />
    <polygon
      points="24.2079,24.1368 31.93,31.9 0,31.9 7.87486,24.1368 "
      id="polygon108"
      transform="translate(181.597,534.05)"
      fill="#9a916c"
    />
    <rect
      x="181.597"
      id="connector8pin"
      gorn="0.1.4.0.0"
      width="31.93"
      height="31.9"
      y="34.049999"
      fill="#8d8c8c"
    />
    <rect
      x="189.38853"
      width="16.444201"
      height="16.415199"
      y="41.785439"
      id="rect115"
      fill="#8c8663"
    />
    <polygon
      points="7.79153,6.97162 0,0 0,31.9 7.79153,24.1368 "
      id="polygon117"
      transform="translate(181.597,34.05)"
      fill="#b8af82"
    />
    <polygon
      points="0,0 31.93,0 24.2079,7.76321 7.90264,7.76321 "
      id="polygon119"
      transform="translate(181.597,34.05)"
      fill="#80795b"
    />
    <polygon
      points="31.93,0 31.93,31.9 24.2079,24.1368 24.2079,7.76321 "
      id="polygon121"
      transform="translate(181.597,34.05)"
      fill="#5e5b43"
    />
    <polygon
      points="24.2079,24.1368 31.93,31.9 0,31.9 7.87486,24.1368 "
      id="polygon123"
      transform="translate(181.597,34.05)"
      fill="#9a916c"
    />
    <rect
      x="281.59698"
      id="connector2pin"
      gorn="0.1.5.0.0"
      width="31.93"
      height="31.9"
      y="534.04999"
      fill="#8d8c8c"
    />
    <rect
      x="289.38852"
      width="16.444201"
      height="16.415199"
      y="541.78546"
      id="rect130"
      fill="#8c8663"
    />
    <polygon
      points="7.79153,6.97162 0,0 0,31.9 7.79153,24.1368 "
      id="polygon132"
      transform="translate(281.597,534.05)"
      fill="#b8af82"
    />
    <polygon
      points="0,0 31.93,0 24.2079,7.76321 7.90264,7.76321 "
      id="polygon134"
      transform="translate(281.597,534.05)"
      fill="#80795b"
    />
    <polygon
      points="31.93,0 31.93,31.9 24.2079,24.1368 24.2079,7.76321 "
      id="polygon136"
      transform="translate(281.597,534.05)"
      fill="#5e5b43"
    />
    <polygon
      points="24.2079,24.1368 31.93,31.9 0,31.9 7.87486,24.1368 "
      id="polygon138"
      transform="translate(281.597,534.05)"
      fill="#9a916c"
    />
    <rect
      x="281.59698"
      id="connector7pin"
      gorn="0.1.6.0.0"
      width="31.93"
      height="31.9"
      y="34.049999"
      fill="#8d8c8c"
    />
    <rect
      x="289.38852"
      width="16.444201"
      height="16.415199"
      y="41.785439"
      id="rect145"
      fill="#8c8663"
    />
    <polygon
      points="7.79153,6.97162 0,0 0,31.9 7.79153,24.1368 "
      id="polygon147"
      transform="translate(281.597,34.05)"
      fill="#b8af82"
    />
    <polygon
      points="0,0 31.93,0 24.2079,7.76321 7.90264,7.76321 "
      id="polygon149"
      transform="translate(281.597,34.05)"
      fill="#80795b"
    />
    <polygon
      points="31.93,0 31.93,31.9 24.2079,24.1368 24.2079,7.76321 "
      id="polygon151"
      transform="translate(281.597,34.05)"
      fill="#5e5b43"
    />
    <polygon
      points="24.2079,24.1368 31.93,31.9 0,31.9 7.87486,24.1368 "
      id="polygon153"
      transform="translate(281.597,34.05)"
      fill="#9a916c"
    />
    <rect
      y="534.04999"
      height="31.9"
      width="31.93"
      gorn="0.1.3.0.0"
      id="connector3pin"
      x="382"
      fill="#8d8c8c"
    />
    <rect
      id="rect367"
      y="541.78546"
      height="16.415199"
      width="16.444201"
      x="389.79153"
      fill="#8c8663"
    />
    <polygon
      transform="translate(382,534.05)"
      id="polygon369"
      points="0,0 0,31.9 7.79153,24.1368 7.79153,6.97162 "
      fill="#b8af82"
    />
    <polygon
      transform="translate(382,534.05)"
      id="polygon371"
      points="31.93,0 24.2079,7.76321 7.90264,7.76321 0,0 "
      fill="#80795b"
    />
    <polygon
      transform="translate(382,534.05)"
      id="polygon373"
      points="31.93,31.9 24.2079,24.1368 24.2079,7.76321 31.93,0 "
      fill="#5e5b43"
    />
    <polygon
      transform="translate(382,534.05)"
      id="polygon375"
      points="31.93,31.9 0,31.9 7.87486,24.1368 24.2079,24.1368 "
      fill="#9a916c"
    />
    <rect
      y="534.04999"
      height="31.9"
      width="31.93"
      gorn="0.1.5.0.0"
      id="connector4pin"
      x="482"
      fill="#8d8c8c"
    />
    <rect
      id="rect379"
      y="541.78546"
      height="16.415199"
      width="16.444201"
      x="489.79153"
      fill="#8c8663"
    />
    <polygon
      transform="translate(482,534.05)"
      id="polygon381"
      points="0,0 0,31.9 7.79153,24.1368 7.79153,6.97162 "
      fill="#b8af82"
    />
    <polygon
      transform="translate(482,534.05)"
      id="polygon383"
      points="31.93,0 24.2079,7.76321 7.90264,7.76321 0,0 "
      fill="#80795b"
    />
    <polygon
      transform="translate(482,534.05)"
      id="polygon385"
      points="31.93,31.9 24.2079,24.1368 24.2079,7.76321 31.93,0 "
      fill="#5e5b43"
    />
    <polygon
      transform="translate(482,534.05)"
      id="polygon387"
      points="31.93,31.9 0,31.9 7.87486,24.1368 24.2079,24.1368 "
      fill="#9a916c"
    />
    <rect
      y="34.049999"
      height="31.9"
      width="31.93"
      gorn="0.1.2.0.0"
      id="connector6pin"
      x="382"
      fill="#8d8c8c"
    />
    <rect
      id="rect391"
      y="41.785439"
      height="16.415199"
      width="16.444201"
      x="389.79153"
      fill="#8c8663"
    />
    <polygon
      transform="translate(382,34.05)"
      id="polygon393"
      points="0,0 0,31.9 7.79153,24.1368 7.79153,6.97162 "
      fill="#b8af82"
    />
    <polygon
      transform="translate(382,34.05)"
      id="polygon395"
      points="31.93,0 24.2079,7.76321 7.90264,7.76321 0,0 "
      fill="#80795b"
    />
    <polygon
      transform="translate(382,34.05)"
      id="polygon397"
      points="31.93,31.9 24.2079,24.1368 24.2079,7.76321 31.93,0 "
      fill="#5e5b43"
    />
    <polygon
      transform="translate(382,34.05)"
      id="polygon399"
      points="31.93,31.9 0,31.9 7.87486,24.1368 24.2079,24.1368 "
      fill="#9a916c"
    />
    <rect
      y="34.049999"
      height="31.9"
      width="31.93"
      gorn="0.1.4.0.0"
      id="connector5pin"
      x="481.99951"
      fill="#8d8c8c"
    />
    <rect
      id="rect403"
      y="41.785439"
      height="16.415199"
      width="16.444201"
      x="489.79105"
      fill="#8c8663"
    />
    <polygon
      transform="translate(481.9995,34.05)"
      id="polygon405"
      points="0,0 0,31.9 7.79153,24.1368 7.79153,6.97162 "
      fill="#b8af82"
    />
    <polygon
      transform="translate(481.9995,34.05)"
      id="polygon407"
      points="31.93,0 24.2079,7.76321 7.90264,7.76321 0,0 "
      fill="#80795b"
    />
    <polygon
      transform="translate(481.9995,34.05)"
      id="polygon409"
      points="31.93,31.9 24.2079,24.1368 24.2079,7.76321 31.93,0 "
      fill="#5e5b43"
    />
    <polygon
      transform="translate(481.9995,34.05)"
      id="polygon411"
      points="31.93,31.9 0,31.9 7.87486,24.1368 24.2079,24.1368 "
      fill="#9a916c"
    />
    <text
      x="85.833061"
      y="523.61932"
      font-size="25"
      id="text3685"
      font-family="OCRA"
      fill="#ffffff">A</text>
    <text
      id="text192"
      font-size="25"
      y="526.16168"
      x="187.52798"
      font-family="OCRA"
      fill="#ffffff">B</text>
    <text
      x="289.2229"
      y="526.16168"
      font-size="25"
      id="text194"
      font-family="OCRA"
      fill="#ffffff">C</text>
    <text
      id="text196"
      font-size="25"
      y="522.34814"
      x="385.83307"
      font-family="OCRA"
      fill="#ffffff">D</text>
    <text
      x="459.56189"
      y="524.8905"
      font-size="25"
      id="text198"
      font-family="OCRA"
      fill="#ffffff">Push</text>
    <text
      id="text200"
      font-size="25"
      y="100.31421"
      x="463.37543"
      font-family="OCRA"
      fill="#ffffff">Com</text>
    <text
      x="369.30762"
      y="101.5854"
      font-size="25"
      id="text202"
      font-family="OCRA"
      fill="#ffffff">GND</text>
    <text
      id="text204"
      font-size="25"
      y="99.678619"
      x="270.15506"
      font-family="OCRA"
      fill="#ffffff">Enc</text>
    <text
      x="268.88388"
      y="130.82269"
      font-size="25"
      id="text206"
      font-family="OCRA"
      fill="#ffffff">Com</text>
    <text
      x="169.73134"
      y="97.136246"
      font-size="25"
      id="text208"
      font-family="OCRA"
      fill="#ffffff">Enc</text>
    <text
      id="text210"
      font-size="25"
      y="98.407433"
      x="69.307602"
      font-family="OCRA"
      fill="#ffffff">Enc</text>
    <text
      id="text212"
      font-size="25"
      y="129.55148"
      x="188.16354"
      font-family="OCRA"
      fill="#ffffff">A</text>
    <text
      x="87.10421"
      y="128.91589"
      font-size="25"
      id="text214"
      font-family="OCRA"
      fill="#ffffff">B</text>
  </g>
</svg>
