<?xml version='1.0' encoding='utf-8'?>
<!DOCTYPE svg>
<!-- Generator: Adobe Illustrator 14.0.0, SVG Export Plug-In . SVG Version: 6.00 Build 43363)  -->
<svg xmlns="http://www.w3.org/2000/svg" viewBox="0 0 56.693 56.693" enable-background="new 0 0 56.693 56.693" gorn="0" width="0.787403in" x="0px" xmlns:xml="http://www.w3.org/XML/1998/namespace" height="0.787403in" xml:space="preserve" version="1.1"  id="svg2" y="0px">
    <desc>
        <referenceFile>Rotary_Encoder.svg</referenceFile>
    </desc>
    <g gorn="0.0"  id="breadboard">
        <path stroke-width="1.3275" stroke="#000000"  d="M54.343,49.474c0,2.353-1.911,4.264-4.262,4.264H15.612c-2.354,0-4.262-1.911-4.262-4.264V8.12c0-2.352,1.909-4.264,4.262-4.264h34.469c2.354,0,4.262,1.912,4.262,4.264V49.474L54.343,49.474z"/>
        <rect width="46.375" fill="#CCCCCC" x="9.595" height="6.642"  y="25.477"/>
        <rect width="2.608" fill="#CCCCCC" x="42.287" height="4.01"  y="53.725"/>
        <rect width="2.61" fill="#CCCCCC" x="31.457" height="4.01"  y="53.725"/>
        <rect width="2.61" fill="#CCCCCC" x="20.625" height="4.01"  y="53.725"/>
        <path stroke-width="1.3275" fill="none" stroke="#000000"  d="M53.259,47.309c0,2.354-1.907,4.266-4.262,4.266H14.53c-2.354,0-4.263-1.911-4.263-4.266V5.955c0-2.353,1.909-4.263,4.263-4.263h34.467c2.353,0,4.262,1.91,4.262,4.263V47.309L53.259,47.309z"/>
        <polygon fill="#CCCCCC" points="55.095,9.747 55.095,47.849 54.011,45.685 9.515,45.685 9.515,7.582 54.011,7.582 " />
        <polygon fill="#ABABAB" points="55.973,25.477 55.973,32.119 54.889,29.955 9.515,29.83 9.494,32.088 8.512,29.955 8.512,23.313 54.889,23.313 " />
        <path fill="#ABABAB"  d="M52.936,46.947c0,2.313-1.875,4.187-4.189,4.187H14.887c-2.313,0-4.188-1.873-4.188-4.187V6.321c0-2.312,1.875-4.189,4.188-4.189h33.859c2.312,0,4.188,1.877,4.188,4.189L52.936,46.947L52.936,46.947z"/>
        <circle cy="46.554" cx="48.603"  r="2.379"/>
        <circle cy="46.554" cx="15.029"  r="2.379"/>
        <circle cy="6.484" cx="48.603"  r="2.379"/>
        <circle cy="6.484" cx="15.029"  r="2.379"/>
        <path stroke-width="1.504" fill="#878787" stroke="#777777"  d="M31.77,14.381c6.747,0,12.22,5.471,12.22,12.22c0,6.749-5.473,12.219-12.22,12.219c-6.752,0-12.224-5.471-12.224-12.219C19.547,19.852,25.018,14.381,31.77,14.381z"/>
        <circle fill="#878787" cy="26.601" cx="31.77"  r="9.776"/>
        <path fill="#3A3A3A"  d="M30.689,14.659c5.399,0,9.775,4.376,9.775,9.775c0,5.398-4.376,9.776-9.775,9.776c-5.403,0-9.779-4.378-9.779-9.776C20.91,19.036,25.286,14.659,30.689,14.659z"/>
        <polygon fill="#3A3A3A" points="17.535,19.992 22.244,29.248 39.641,20.509 35.078,11.465 " />
        <path fill="#595959"  d="M27.52,29.767l10.754-11.967c0.184,0.747,0.165,1.449,0.165,2.253c0,5.399-4.377,9.778-9.78,9.778C28.275,29.833,27.896,29.811,27.52,29.767z"/>
        <path fill="#3A3A3A"  d="M27.511,29.829c-4.926-0.503-8.771-4.668-8.771-9.728c0-5.399,4.377-9.776,9.778-9.776c4.696,0,8.616,3.305,9.562,7.715L27.511,29.829z"/>
        <path fill="#3A3A3A"  d="M25.345,25.498c-4.926-0.503-8.77-4.669-8.77-9.729c0-5.399,4.376-9.776,9.776-9.776c4.698,0,8.618,3.307,9.563,7.717L25.345,25.498z"/>
        <polygon fill="#828282" points="25.345,25.498 27.52,29.767 38.277,17.802 36.089,13.563 " />
    </g>
</svg>
